<?xml version="1.0" encoding="UTF-8"?>
<svg xmlns="http://www.w3.org/2000/svg" id="Layer_2" data-name="Layer 2" viewBox="0 0 1142.49 230.32">
  <defs>
    <style>      .cls-1, .cls-2 {        fill-rule: evenodd;      }      .cls-1, .cls-3 {        fill: #df7a35;      }    </style>
  </defs>
  <g id="Layer_1-2" data-name="Layer 1">
    <g>
      <path class="cls-2" d="M129.3,130.05l-19.33,52.1c-.31.88-.11,1.84.57,2.49l45.64,44.99c.77.77,1.9.91,2.83.34.94-.54,1.36-1.59,1.08-2.64l-8.08-29.91c12.64-.82,30.16-2.95,42.8-3.77.48-.03.85-.23,1.11-.65l7.23-12.56c.94-1.62-.23-4.05-2.35-4.34l-31.97-4.28-7.48-8.48c-.4-.43-.88-.68-1.47-.77l-17.94-2.38-8.11-29.96c-.28-.99-1.13-1.7-2.18-1.73-1.05-.06-1.96.54-2.32,1.53h0ZM152.12,172.71l8.42,1.11-2.44,3-5.98-4.11Z"></path>
      <path class="cls-2" d="M425.33,31.89h9.92c3.12,0,5.67,2.55,5.67,5.67v29.76h42.52v-29.76c0-3.12,2.55-5.67,5.67-5.67h9.92c3.12,0,5.67,2.55,5.67,5.67v70.16c0,3.12-2.55,5.67-5.67,5.67h-9.92c-3.12,0-5.67-2.55-5.67-5.67v-19.13h-42.52v19.13c0,3.12-2.55,5.67-5.67,5.67h-9.92c-3.12,0-5.67-2.55-5.67-5.67V37.56c0-3.12,2.55-5.67,5.67-5.67h0Z"></path>
      <path class="cls-2" d="M873.2,37.56v70.16c0,3.12,2.55,5.67,5.67,5.67h9.92c3.12,0,5.67-2.55,5.67-5.67v-54.57h42.52v3.43l-31.75,12.25c-2.92,1.08-4.42,4.37-3.34,7.29l3.46,9.33c1.16,2.92,4.31,4.48,7.29,3.34l41.92-16.19c2.24-.82,3.69-2.92,3.69-5.33v-29.71c0-3.12-2.55-5.67-5.67-5.67h-73.7c-3.12,0-5.67,2.55-5.67,5.67h0Z"></path>
      <path class="cls-2" d="M803.75,31.89h-9.92c-3.12,0-5.67,2.55-5.67,5.67v70.16c0,3.12,2.55,5.67,5.67,5.67h54c.71,0,1.36-.11,2.04-.37l12.87-4.96c2.83-1.08,3.94-4.34,3.12-7.31l-3.43-9.21c-1.16-2.92-4.34-4.48-7.29-3.34l-10.2,3.94h-35.52v-54.57c0-3.12-2.55-5.67-5.67-5.67h0Z"></path>
      <path class="cls-2" d="M1057.45,37.56v9.92c0,3.12,2.55,5.67,5.67,5.67h26.22v54.43c0,3.12,2.55,5.81,5.67,5.81h9.92c3.12,0,5.67-2.55,5.67-5.67v-54.57h26.22c3.12,0,5.67-2.55,5.67-5.67v-9.92c0-3.12-2.55-5.67-5.67-5.67h-73.7c-3.12,0-5.67,2.55-5.67,5.67h0Z"></path>
      <path class="cls-2" d="M1050.37,97.8v9.92c0,3.12-2.55,5.67-5.67,5.67h-73.7c-3.12,0-5.67-2.55-5.67-5.67V37.56c0-3.12,2.55-5.67,5.67-5.67h73.7c3.12,0,5.67,2.55,5.67,5.67v9.92c0,3.12-2.55,5.67-5.67,5.67h-58.11v8.84h43.94c3.12,0,5.67,2.55,5.67,5.67v9.92c0,3.15-2.55,5.67-5.67,5.67h-43.94v8.87h58.11c3.12,0,5.67,2.55,5.67,5.67h0Z"></path>
      <path class="cls-2" d="M406.9,31.89h-73.7c-3.12,0-5.67,2.55-5.67,5.67v70.16c0,3.12,2.55,5.67,5.67,5.67h73.7c3.12,0,5.67-2.55,5.67-5.67v-9.92c0-3.12-2.55-5.67-5.67-5.67h-58.11v-38.98h58.11c3.12,0,5.67-2.55,5.67-5.67v-9.92c0-3.12-2.55-5.67-5.67-5.67h0Z"></path>
      <path class="cls-2" d="M683.28,31.89h-73.7c-3.12,0-5.67,2.55-5.67,5.67v70.16c0,3.12,2.55,5.67,5.67,5.67h73.7c3.12,0,5.67-2.55,5.67-5.67v-9.92c0-3.12-2.55-5.67-5.67-5.67h-58.11v-38.98h58.11c3.12,0,5.67-2.55,5.67-5.67v-9.92c0-3.12-2.55-5.67-5.67-5.67h0Z"></path>
      <path class="cls-2" d="M535.99,31.89c-2.41,0-4.45,1.42-5.3,3.69l-18.57,50.09c-.23.62-.34,1.22-.34,1.9v20.15c0,3.12,2.55,5.67,5.67,5.67h9.92c3.12,0,5.67-2.55,5.67-5.67v-12.05h42.52v12.05c0,3.12,2.55,5.67,5.67,5.67h9.92c3.12,0,5.67-2.55,5.67-5.67v-20.15c0-.68-.11-1.28-.34-1.9l-18.57-50.09c-.82-2.27-2.89-3.69-5.3-3.69h-36.62ZM538.97,74.41l7.88-21.26h14.91l7.88,21.26h-30.67Z"></path>
      <path class="cls-2" d="M720.24,31.89c-2.41,0-4.45,1.42-5.3,3.69l-18.57,50.09c-.23.62-.34,1.22-.34,1.9v20.15c0,3.12,2.55,5.67,5.67,5.67h9.92c3.12,0,5.67-2.55,5.67-5.67v-12.05h42.52v12.05c0,3.12,2.55,5.67,5.67,5.67h9.92c3.12,0,5.67-2.55,5.67-5.67v-20.15c0-.68-.11-1.28-.34-1.9l-18.57-50.09c-.82-2.27-2.89-3.69-5.3-3.69h-36.62ZM723.22,74.41l7.88-21.26h14.91l7.88,21.26h-30.67Z"></path>
      <g>
        <path class="cls-1" d="M108.39.99l-16.67,23.36c-.54.77-.6,1.73-.11,2.55l18.06,30.5c.4.71,1.11,1.13,1.93,1.16.82.03,1.53-.31,2.01-.99l18.28-25.63,37.16,52.1c-7.11,7.85-14.23,15.7-21.37,23.58-.68.77-.79,1.84-.28,2.75s1.53,1.36,2.55,1.13l54.28-11.85c.94-.2,1.62-.88,1.81-1.81l13.24-62.7c.23-1.05-.28-2.07-1.25-2.58-.96-.48-2.07-.28-2.81.51-6.89,7.63-13.78,15.22-20.66,22.82L155.36.99c-.45-.65-1.13-.99-1.9-.99h-43.14c-.79,0-1.47.34-1.93.99h0Z"></path>
        <path class="cls-1" d="M203.88,194.03l19.53-33.82-26.11-36.6c-.48-.65-.6-1.45-.28-2.21.28-.77.88-1.28,1.7-1.47l34.41-7.48c.94-.23,1.87.14,2.44.94l27.72,38.86c.57.77.6,1.73.14,2.55l-23.92,41.44c-.43.74-1.19,1.19-2.04,1.19h-31.63c-.85,0-1.56-.43-1.96-1.13-.43-.71-.43-1.53,0-2.27h0Z"></path>
        <path class="cls-1" d="M86.67,57.77l-63.67,7.11c-1.08.11-1.9.91-2.07,1.98-.17,1.08.4,2.07,1.39,2.52,9.44,4.17,18.88,8.33,28.32,12.53C33.92,105.36,17.17,128.81.44,152.25c-.54.79-.6,1.73-.11,2.55l23.92,41.44c.43.74,1.16,1.19,2.04,1.19h56.55c1.02,0,1.87-.6,2.21-1.56l12.05-32.49c.28-.74.17-1.5-.28-2.15-.45-.65-1.13-1.02-1.93-1.02h-54.57c15-20.98,29.96-41.98,44.96-62.96,9.67,4.28,19.33,8.56,29,12.84.96.43,2.01.2,2.72-.6.68-.77.79-1.87.26-2.78l-28.29-47.82c-.48-.82-1.33-1.25-2.3-1.13h0Z"></path>
        <path class="cls-3" d="M380.68,198.43v-47.99h6.41v47.99h-6.41ZM410.19,198.43l-15.85-21.26h7.54l16.07,21.26h-7.77ZM384.68,181.16v-5.7h12.81c2.01,0,3.74-.4,5.16-1.25,1.45-.82,2.55-1.96,3.34-3.43.79-1.45,1.19-3.12,1.19-4.99s-.4-3.54-1.19-5.02c-.79-1.45-1.9-2.61-3.34-3.46-1.42-.85-3.15-1.28-5.16-1.28h-12.81v-5.61h11.65c3.49,0,6.52.51,9.16,1.56,2.61,1.05,4.62,2.66,6.07,4.85,1.45,2.18,2.15,4.99,2.15,8.42v1.05c0,3.46-.71,6.26-2.18,8.45-1.47,2.18-3.49,3.8-6.09,4.82-2.58,1.05-5.61,1.59-9.1,1.59h-11.65ZM457.05,198.43v-47.74h6.43v47.74h-6.43ZM462.15,198.43v-5.75h23.16v5.75h-23.16ZM462.15,177.05v-5.78h21.15v5.78h-21.15ZM462.15,156.44v-5.75h22.51v5.75h-22.51ZM547.22,199.59c-4.34,0-8.08-.74-11.14-2.27-3.06-1.53-5.56-3.52-7.43-5.95-1.87-2.44-3.23-5.1-4.11-7.97-.88-2.83-1.3-5.61-1.3-8.25v-1.45c0-2.89.43-5.75,1.33-8.65.91-2.86,2.27-5.47,4.14-7.85,1.9-2.35,4.34-4.25,7.34-5.67,3-1.45,6.6-2.15,10.8-2.15s7.94.74,10.97,2.21c3.06,1.47,5.47,3.54,7.26,6.21s2.89,5.81,3.29,9.41h-6.55c-.34-2.69-1.22-4.93-2.61-6.69-1.42-1.76-3.15-3.09-5.27-3.97-2.13-.85-4.48-1.3-7.09-1.3-2.83,0-5.33.51-7.46,1.47-2.15.99-3.91,2.35-5.33,4.11-1.42,1.79-2.49,3.83-3.23,6.12-.71,2.32-1.08,4.82-1.08,7.54,0,2.55.37,4.99,1.08,7.31.74,2.3,1.81,4.37,3.29,6.15,1.45,1.79,3.29,3.17,5.44,4.22,2.18,1.02,4.73,1.53,7.65,1.53,4.11,0,7.57-1.02,10.35-3.09,2.78-2.04,4.48-4.99,5.1-8.87h6.55c-.45,3.26-1.56,6.24-3.32,8.96-1.76,2.69-4.2,4.85-7.31,6.46s-6.92,2.41-11.37,2.41h0ZM609.21,198.43v-47.74h6.41v47.74h-6.41ZM680.93,199.59c-4.34,0-8.05-.74-11.14-2.27-3.06-1.53-5.56-3.52-7.43-5.95-1.87-2.44-3.23-5.1-4.11-7.97-.88-2.83-1.3-5.61-1.3-8.25v-1.45c0-2.89.45-5.75,1.33-8.65.91-2.86,2.27-5.47,4.17-7.85,1.87-2.35,4.31-4.25,7.31-5.67,3-1.45,6.6-2.15,10.8-2.15s7.94.74,10.97,2.21c3.06,1.47,5.47,3.54,7.26,6.21s2.89,5.81,3.29,9.41h-6.55c-.34-2.69-1.22-4.93-2.61-6.69-1.42-1.76-3.15-3.09-5.27-3.97-2.13-.85-4.48-1.3-7.09-1.3-2.83,0-5.33.51-7.46,1.47-2.15.99-3.91,2.35-5.33,4.11-1.42,1.79-2.49,3.83-3.2,6.12-.74,2.32-1.11,4.82-1.11,7.54,0,2.55.37,4.99,1.11,7.31.71,2.3,1.79,4.37,3.26,6.15,1.45,1.79,3.29,3.17,5.47,4.22,2.15,1.02,4.71,1.53,7.63,1.53,4.11,0,7.57-1.02,10.35-3.09,2.78-2.04,4.48-4.99,5.1-8.87h6.55c-.45,3.26-1.56,6.24-3.32,8.96-1.76,2.69-4.2,4.85-7.31,6.46s-6.92,2.41-11.37,2.41h0ZM742.78,198.43v-47.74h6.43v47.74h-6.43ZM747.88,198.43v-5.75h21.86v5.75h-21.86ZM804.63,198.43l17.21-47.74h10.86l17.74,47.74h-6.63l-16.02-43.57,3.15,1.59h-7.71l3.32-1.59-15.48,43.57h-6.43ZM814.92,184.17l2.15-5.75h20.61l2.15,5.75h-24.92ZM909.6,199.59c-3.71,0-7.06-.6-10.06-1.81-3-1.22-5.61-2.95-7.77-5.16-2.15-2.24-3.83-4.85-4.99-7.88-1.19-3.03-1.79-6.35-1.79-9.92v-1.45c0-3.03.54-6.01,1.62-8.84,1.08-2.86,2.61-5.44,4.65-7.74,2.01-2.27,4.51-4.08,7.43-5.41,2.92-1.33,6.21-1.98,9.86-1.98,3.97,0,7.51.74,10.6,2.24,3.09,1.5,5.58,3.6,7.46,6.29,1.87,2.66,2.95,5.78,3.26,9.3h-6.55c-.28-2.64-1.16-4.85-2.61-6.63-1.45-1.76-3.2-3.09-5.33-3.97-2.1-.91-4.39-1.36-6.83-1.36s-4.76.45-6.86,1.36c-2.1.88-3.91,2.15-5.41,3.83-1.5,1.64-2.66,3.63-3.49,5.92-.82,2.32-1.25,4.9-1.25,7.8,0,3.26.45,6.12,1.33,8.59.91,2.47,2.15,4.54,3.77,6.15,1.62,1.64,3.52,2.86,5.73,3.71,2.21.82,4.62,1.22,7.23,1.22,3.71,0,6.97-.74,9.78-2.24,2.81-1.5,4.93-3.46,6.38-5.87l-2.35,7.8v-14.2h6.01v11.4c-2.13,2.78-4.88,4.96-8.25,6.52-3.34,1.59-7.2,2.35-11.57,2.35h0ZM907.9,180.62v-5.36h25.57v5.36h-25.57ZM973.21,198.43v-47.74h6.41v47.74h-6.41ZM978.31,198.43v-5.75h23.16v5.75h-23.16ZM978.31,177.05v-5.78h21.12v5.78h-21.12ZM978.31,156.44v-5.75h22.51v5.75h-22.51ZM1043.05,198.43v-47.74h8.5l14.12,31.83h1.05l14.06-31.83h8.56v47.74h-6.41v-40.73l.45.11-13.52,30.76h-7.85l-13.61-30.76.51-.11v40.73h-5.87Z"></path>
      </g>
    </g>
  </g>
</svg>
