<?xml version="1.0" encoding="UTF-8"?> <svg xmlns="http://www.w3.org/2000/svg" id="Layer_2" data-name="Layer 2" viewBox="0 0 219.19 46.65"><defs><style> .cls-1, .cls-2 { fill: #43799e; } .cls-2, .cls-3 { fill-rule: evenodd; } .cls-4, .cls-3 { fill: #18283c; } </style></defs><g id="Camada_1" data-name="Camada 1"><g><path class="cls-2" d="M20.74,45.47c.27,0,.53-.04.78-.11.25-.07.47-.18.69-.31,5.46-3.27,11.18-6.26,16.62-9.58.22-.13.42-.29.6-.47.2-.18.36-.38.49-.6.13-.22.22-.47.29-.71.07-.27.09-.51.09-.76V13.72c0-.25-.02-.51-.09-.76-.07-.25-.16-.49-.29-.71s-.29-.42-.47-.6-.4-.33-.6-.47c-5.06-3.41-11.52-6.22-16.66-9.6-.2-.13-.45-.25-.69-.31-.22-.04-.49-.09-.76-.09s-.53.04-.76.09c-.25.07-.49.18-.71.31-5.48,2.67-11.12,6.82-16.64,9.6-.2.13-.42.27-.6.47-.18.16-.33.38-.47.6h0c-.13.22-.22.47-.29.71s-.09.51-.09.76v19.2c0,.25.02.49.09.76.07.25.16.49.29.71h0c.13.22.29.42.49.6.18.2.38.33.6.47,4.86,2.96,11.63,7.13,16.62,9.58.22.13.45.25.69.31.25.07.51.11.78.11h0ZM20.74,46.65c.76,0,1.47-.22,2.09-.6l16.55-9.56c.62-.33,1.16-.85,1.54-1.51.38-.65.56-1.38.56-2.07V13.75c0-.71-.18-1.43-.56-2.09-.36-.65-.89-1.14-1.51-1.49L22.79.58c-.6-.38-1.29-.58-2.05-.58s-1.45.2-2.05.56L2.07,10.16c-.62.33-1.16.85-1.54,1.49-.38.67-.53,1.38-.53,2.09v19.16c0,.69.16,1.43.53,2.07.4.67.94,1.18,1.56,1.51l16.55,9.58c.62.36,1.34.58,2.09.58h0Z"></path><path class="cls-3" d="M20.74,38.47c.49,0,.96-.13,1.36-.38l10.76-6.22c.4-.22.76-.56,1-.98s.36-.89.36-1.36v-2.63c-.02-.58-.51-1.05-1.09-1.05h-2.92c-.58,0-1.07.47-1.09,1.05v.33c0,.27-.07.53-.22.78-.27.49-.74.69-1.18.96l-6.13,3.54c-.25.13-.53.22-.85.22s-.6-.09-.85-.22l-6.71-3.88c-.25-.13-.47-.33-.62-.62-.16-.25-.22-.53-.22-.82v-7.75c0-.29.07-.58.22-.85.16-.27.38-.47.62-.6l6.73-3.88c.22-.16.51-.22.82-.22s.58.07.82.22l6.73,3.88c.25.13.47.33.6.6.25.42.22.69.22,1.14.02.58.51,1.05,1.09,1.05h2.92c.58,0,1.07-.47,1.09-1.05l-.02-2.96c-.02-.36-.13-.69-.33-1.02-.25-.42-.58-.76-.98-.98l-10.8-6.24c-.4-.22-.85-.36-1.34-.36s-.96.13-1.34.36l-10.8,6.24c-.4.22-.74.56-.98.98-.25.42-.36.89-.36,1.34v12.45c0,.47.11.94.36,1.36.25.42.6.76,1,.98l10.76,6.22c.4.25.87.38,1.36.38h0Z"></path><path class="cls-2" d="M34.22,24.39v2.94c0,.58-.49,1.07-1.09,1.07h-11.36c-.6,0-1.09-.49-1.09-1.07v-2.94c0-.58.49-1.07,1.09-1.07h11.36c.6,0,1.09.49,1.09,1.07h0Z"></path><g><path class="cls-4" d="M61.96,23.04c-.02-.27-.04-.49-.07-.65h-7.04v2.85h3.63c-.02.33-.09.63-.23.91-.18.33-.4.62-.69.87-.29.25-.62.42-1.02.58-.38.13-.8.2-1.25.2-.62,0-1.2-.11-1.76-.33-.56-.25-1.02-.56-1.43-.98-.4-.4-.71-.89-.94-1.45-.25-.56-.36-1.14-.36-1.78s.11-1.25.33-1.8c.2-.53.51-1.02.91-1.43.38-.4.85-.71,1.36-.96.51-.22,1.09-.33,1.72-.33.49,0,.96.07,1.38.2.42.13.82.31,1.2.56.38.22.76.51,1.11.85l2.21-2.34c-.42-.49-.94-.91-1.54-1.27-.58-.38-1.25-.67-1.98-.89-.74-.2-1.51-.31-2.36-.31-1.16,0-2.25.18-3.23.58-1,.38-1.85.91-2.58,1.63-.74.69-1.29,1.51-1.67,2.45-.4.94-.6,1.96-.6,3.07s.18,2.14.56,3.1c.38.94.91,1.76,1.6,2.47.71.69,1.54,1.23,2.52,1.63.96.38,2.05.58,3.25.58,1,0,1.92-.18,2.78-.51.85-.31,1.58-.78,2.23-1.36.62-.58,1.11-1.29,1.45-2.09.36-.8.53-1.69.53-2.65,0-.13,0-.33-.02-.58,0-.27,0-.53-.02-.8Z"></path><path class="cls-4" d="M74.61,24.91c.78-.45,1.38-1.02,1.83-1.78.45-.74.65-1.58.65-2.52s-.2-1.74-.65-2.47c-.45-.71-1.07-1.27-1.85-1.69-.76-.4-1.63-.62-2.58-.62h-6.75v14.99h3.48v-5.26h1.88l2.96,5.26h4.14l-3.35-5.79c.08-.04.17-.07.25-.12ZM68.73,18.87h2.63c.45,0,.85.07,1.16.22.33.16.58.38.74.69.18.29.27.62.27,1s-.07.74-.22,1.02c-.16.31-.36.53-.65.71-.27.16-.6.25-.98.25h-2.94v-3.9Z"></path><polygon class="cls-4" points="80.45 18.89 82.99 18.89 82.99 27.76 80.45 27.76 80.45 30.81 89.16 30.81 89.16 27.76 86.62 27.76 86.62 18.89 89.16 18.89 89.16 15.82 80.45 15.82 80.45 18.89"></polygon><path class="cls-4" d="M124.04,20.3c-.36-.91-.87-1.69-1.54-2.38-.67-.67-1.45-1.18-2.36-1.54-.91-.38-1.92-.56-3.01-.56h-6.28v14.99h6.28c1.09,0,2.09-.18,3.01-.56.91-.36,1.69-.87,2.36-1.54s1.18-1.45,1.54-2.36c.36-.94.53-1.94.53-3.03s-.18-2.12-.53-3.03ZM120.61,25.06c-.18.53-.45.98-.78,1.36-.33.38-.74.67-1.2.87s-1,.31-1.6.31h-2.54v-8.58h2.54c.6,0,1.14.11,1.6.31.47.22.87.51,1.2.87.33.38.6.82.78,1.36.2.51.29,1.11.29,1.76s-.09,1.23-.29,1.74Z"></path><path class="cls-4" d="M103.08,19.52c0,.6,0,1.14.02,1.65,0,.49.02.96.04,1.38,0,.42.04.85.07,1.27.04.4.09.82.13,1.25.01.11.03.23.04.34l-7.03-9.58h-3.25v14.99h3.54v-5.01c0-.36,0-.69-.02-.98,0-.29,0-.58-.02-.89-.02-.29-.04-.62-.07-1-.04-.36-.09-.78-.13-1.27,0-.06-.01-.14-.02-.21l6.95,9.37h3.3v-14.99h-3.54v3.7Z"></path></g><g><path class="cls-1" d="M159.53,15.82l-5.81,14.99h2.36l1.42-3.72h6.28l1.41,3.72h2.45l-5.75-14.99h-2.36ZM158.34,24.86l1.14-3.01c.09-.25.2-.53.31-.91.13-.36.27-.74.4-1.16.13-.42.27-.8.38-1.18.03-.07.04-.13.07-.2,0,.02.01.04.02.06.13.4.27.82.42,1.29s.29.89.42,1.29c.11.38.2.62.25.71l1.17,3.1h-4.59Z"></path><polygon class="cls-1" points="144.36 15.82 142.05 15.82 142.05 30.81 151.38 30.81 151.38 28.58 144.36 28.58 144.36 15.82"></polygon><path class="cls-1" d="M136.39,16.44c-.67-.42-1.4-.62-2.21-.62h-6.1v14.99h2.29v-5.75h3.81c.8,0,1.54-.2,2.21-.62.67-.42,1.2-.98,1.6-1.67.4-.71.58-1.49.58-2.34s-.18-1.65-.58-2.34c-.4-.69-.94-1.25-1.6-1.65ZM135.94,21.63c-.2.36-.45.67-.76.89-.31.2-.67.31-1.05.31h-3.77v-4.79h3.77c.38,0,.74.11,1.05.33.31.2.56.49.76.85.18.36.29.76.29,1.2s-.11.85-.29,1.2Z"></path><polygon class="cls-1" points="196.65 17.96 199.08 17.96 199.08 28.67 196.65 28.67 196.65 30.81 203.8 30.81 203.8 28.67 201.37 28.67 201.37 17.96 203.8 17.96 203.8 15.82 196.65 15.82 196.65 17.96"></polygon><path class="cls-1" d="M179.47,23.73c-.42-.36-.96-.67-1.56-.94-.62-.27-1.31-.49-2.12-.65-.56-.11-1.02-.25-1.43-.4-.4-.16-.71-.31-.96-.51-.22-.2-.4-.42-.51-.67s-.18-.51-.18-.82c0-.4.11-.78.36-1.07.22-.31.56-.56.98-.74.4-.16.89-.25,1.45-.25.49,0,.94.09,1.36.25.45.16.82.4,1.18.74.36.31.69.71.98,1.18l1.63-1.6c-.33-.58-.76-1.05-1.25-1.45-.51-.4-1.07-.69-1.72-.89-.65-.2-1.36-.29-2.12-.29s-1.4.09-2.03.31c-.65.2-1.18.49-1.65.87-.47.38-.82.82-1.09,1.34s-.4,1.07-.4,1.67.09,1.16.29,1.65c.18.51.47.94.85,1.34.38.38.87.69,1.45.96.56.25,1.23.47,2.01.62.49.09.91.18,1.29.31.36.11.69.25.96.4.29.16.51.33.69.51.18.2.31.4.4.62.09.25.13.47.13.74,0,.38-.13.74-.4,1.02-.25.31-.6.53-1.05.71-.45.18-.94.25-1.47.25-.89,0-1.65-.18-2.29-.58-.65-.38-1.31-1.07-2.01-2.07l-1.58,1.83c.42.65.94,1.18,1.49,1.6.58.45,1.2.78,1.89.98.69.22,1.45.33,2.25.33,1.14,0,2.12-.2,2.92-.58.82-.38,1.45-.91,1.89-1.6.42-.71.65-1.54.65-2.5,0-.51-.11-.98-.31-1.43-.22-.45-.56-.85-.98-1.2Z"></path><path class="cls-1" d="M216.68,27.94c-.4.25-.82.42-1.29.56-.45.13-.91.2-1.38.2-.78,0-1.49-.13-2.12-.38-.65-.25-1.18-.6-1.65-1.09-.45-.47-.8-1.02-1.05-1.69-.25-.67-.38-1.4-.38-2.21s.13-1.49.38-2.14c.27-.65.62-1.2,1.07-1.67.45-.49.98-.85,1.58-1.11.6-.27,1.27-.4,1.96-.4.45,0,.89.07,1.31.22.45.13.87.36,1.29.62.42.29.82.62,1.25,1.05l1.54-1.6c-.36-.51-.82-.96-1.38-1.34-.56-.4-1.18-.71-1.87-.94-.69-.22-1.4-.33-2.14-.33-1.02,0-1.98.2-2.87.58-.89.4-1.65.94-2.34,1.63-.67.71-1.18,1.51-1.56,2.45-.38.91-.58,1.92-.58,2.99s.18,2.16.53,3.1c.36.94.85,1.76,1.49,2.45.65.69,1.38,1.23,2.27,1.6.87.36,1.83.56,2.85.56.71,0,1.4-.09,2.09-.27.69-.18,1.31-.42,1.89-.76.56-.31,1-.65,1.34-1.05l-1.16-1.87c-.33.31-.69.6-1.09.85Z"></path><polygon class="cls-1" points="183.1 18.05 187.31 18.05 187.31 30.81 189.63 30.81 189.63 18.05 193.95 18.05 193.95 15.82 183.1 15.82 183.1 18.05"></polygon></g></g></g></svg> 