<?xml version="1.0" encoding="UTF-8"?>
<svg xmlns="http://www.w3.org/2000/svg" id="Layer_1" viewBox="0 0 302.67 89.91">
  <defs>
    <style>
      .cls-1, .cls-2 {
        fill-rule: evenodd;
      }

      .cls-1, .cls-3 {
        fill: #3d5a40;
      }

      .cls-2 {
        fill: #ffb726;
      }
    </style>
  </defs>
  <polygon class="cls-2" points="285.02 31.45 285.19 31.45 277.56 37.43 267.3 37.43 269.79 31.45 285.02 31.45"></polygon>
  <g>
    <path class="cls-1" d="M58.07,19.43l-4.96,12.02h-5.75l4.99-12.02h-12.02l-4.96,12.02h-10.2l-7.68,5.98h15.39l-4.96,12.02h11.99l4.96-12.02h5.75l-4.96,12.02h11.99c4.14-10.01,8.28-20.01,12.44-30.02h-12.02Z"></path>
    <path class="cls-1" d="M88.52,49.45h11.99c-4.14-10.01-8.28-20.01-12.42-30.02h-12.02c-4.14,10.01-8.28,20.01-12.42,30.02h11.99c2.15-5.19,4.28-10.35,6.43-15.53,2.15,5.19,4.28,10.35,6.43,15.53Z"></path>
    <path class="cls-1" d="M126.9,43.44h-11.99v-24.01h-11.99v30.02h23.98v-6.01Z"></path>
    <path class="cls-1" d="M153.94,49.45c4.96-.03,8.96-4.93,8.96-9.01s-1.64-5.98-4.14-7.57c3.32-5.9-1.9-13.44-7.85-13.44h-21v30.02c8.02,0,16.04.03,24.04,0ZM141.89,25.44h4.51c1.81,0,3.29,1.47,3.29,3.32s-1.47,3.29-3.29,3.29h-4.51v-6.6ZM141.89,36.83h6.66c1.79.03,3.26,1.5,3.26,3.32s-1.47,3.29-3.32,3.29h-6.6v-6.6Z"></path>
    <path class="cls-1" d="M261.29,37.43h-5.95c4.96,0,8.96-4.03,8.96-8.99s-4.03-9.01-8.99-9.01h-21v30.02h11.99v-12.02h3l4.96,12.02h12.02l-4.99-12.02ZM250.77,32.04h-4.48v-6.6h4.51c1.81,0,3.29,1.47,3.29,3.32s-1.47,3.29-3.32,3.29Z"></path>
    <path class="cls-1" d="M108.67,63.79c-.43-.14-.91-.28-1.45-.37-.4-.09-.77-.17-1.05-.28-.28-.11-.51-.26-.65-.43-.14-.17-.2-.37-.2-.57,0-.34.11-.6.4-.79.26-.23.62-.31,1.13-.31s.91.11,1.22.34c.28.23.45.54.51.96h1.33c-.11-.79-.43-1.42-.96-1.81-.51-.43-1.22-.62-2.1-.62-.57,0-1.08.09-1.53.28-.43.23-.77.48-1.02.85-.23.37-.34.77-.34,1.22,0,.37.06.71.23.96.14.26.37.45.62.62.28.2.57.34.91.43.34.11.71.2,1.05.26.43.09.79.17,1.08.28.31.09.54.23.68.4.17.17.26.43.26.77,0,.23-.09.43-.2.62-.11.17-.31.34-.54.45-.26.11-.57.17-.94.17-.43,0-.79-.09-1.08-.23-.28-.14-.54-.34-.71-.57-.17-.23-.28-.48-.34-.77h-1.36c.06.54.23,1.02.54,1.42.28.4.68.71,1.19.94.51.23,1.08.34,1.73.34s1.16-.11,1.62-.31c.48-.23.82-.51,1.08-.88.26-.37.37-.82.37-1.3,0-.6-.14-1.02-.4-1.33-.28-.34-.62-.57-1.08-.74Z"></path>
    <path class="cls-1" d="M101.42,64.38c0,.62-.09,1.13-.31,1.53-.2.43-.48.74-.85.96-.37.2-.77.31-1.22.31-.62,0-1.13-.2-1.47-.6-.37-.43-.54-1.02-.54-1.81v-4.71h-1.33v4.85c0,.77.11,1.42.37,1.93.26.51.62.88,1.08,1.13.45.23.99.37,1.62.37s1.16-.14,1.64-.43c.48-.28.82-.68,1.08-1.19l.09,1.42h1.22v-8.08h-1.36v4.31Z"></path>
    <path class="cls-1" d="M112.98,58.15h-1.19l-.17,1.93h-1.39v1.16h1.39v4.48c0,.62.11,1.11.28,1.45.2.37.45.62.82.77.34.14.77.23,1.25.23h1.25v-1.16h-.88c-.51,0-.85-.09-1.08-.26-.2-.17-.28-.51-.28-1.02v-4.48h2.32v-1.16h-2.32v-1.93Z"></path>
    <polygon class="cls-1" points="190.93 59.4 194.22 57.55 194.02 56.39 190.79 58.43 190.93 59.4"></polygon>
    <rect class="cls-3" x="75.76" y="56.96" width="1.36" height="11.2"></rect>
    <polygon class="cls-1" points="97.62 59.4 100.88 57.55 100.68 56.39 97.48 58.43 97.62 59.4"></polygon>
    <path class="cls-1" d="M118.14,60.7c-.28.26-.51.57-.71.94l-.09-1.56h-1.22v8.08h1.33v-4.17c0-.51.09-.94.2-1.28.14-.34.34-.62.57-.82.26-.2.51-.37.82-.45.31-.09.65-.14.99-.14h.48v-1.39c-.51,0-.96.06-1.36.2-.4.14-.74.34-1.02.6Z"></path>
    <path class="cls-1" d="M84.12,60.27c-.45-.26-.99-.37-1.64-.37-.6,0-1.13.14-1.62.43s-.82.65-1.08,1.16l-.09-1.42h-1.22v8.08h1.36v-4.31c0-.6.09-1.11.31-1.53.2-.4.48-.71.82-.94.37-.23.77-.34,1.22-.34.65,0,1.13.23,1.5.62s.54,1.02.54,1.81v4.68h1.33v-4.82c0-.77-.11-1.42-.37-1.93s-.62-.88-1.08-1.13Z"></path>
    <path class="cls-1" d="M93.19,61.41c-.28-.48-.65-.85-1.16-1.11-.48-.28-1.05-.4-1.7-.4-.79,0-1.5.17-2.07.54-.6.37-1.05.85-1.39,1.5-.31.62-.48,1.36-.48,2.15s.17,1.53.48,2.18c.34.65.79,1.13,1.39,1.5.57.37,1.28.57,2.04.57.48,0,.94-.09,1.28-.23.37-.14.71-.34.96-.57.26-.23.48-.45.65-.74l.14,1.33h1.22v-11.51h-1.36v4.76ZM92.8,65.72c-.23.45-.54.82-.94,1.08-.4.26-.88.4-1.42.4-.51,0-.96-.14-1.39-.4-.4-.26-.71-.62-.94-1.08-.23-.45-.34-.96-.34-1.59s.11-1.16.34-1.62c.23-.45.54-.82.94-1.08.43-.26.88-.37,1.39-.37.54,0,1.02.11,1.42.37.4.26.71.62.94,1.08.23.45.37.99.37,1.62s-.14,1.13-.37,1.59Z"></path>
    <path class="cls-1" d="M166.47,60.27c-.45-.26-1.02-.37-1.64-.37-.54,0-1.05.14-1.53.4-.51.28-.88.65-1.16,1.13-.14-.34-.37-.62-.62-.85-.26-.23-.57-.4-.88-.51-.34-.11-.74-.17-1.13-.17-.51,0-.99.11-1.42.34-.43.26-.79.57-1.05.99l-.06-1.16h-1.22v8.08h1.33v-4.28c0-.62.09-1.13.28-1.53.2-.43.45-.74.79-.96.34-.23.71-.34,1.11-.34.6,0,1.05.23,1.39.62s.48,1.02.48,1.81v4.68h1.36v-4.28c0-.62.09-1.13.28-1.53.2-.43.45-.74.79-.96.31-.23.71-.34,1.11-.34.62,0,1.08.23,1.42.62s.48,1.02.48,1.81v4.68h1.33v-4.82c0-.77-.11-1.42-.37-1.93s-.62-.88-1.08-1.13Z"></path>
    <path class="cls-1" d="M206.01,58.15h-1.16l-.2,1.93h-1.39v1.16h1.39v4.48c0,.62.11,1.11.28,1.45.2.37.45.62.82.77.34.14.77.23,1.25.23h1.25v-1.16h-.88c-.51,0-.85-.09-1.08-.26-.2-.17-.28-.51-.28-1.02v-4.48h2.32v-1.16h-2.32v-1.93Z"></path>
    <rect class="cls-3" x="209.3" y="60.08" width="1.33" height="8.08"></rect>
    <path class="cls-1" d="M201.7,63.79c-.43-.14-.91-.28-1.45-.37-.4-.09-.77-.17-1.05-.28-.28-.11-.48-.26-.65-.43-.14-.17-.2-.37-.2-.57,0-.34.11-.6.4-.79.26-.23.62-.31,1.13-.31s.91.11,1.22.34c.28.23.45.54.51.96h1.33c-.11-.79-.43-1.42-.94-1.81-.54-.43-1.25-.62-2.1-.62-.6,0-1.11.09-1.56.28-.43.23-.77.48-.99.85-.26.37-.37.77-.37,1.22,0,.37.09.71.23.96.17.26.37.45.62.62.28.2.57.34.94.43.34.11.68.2,1.02.26.43.09.79.17,1.11.28.28.09.51.23.68.4.14.17.23.43.23.77,0,.23-.06.43-.2.62-.11.17-.31.34-.54.45-.26.11-.57.17-.94.17-.43,0-.79-.09-1.08-.23-.28-.14-.54-.34-.71-.57-.17-.23-.28-.48-.31-.77h-1.39c.06.54.26,1.02.54,1.42s.68.71,1.19.94,1.08.34,1.73.34,1.16-.11,1.64-.31c.45-.23.79-.51,1.05-.88.26-.37.37-.82.37-1.3,0-.6-.11-1.02-.4-1.33-.28-.34-.62-.57-1.08-.74Z"></path>
    <path class="cls-1" d="M194.48,60.3c-.51-.26-1.13-.4-1.87-.4-.54,0-1.08.09-1.56.31-.51.2-.91.51-1.25.88-.31.4-.51.88-.6,1.45h1.39c.09-.48.31-.88.68-1.13.37-.26.82-.37,1.33-.37.45,0,.79.09,1.11.26.28.17.51.43.65.77.17.31.26.74.26,1.25h-2.13c-.71,0-1.33.09-1.84.28s-.91.51-1.19.88c-.28.37-.43.82-.43,1.39,0,.43.09.85.31,1.22.2.4.54.71.96.94.45.23.99.34,1.64.34.37,0,.68-.06.96-.14.31-.09.54-.2.77-.34.23-.14.43-.31.6-.51.14-.2.28-.4.4-.62l.09,1.42h1.19v-4.99c0-.65-.11-1.25-.37-1.73-.26-.48-.62-.85-1.11-1.13ZM194.62,64.38c0,.37-.06.71-.17,1.05-.11.34-.28.62-.51.91-.2.26-.45.48-.77.62-.31.17-.65.26-1.02.26s-.68-.06-.94-.2c-.26-.11-.45-.28-.6-.48-.11-.23-.2-.45-.2-.77,0-.26.09-.51.23-.74s.37-.4.68-.51c.31-.11.74-.17,1.28-.17h2.01v.03Z"></path>
    <rect class="cls-3" x="186.71" y="56.65" width="1.33" height="11.51"></rect>
    <path class="cls-1" d="M225.43,60.3c-.51-.26-1.13-.4-1.87-.4-.54,0-1.08.09-1.59.31-.48.2-.91.51-1.22.88-.34.4-.54.88-.6,1.45h1.39c.09-.48.31-.88.68-1.13.37-.26.82-.37,1.33-.37.43,0,.79.09,1.08.26.31.17.54.43.68.77.17.31.23.74.23,1.25h-2.13c-.71,0-1.3.09-1.81.28-.54.2-.94.51-1.22.88-.28.37-.43.82-.43,1.39,0,.43.11.85.34,1.22.2.4.54.71.96.94.43.23.99.34,1.64.34.34,0,.68-.06.96-.14s.54-.2.77-.34c.23-.14.4-.31.57-.51.17-.2.31-.4.43-.62l.06,1.42h1.22v-4.99c0-.65-.14-1.25-.37-1.73-.26-.48-.62-.85-1.11-1.13ZM225.54,64.38c0,.37-.06.71-.17,1.05-.11.34-.26.62-.48.91-.2.26-.45.48-.77.62-.31.17-.65.26-1.02.26s-.68-.06-.94-.2c-.26-.11-.45-.28-.6-.48-.14-.23-.2-.45-.2-.77,0-.26.06-.51.2-.74s.37-.4.71-.51c.31-.11.74-.17,1.25-.17h2.01v.03Z"></path>
    <path class="cls-1" d="M214.4,61.38c.4-.23.82-.34,1.28-.34.57,0,1.05.14,1.47.43.43.28.68.68.79,1.16h1.36c-.17-.82-.57-1.5-1.22-1.98-.62-.51-1.45-.74-2.38-.74-.77,0-1.45.17-2.04.54-.62.34-1.08.85-1.42,1.47-.34.62-.51,1.36-.51,2.21s.17,1.59.51,2.21c.34.62.79,1.13,1.42,1.47.6.37,1.28.54,2.04.54.94,0,1.73-.26,2.38-.77.65-.51,1.05-1.16,1.22-1.98h-1.36c-.09.34-.23.62-.45.88-.2.23-.45.43-.77.54s-.68.2-1.05.2c-.34,0-.68-.09-.99-.2-.31-.14-.6-.34-.82-.6-.23-.26-.43-.57-.57-.96-.11-.4-.2-.85-.2-1.33,0-.68.11-1.25.37-1.7.23-.45.54-.79.94-1.05Z"></path>
    <path class="cls-1" d="M209.95,56.56c-.26,0-.48.09-.65.23-.17.17-.26.4-.26.65,0,.28.09.51.26.68.17.17.4.26.65.26s.48-.09.65-.26c.2-.17.28-.4.28-.68,0-.26-.09-.48-.28-.65-.17-.14-.4-.23-.65-.23Z"></path>
    <path class="cls-1" d="M148.22,60.42c-.57-.34-1.25-.51-2.04-.51s-1.45.17-2.01.51c-.6.37-1.08.85-1.39,1.47-.31.62-.48,1.39-.48,2.24s.17,1.59.48,2.21c.34.62.79,1.13,1.39,1.47.57.37,1.25.54,1.98.54.65,0,1.19-.11,1.67-.34s.88-.54,1.19-.91c.31-.37.54-.82.68-1.3h-1.33c-.17.43-.43.79-.79,1.02-.37.26-.85.4-1.42.4-.43,0-.85-.11-1.25-.34-.4-.23-.71-.57-.94-1.02-.23-.4-.33-.89-.35-1.45h6.27c.03-.14.03-.28.03-.4v-.34c0-.68-.14-1.3-.45-1.87-.28-.57-.71-1.02-1.25-1.39ZM143.63,63.39c.04-.43.13-.83.3-1.13.26-.4.57-.71.96-.91.4-.23.82-.31,1.25-.31.68,0,1.25.2,1.7.62.45.4.71.99.74,1.73h-4.95Z"></path>
    <polygon class="cls-1" points="143.42 56.96 135.37 56.96 135.37 58.06 138.72 58.06 138.72 68.15 140.08 68.15 140.08 58.06 143.42 58.06 143.42 56.96"></polygon>
    <path class="cls-1" d="M129.14,60.3c-.48-.26-1.11-.4-1.84-.4-.57,0-1.08.09-1.59.31-.48.2-.91.51-1.22.88-.34.4-.54.88-.6,1.45h1.39c.09-.48.31-.88.68-1.13.37-.26.82-.37,1.33-.37.43,0,.79.09,1.08.26.31.17.54.43.68.77.14.31.23.74.23,1.25h-2.13c-.71,0-1.3.09-1.84.28-.51.2-.91.51-1.19.88-.28.37-.43.82-.43,1.39,0,.43.11.85.31,1.22.23.4.54.71.99.94.43.23.99.34,1.62.34.37,0,.71-.06.99-.14.28-.09.54-.2.77-.34.2-.14.4-.31.57-.51.17-.2.31-.4.4-.62l.09,1.42h1.22v-4.99c0-.65-.14-1.25-.37-1.73-.26-.48-.62-.85-1.13-1.13ZM129.28,64.38c0,.37-.06.71-.17,1.05s-.26.62-.48.91c-.2.26-.48.48-.77.62-.31.17-.65.26-1.02.26s-.68-.06-.94-.2c-.26-.11-.45-.28-.6-.48-.14-.23-.2-.45-.2-.77,0-.26.06-.51.2-.74s.37-.4.68-.51c.34-.11.77-.17,1.28-.17h2.01v.03Z"></path>
    <path class="cls-1" d="M121.91,56.56c-.28,0-.48.09-.68.23-.17.17-.26.4-.26.65,0,.28.09.51.26.68.2.17.4.26.68.26.26,0,.48-.09.65-.26.17-.17.28-.4.28-.68,0-.26-.11-.48-.28-.65-.17-.14-.4-.23-.65-.23Z"></path>
    <path class="cls-1" d="M183.9,60.44c-.6-.37-1.28-.54-2.04-.54-.51,0-.94.06-1.3.2-.37.14-.71.34-.96.57s-.48.48-.65.74l-.11-1.33h-1.22v11.59h1.33v-4.85c.28.48.65.85,1.16,1.13.51.26,1.08.4,1.73.4.77,0,1.47-.2,2.04-.54.6-.37,1.05-.88,1.36-1.5.34-.65.51-1.36.51-2.18s-.17-1.53-.51-2.15c-.31-.65-.77-1.13-1.33-1.53ZM184.05,65.72c-.26.45-.57.82-.96,1.08-.43.26-.88.4-1.42.4-.51,0-.99-.14-1.39-.4-.43-.26-.74-.62-.96-1.08-.23-.45-.31-.96-.31-1.59s.09-1.16.31-1.62c.23-.45.54-.82.96-1.08.4-.26.88-.37,1.39-.37.54,0,.99.11,1.42.37.4.26.71.62.96,1.08.23.45.34.99.34,1.62s-.11,1.13-.34,1.59Z"></path>
    <path class="cls-1" d="M174.75,60.42c-.6-.34-1.28-.51-2.04-.51s-1.45.17-2.04.51-1.08.85-1.42,1.47c-.34.62-.51,1.39-.51,2.24s.17,1.59.51,2.21c.34.65.79,1.13,1.39,1.47.6.37,1.28.54,2.01.54.79,0,1.47-.17,2.07-.54.6-.34,1.08-.82,1.42-1.47.34-.62.54-1.36.54-2.21s-.2-1.62-.54-2.24c-.34-.62-.82-1.13-1.39-1.47ZM174.92,65.83c-.26.45-.57.79-.96,1.02-.4.23-.82.34-1.28.34s-.88-.11-1.28-.34c-.4-.23-.71-.57-.94-1.02-.26-.48-.37-1.05-.37-1.7s.11-1.25.37-1.7c.23-.45.57-.79.96-1.05.4-.23.82-.34,1.28-.34s.88.11,1.28.34c.4.26.71.6.94,1.05.26.45.37,1.02.37,1.7s-.11,1.22-.37,1.7Z"></path>
    <rect class="cls-3" x="121.23" y="60.08" width="1.36" height="8.08"></rect>
    <path class="cls-1" d="M152.78,60.7c-.28.26-.51.57-.71.94l-.09-1.56h-1.22v8.08h1.33v-4.17c0-.51.09-.94.23-1.28.11-.34.31-.62.54-.82.26-.2.51-.37.82-.45.31-.09.65-.14.99-.14h.48v-1.39c-.51,0-.96.06-1.36.2-.4.14-.74.34-1.02.6Z"></path>
    <path class="cls-1" d="M180.9,50.64c8.96,0,16.21-7.26,16.21-16.19s-7.26-16.21-16.21-16.21-16.19,7.26-16.19,16.21,7.26,16.19,16.19,16.19ZM180.9,28.13c3.49,0,6.29,2.83,6.29,6.32s-2.81,6.29-6.29,6.29-6.29-2.83-6.29-6.29,2.81-6.32,6.29-6.32Z"></path>
    <path class="cls-1" d="M215.71,18.24c-8.96,0-16.21,7.26-16.21,16.21s7.26,16.19,16.21,16.19,16.19-7.26,16.19-16.19-7.26-16.21-16.19-16.21ZM215.71,40.74c-3.49,0-6.32-2.83-6.32-6.29s2.83-6.32,6.32-6.32,6.29,2.83,6.29,6.32-2.83,6.29-6.29,6.29Z"></path>
  </g>
</svg>
