<svg xmlns="http://www.w3.org/2000/svg" id="Layer_2" data-name="Layer 2" viewBox="0 0 204 34.59"><defs><style>      .cls-1 {        fill: #1d4486;      }      .cls-1, .cls-2 {        fill-rule: evenodd;      }      .cls-2 {        fill: #e87524;      }    </style></defs><g id="Camada_1" data-name="Camada 1"><g><path class="cls-1" d="M52.13,34.59c-1.91,0-3.63-.34-5.17-1.02-1.54-.68-2.76-1.66-3.66-2.95-.9-1.28-1.35-2.86-1.35-4.73s.45-3.82,1.35-5.07c.9-1.25,2.14-2.19,3.72-2.84,1.58-.64,3.38-.96,5.39-.96h7.87v-1.21c0-1.43-.44-2.6-1.32-3.5-.88-.9-2.26-1.35-4.13-1.35s-3.22.43-4.16,1.29c-.94.86-1.55,1.97-1.84,3.33l-5.83-1.93c.44-1.43,1.15-2.73,2.12-3.91.97-1.17,2.27-2.12,3.88-2.83,1.61-.72,3.6-1.07,5.94-1.07,3.56,0,6.36.89,8.39,2.67,2.04,1.78,3.05,4.36,3.05,7.73v9.76c0,1.1.51,1.65,1.54,1.65h2.31v6.15h-4.46c-1.32,0-2.4-.33-3.25-.99-.84-.66-1.27-1.56-1.27-2.7v-.11h-.94c-.22.51-.61,1.14-1.16,1.87-.55.73-1.38,1.37-2.5,1.9-1.12.53-2.63.8-4.54.8h0ZM4.27,0C1.93-.03,0,1.92,0,4.26c0,10.64,0,19.12,0,29.76h6.42l-.06-18.58c-.02-5.07,2.74-4.83,3.18-6.14.06-.17.07-.79.07-.79h-.46v-2.13h3.01v2.13h-.45s.02.61.07.79c.44,1.31,3.18,1.07,3.18,6.14,0,.68-.03,15.66-.06,18.58h6.38c-.03-2.91-.06-17.9-.06-18.58,0-5.07,2.74-4.83,3.18-6.14.06-.17.07-.79.07-.79h-.45v-2.13h3.01v2.13h-.46s.01.61.07.79c.44,1.31,3.19,1.07,3.18,6.14l-.06,18.58h6.42c0-10.64,0-19.12,0-29.76C36.18,1.92,34.26-.03,31.91,0H4.27ZM112.8,33.82c-3.53,0-6.38-2.62-6.38-6.15v-14.9h-6.39v-6.38h6.39V0h6.33v6.39h6.44v6.38h-6.44v13.25c0,1.1.51,1.65,1.54,1.65h4.9v6.15h-6.38ZM86.62,34.59c-3.52,0-6.42-.77-8.7-2.31-2.28-1.54-3.65-3.8-4.13-6.77l5.84-1.49c.26,1.39.72,2.5,1.38,3.3.66.81,1.48,1.38,2.45,1.71.97.33,2.03.5,3.17.5,1.72,0,3.02-.31,3.88-.94.86-.62,1.29-1.41,1.29-2.37s-.41-1.72-1.24-2.2c-.83-.48-2.08-.88-3.77-1.21l-1.71-.28c-1.87-.37-3.58-.87-5.12-1.51-1.54-.64-2.78-1.52-3.72-2.64-.94-1.12-1.4-2.54-1.4-4.27,0-2.64.98-4.68,2.94-6.11,1.96-1.43,4.54-2.15,7.73-2.15s5.56.68,7.54,2.04c1.98,1.36,3.27,3.17,3.85,5.45l-5.83,1.76c-.29-1.54-.94-2.63-1.93-3.28-.99-.64-2.2-.96-3.63-.96s-2.6.26-3.39.77c-.79.51-1.18,1.25-1.18,2.2s.4,1.67,1.21,2.15c.81.48,1.89.83,3.25,1.05l1.71.33c2.02.37,3.84.84,5.48,1.43,1.63.59,2.93,1.43,3.88,2.53.95,1.1,1.43,2.59,1.43,4.46,0,2.83-1.02,5-3.05,6.52-2.04,1.52-4.78,2.28-8.23,2.28h0ZM125.56,34.05V6.38h6.38v3.38h.94c.4-1.14,1.03-1.96,1.98-2.48.95-.51,2.09-.77,3.41-.77h2.18v6.26h-2.46c-3.37.15-6.05,2.98-6.05,6.38v14.9h-6.38ZM154.28,34.59c-1.91,0-3.63-.34-5.17-1.02-1.54-.68-2.76-1.66-3.66-2.95-.9-1.28-1.35-2.86-1.35-4.73s.45-3.82,1.35-5.07c.9-1.25,2.14-2.19,3.72-2.84,1.58-.64,3.38-.96,5.39-.96h7.87v-1.21c0-1.43-.44-2.6-1.32-3.5-.88-.9-2.26-1.35-4.13-1.35s-3.22.43-4.16,1.29c-.94.86-1.55,1.97-1.84,3.33l-5.83-1.93c.44-1.43,1.15-2.73,2.12-3.91.97-1.17,2.27-2.12,3.88-2.83,1.61-.72,3.6-1.07,5.95-1.07,3.56,0,6.36.89,8.39,2.67,2.04,1.78,3.06,4.36,3.06,7.73v9.76c0,1.1.51,1.65,1.54,1.65h2.31v6.15h-4.46c-1.32,0-2.4-.33-3.25-.99-.84-.66-1.27-1.56-1.27-2.7v-.11h-.94c-.22.51-.61,1.14-1.16,1.87-.55.73-1.38,1.37-2.5,1.9-1.12.53-2.63.8-4.54.8h0ZM155.32,29.41c2.09,0,3.8-.6,5.12-1.79,1.32-1.19,1.98-2.8,1.98-4.82v-.55h-7.49c-1.36,0-2.46.29-3.3.88-.84.59-1.27,1.45-1.27,2.59s.44,1.99,1.32,2.67c.88.68,2.09,1.02,3.63,1.02h0ZM53.17,29.41c2.09,0,3.8-.6,5.12-1.79,1.32-1.19,1.98-2.8,1.98-4.82v-.55h-7.49c-1.36,0-2.46.29-3.3.88-.84.59-1.27,1.45-1.27,2.59s.44,1.99,1.32,2.67c.88.68,2.09,1.02,3.63,1.02Z"></path><path class="cls-2" d="M176.64,17.03V6.39h4.38c.67,0,1.26.13,1.77.4.51.27.91.65,1.2,1.13.29.49.43,1.06.43,1.73v.21c0,.66-.15,1.23-.45,1.73-.3.49-.7.87-1.22,1.14-.51.27-1.09.4-1.74.4h-2.37v3.89h-2.01ZM178.64,11.31h2.17c.48,0,.86-.13,1.16-.4.29-.26.44-.62.44-1.08v-.15c0-.46-.15-.82-.44-1.08-.29-.26-.68-.4-1.16-.4h-2.17v3.1h0ZM187.18,17.03V6.39h6.48v1.82h-4.48v2.54h3.78v1.82h-3.78v2.63h4.48v1.82h-6.48ZM198.89,17.03v-8.82h-3.1v-1.82h8.21v1.82h-3.1v8.82h-2.01Z"></path></g></g></svg>