<svg xmlns="http://www.w3.org/2000/svg" id="Camada_1" viewBox="0 0 310.4 77.3"><defs><style>      .st0 {        fill: #5a5a5a;      }      .st1 {        fill: #3faf5d;      }    </style></defs><g><path class="st1" d="M70.9,57.9c-2.3-7-4.5-13.9-6.7-20.9-1.7-5.2-9.9-5.2-11.6,0l-1,3.1c1.9,6,3.8,11.9,5.8,17.8.8,2.4,3.4,4,6.3,4h10.7c0,0-2.3-.2-3.5-4Z"></path><path class="st1" d="M32,57.9l-6.3-19.6,7.6-23.6h-8.6c-2.9,0-5.6,1.6-6.3,4.1l-5.8,18.1c-.2.5-.2,1-.2,1.5s0,1,.2,1.5l5.8,18.1c.8,2.4,3.5,4,6.3,4h10.7c.2,0-2.2-.2-3.5-4h.1Z"></path><polygon class="st1" points="221.2 36.3 227.9 36.3 227.9 34.2 223.6 34.2 223.6 32.5 227.7 32.5 227.7 30.4 223.6 30.4 223.6 28.6 227.9 28.6 227.9 26.5 221.2 26.5 221.2 36.3"></polygon><path class="st1" d="M239.8,28.9c-2.2,0-3.9,1.6-3.9,3.8s1.7,3.8,3.9,3.8,3.9-1.6,3.9-3.8-1.7-3.8-3.9-3.8ZM239.8,34.4c-.9,0-1.6-.7-1.6-1.7s.7-1.7,1.6-1.7,1.6.7,1.6,1.7-.7,1.7-1.6,1.7Z"></path><path class="st1" d="M232.3,30.9c.6,0,1.2.3,1.5,1l2-.7c-.7-1.5-2-2.3-3.5-2.3-2.2,0-3.9,1.6-3.9,3.8s1.7,3.8,3.9,3.8,2.9-.8,3.5-2.3l-2-.7c-.3.7-.9,1-1.5,1-.9,0-1.6-.7-1.6-1.7s.7-1.7,1.6-1.7v-.2Z"></path></g><g><path class="st0" d="M87.1,14.7c-.6,0-1.1.2-1.5.6-.4.4-.6.9-.6,1.5s.2,1.1.6,1.5.9.6,1.5.6,1.1-.2,1.5-.6.6-.9.6-1.5-.2-1.1-.6-1.5-.9-.6-1.5-.6ZM88.3,18c-.3.3-.7.5-1.2.5s-.9-.2-1.2-.5c-.3-.3-.5-.7-.5-1.2s.2-.9.5-1.2.7-.5,1.2-.5.9.2,1.2.5c.3.3.5.7.5,1.2s-.2.9-.5,1.2Z"></path><path class="st0" d="M88.1,16.3c0-.4-.3-.7-.8-.7h-1v2.3h.5v-.8h.3l.5.8h.6l-.6-.9c.3,0,.5-.4.5-.7ZM87.3,16.6h-.5v-.7h.5c.2,0,.3,0,.3.3s0,.3-.3.3h0Z"></path><path class="st0" d="M192.6,26.7c-10.4,0-18.3,7.8-18.3,18s8.1,18,18.7,18,13.1-3.7,16.2-8.9l-8.7-4c-1.5,2.5-4.2,3.9-7.3,3.9s-6.6-2-7.9-5h25.1c2.3-11.7-5.9-21.9-17.9-21.9h0ZM185.5,40.5c1.2-2.9,3.9-4.8,7.1-4.8s5.9,1.8,7.1,4.8h-14.2Z"></path><path class="st0" d="M138.3,35c2.2.2,4.4,1.2,4.7,4.1l10.6-2.3c-1-6.1-6.8-10.1-15.3-10.1s-14.7,4.9-14.7,11.3c0,14,19.6,8.2,19.6,13.6s-9.7,5.6-10-1.3l-10.6,2.3c1,6.2,6.8,10.1,15.7,10.1s15.6-4.9,15.6-11.3c0-14-19.6-8.2-19.6-13.9,0,0-.5-3,4-2.5Z"></path><path class="st0" d="M166.3,48.6v-12h8.3v-9.3h-8.3v-12.7l-4.1,1.3c-4,1.2-6.6,4.8-6.6,9v23.1c0,9.3,4.6,14,14.7,14h4.3v-9.3h-4.3c-2.7,0-4-1.3-4-4h0Z"></path><path class="st0" d="M105.9,26.7c-9.4,0-15,5.1-15.6,10.7l10.6,2.3c.3-2.5,2-4.4,5.2-4.4s4.6,1.3,4.6,3.1-.9,2.1-2.8,2.3l-4.7.4c-6.4.6-13.9,3.1-13.9,11.5s4.9,10.1,10.1,10.1,9.6-2.9,11.3-8.8v8.1h10.7v-21.2c0-9.7-6.6-14.1-15.4-14.1h0ZM110.6,47.9c0,3.3-3.5,6.4-7.3,6.4s-3.5-1.1-3.5-2.7,1-2.5,3.1-2.8l5.1-.6c1.2,0,1.9-.3,2.5-.5v.2h.1Z"></path><path class="st0" d="M83.1,18.7c-.8-2.4-3.4-4.1-6.3-4.1h-8.6l7.6,23.6-5,15.5,1.3,4.1c1.6,5.1,9.3,5.1,10.9,0l5.8-18.1c.2-.5.3-1,.2-1.5,0-.5,0-1-.2-1.5l-5.8-18.1h0Z"></path><path class="st0" d="M37.6,37l-5.6,17.2,1.2,3.7c1.7,5.1,9.5,5.1,11.2,0,2.2-7,4.5-13.9,6.7-20.9,1.2-3.8,3.6-4.1,3.5-4.1h-10.6c-2.9,0-5.7,1.6-6.5,4.1h0Z"></path><path class="st0" d="M246.7,42.1v4.2c0,1.9,1.4,3.2,3.5,3.2s3.5-1.3,3.5-3.2v-4.2h-2.2v4.2c0,.7-.5,1.2-1.3,1.2s-1.2-.5-1.2-1.2v-4.2h-2.3Z"></path><rect class="st0" x="254.5" y="39" width="2.2" height="10.3"></rect><path class="st0" d="M256.1,36.4c2.2,0,3.9-1.6,3.9-3.8s-1.7-3.8-3.9-3.8-3.9,1.6-3.9,3.8,1.7,3.8,3.9,3.8ZM256.1,30.9c.9,0,1.6.7,1.6,1.7s-.7,1.7-1.6,1.7-1.6-.7-1.6-1.7.7-1.7,1.6-1.7Z"></path><rect class="st0" x="231.3" y="42.1" width="2.2" height="7.3"></rect><path class="st0" d="M226.4,57.1c-.4-1.3-1.3-2.2-2.5-2.2-1.7,0-3,1.6-3,3.8s1.3,3.8,3,3.8,2.1-.9,2.5-2.2v2h2.2v-10.3h-2.2v5.1ZM224.7,60.5c-.9,0-1.5-.7-1.5-1.7s.7-1.7,1.5-1.7,1.7.7,1.7,1.7-.7,1.7-1.7,1.7Z"></path><path class="st0" d="M232.4,41.4c.7,0,1.3-.6,1.3-1.3s-.6-1.3-1.3-1.3-1.3.6-1.3,1.3.6,1.3,1.3,1.3Z"></path><rect class="st0" x="272.6" y="29" width="2.2" height="7.3"></rect><path class="st0" d="M262.8,32.3c0-.8.5-1.4,1.2-1.4s1,.6,1,1.4v4h2.2v-4c0-.8.5-1.4,1.2-1.4s1,.6,1,1.4v4h2.2v-4.5c0-1.7-.9-2.9-2.4-2.9s-1.9.7-2.2,1.9c-.3-1.1-1.1-1.9-2.2-1.9s-1.8.7-2.2,1.9v-1.7h-2.2v7.3h2.2v-4h.2Z"></path><path class="st0" d="M273.7,28.4c.7,0,1.3-.6,1.3-1.3s-.6-1.3-1.3-1.3-1.3.6-1.3,1.3.6,1.3,1.3,1.3Z"></path><path class="st0" d="M263.9,49.3v-4.5c0-2-1.4-2.9-3.2-2.9s-3.1,1.1-3.3,2.2l2.2.5c0-.5.4-.9,1.1-.9s1,.3,1,.7-.2.4-.6.5h-1c-1.3.2-2.9.7-2.9,2.5s1,2.1,2.1,2.1,2-.6,2.4-1.8v1.7h2.2,0ZM260.1,47.8c-.5,0-.7-.3-.7-.6s.2-.5.7-.6h1.1c.3-.2.4-.2.5-.3h0c0,.7-.7,1.4-1.5,1.4h-.1Z"></path><path class="st0" d="M264.7,42.1v7.3h2.2v-4c0-1.2,1.1-1.8,2.6-1.1v-2.1c-1-.4-2.1,0-2.6,1.8v-1.8h-2.2Z"></path><path class="st0" d="M293.9,57.2c0-.3.4-.5.8-.5s.9.3,1,.9l2.2-.5c-.2-1.3-1.4-2.1-3.2-2.1s-3.1,1-3.1,2.4c0,2.9,4.1,1.7,4.1,2.9s-.3.6-1,.6-1-.3-1.1-.9l-2.2.5c.2,1.3,1.4,2.1,3.3,2.1s3.3-1,3.3-2.4c0-3-4.1-1.8-4.1-2.9h0Z"></path><path class="st0" d="M260,57.2c0-.3.4-.5.8-.5s.9.3,1,.9l2.2-.5c-.2-1.3-1.4-2.1-3.2-2.1s-3.1,1-3.1,2.4c0,2.9,4.1,1.7,4.1,2.9s-.4.6-1,.6-1-.3-1-.9l-2.2.5c.2,1.3,1.4,2.1,3.3,2.1s3.3-1,3.3-2.4c0-3-4.1-1.8-4.1-2.9h0Z"></path><path class="st0" d="M246.6,32.3c0-.8.6-1.4,1.5-1.4s1.3.6,1.3,1.4v4h2.2v-4.5c0-1.7-1-2.9-2.6-2.9s-2.1.8-2.5,2v-1.8h-2.2v7.3h2.2v-4h.1Z"></path><path class="st0" d="M239.3,42.1c-1-.4-2.1,0-2.6,1.8v-1.8h-2.2v7.3h2.2v-4c0-1.2,1.1-1.8,2.6-1.1v-2.1h0Z"></path><path class="st0" d="M246.4,47.2l-2-.7c-.3.7-.9,1-1.5,1-.9,0-1.6-.7-1.6-1.7s.7-1.7,1.6-1.7,1.2.3,1.5,1l2-.7c-.7-1.5-2-2.3-3.5-2.3-2.2,0-3.9,1.6-3.9,3.8s1.7,3.8,3.9,3.8,2.9-.8,3.5-2.3v-.2Z"></path><polygon class="st0" points="268.2 52 265.7 52 264.3 54.3 266.5 54.3 268.2 52"></polygon><path class="st0" d="M279.8,34.6v1.7h2.2v-4.5c0-2-1.4-2.9-3.2-2.9s-3.1,1.1-3.3,2.2l2.2.5c0-.5.4-.9,1.1-.9s1,.3,1,.7-.2.5-.6.5h-1c-1.3.2-2.9.7-2.9,2.5s1,2.1,2.1,2.1,2-.6,2.4-1.8h0ZM278.2,33.6h1.1c.3-.2.4-.2.5-.3h0c0,.8-.7,1.4-1.5,1.4s-.7-.3-.7-.6.2-.5.7-.6h-.1Z"></path><path class="st0" d="M226.1,49.5c2.3,0,3.9-1.4,4.6-2.8l-2.2-.9c-.4.9-1.3,1.5-2.4,1.5s-2.7-1.2-2.7-2.8,1.2-2.9,2.7-2.9,2,.7,2.4,1.5l2.2-.9c-.7-1.4-2.3-2.8-4.6-2.8s-5.2,2.2-5.2,5,2.3,5,5.2,5h0Z"></path><path class="st0" d="M233.1,55c-2.2,0-3.8,1.6-3.8,3.8s1.7,3.8,3.9,3.8,2.7-.8,3.4-1.9l-1.8-.9c-.3.5-.9.8-1.5.8s-1.4-.4-1.6-1.1h5.3c.5-2.4-1.2-4.6-3.8-4.6h0ZM231.6,57.9c.3-.6.8-1,1.5-1s1.2.4,1.5,1h-3Z"></path><path class="st0" d="M272.9,57.1c-.4-1.3-1.3-2.2-2.5-2.2-1.8,0-3,1.6-3,3.8s1.3,3.8,3,3.8,2.1-.9,2.5-2.2v2h2.2v-10.3h-2.2v5.1ZM271.3,60.5c-.8,0-1.5-.7-1.5-1.7s.7-1.7,1.5-1.7,1.7.7,1.7,1.7-.7,1.7-1.7,1.7Z"></path><path class="st0" d="M280.7,59.3c0,.7-.5,1.2-1.2,1.2s-1.3-.5-1.3-1.2v-4.2h-2.2v4.2c0,1.9,1.4,3.2,3.5,3.2s3.5-1.3,3.5-3.2v-4.2h-2.2v4.2h0Z"></path><path class="st0" d="M253.5,55c-2.2,0-3.9,1.6-3.9,3.8s1.7,3.8,3.9,3.8,2.7-.8,3.4-1.9l-1.8-.9c-.3.5-.9.8-1.5.8s-1.4-.4-1.6-1.1h5.3c.5-2.4-1.2-4.6-3.8-4.6h0ZM252,57.9c.3-.6.8-1,1.5-1s1.2.4,1.5,1h-3Z"></path><path class="st0" d="M287.3,55c-2.2,0-3.9,1.6-3.9,3.8s1.7,3.8,3.9,3.8,3.9-1.6,3.9-3.8-1.7-3.8-3.9-3.8ZM287.3,60.5c-.9,0-1.6-.7-1.6-1.7s.7-1.7,1.6-1.7,1.6.7,1.6,1.7-.7,1.7-1.6,1.7Z"></path><path class="st0" d="M249.7,55.9c0-1.9-1.4-3.3-3.6-3.3h-4.3v9.8h2.4v-3.2h1l2.1,3.2h2.8l-2.3-3.5c1.2-.5,2-1.6,2-3h0ZM246.1,57h-2v-2.3h2c.7,0,1.2.5,1.2,1.2s-.5,1.1-1.2,1.1Z"></path><rect class="st0" x="264.6" y="55.1" width="2.2" height="7.3"></rect></g></svg>