<?xml version="1.0" encoding="UTF-8"?>
<svg id="Camada_1" data-name="Camada 1" xmlns="http://www.w3.org/2000/svg" viewBox="0 0 99.56 112">
  <defs>
    <style>
      .cls-1 {
        fill: #252e97;
      }
    </style>
  </defs>
  <polygon class="cls-1" points="78.08 102.86 78.03 102.8 76.76 104.07 75.5 102.8 75.44 102.86 76.7 104.13 75.44 105.39 75.5 105.45 76.76 104.18 78.03 105.45 78.08 105.39 76.82 104.13 78.08 102.86"/>
  <polygon class="cls-1" points="73.53 102.8 72.26 104.07 71 102.8 70.94 102.86 72.21 104.13 70.94 105.39 71 105.45 72.26 104.18 73.53 105.45 73.59 105.39 72.32 104.13 73.59 102.86 73.53 102.8"/>
  <polygon class="cls-1" points="69.03 102.8 67.77 104.07 66.5 102.8 66.44 102.86 67.71 104.13 66.44 105.39 66.5 105.45 67.77 104.18 69.03 105.45 69.09 105.39 67.82 104.13 69.09 102.86 69.03 102.8"/>
  <polygon class="cls-1" points="64.54 102.8 63.27 104.07 62 102.8 61.95 102.86 63.21 104.13 61.95 105.39 62 105.45 63.27 104.18 64.54 105.45 64.59 105.39 63.33 104.13 64.59 102.86 64.54 102.8"/>
  <polygon class="cls-1" points="60.04 102.8 58.77 104.07 57.51 102.8 57.45 102.86 58.72 104.13 57.45 105.39 57.51 105.45 58.77 104.18 60.04 105.45 60.1 105.39 58.83 104.13 60.1 102.86 60.04 102.8"/>
  <polygon class="cls-1" points="55.6 102.86 55.54 102.8 54.28 104.07 53.01 102.8 52.95 102.86 54.22 104.13 52.95 105.39 53.01 105.45 54.28 104.18 55.54 105.45 55.6 105.39 54.33 104.13 55.6 102.86"/>
  <polygon class="cls-1" points="51.1 102.86 51.04 102.8 49.78 104.07 48.51 102.8 48.46 102.86 49.72 104.13 48.45 105.39 48.51 105.45 49.78 104.18 51.04 105.45 51.1 105.39 49.84 104.13 51.1 102.86"/>
  <polygon class="cls-1" points="46.55 102.8 45.28 104.07 44.01 102.8 43.96 102.86 45.22 104.13 43.96 105.39 44.01 105.45 45.28 104.18 46.55 105.45 46.6 105.39 45.34 104.13 46.6 102.86 46.55 102.8"/>
  <polygon class="cls-1" points="42.11 102.86 42.05 102.8 40.78 104.07 39.52 102.8 39.46 102.86 40.73 104.13 39.46 105.39 39.52 105.45 40.78 104.18 42.05 105.45 42.11 105.39 40.84 104.13 42.11 102.86"/>
  <polygon class="cls-1" points="37.61 102.86 37.55 102.8 36.29 104.07 35.02 102.8 34.96 102.86 36.23 104.13 34.96 105.39 35.02 105.45 36.29 104.18 37.55 105.45 37.61 105.39 36.34 104.13 37.61 102.86"/>
  <polygon class="cls-1" points="33.05 102.8 31.79 104.07 30.52 102.8 30.47 102.86 31.73 104.13 30.47 105.39 30.52 105.45 31.79 104.18 33.05 105.45 33.11 105.39 31.85 104.13 33.11 102.86 33.05 102.8"/>
  <polygon class="cls-1" points="28.56 102.8 27.29 104.07 26.03 102.8 25.97 102.86 27.23 104.13 25.97 105.39 26.03 105.45 27.29 104.18 28.56 105.45 28.61 105.39 27.35 104.13 28.61 102.86 28.56 102.8"/>
  <polygon class="cls-1" points="24.06 102.8 22.79 104.07 21.53 102.8 21.47 102.86 22.74 104.13 21.47 105.39 21.53 105.45 22.79 104.18 24.06 105.45 24.12 105.39 22.85 104.13 24.12 102.86 24.06 102.8"/>
  <polygon class="cls-1" points="19.62 102.86 19.56 102.8 18.3 104.07 17.03 102.8 16.97 102.86 18.24 104.13 16.97 105.39 17.03 105.45 18.3 104.18 19.56 105.45 19.62 105.39 18.35 104.13 19.62 102.86"/>
  <polygon class="cls-1" points="15.07 102.8 13.8 104.07 12.53 102.8 12.48 102.86 13.74 104.13 12.48 105.39 12.53 105.45 13.8 104.18 15.07 105.45 15.12 105.39 13.86 104.13 15.12 102.86 15.07 102.8"/>
  <polygon class="cls-1" points="10.57 102.8 9.3 104.07 8.04 102.8 7.98 102.86 9.25 104.13 7.98 105.39 8.04 105.45 9.3 104.18 10.57 105.45 10.63 105.39 9.36 104.13 10.63 102.86 10.57 102.8"/>
  <polygon class="cls-1" points="82.52 97.84 81.26 99.11 79.99 97.84 79.94 97.9 81.2 99.17 79.94 100.43 79.99 100.49 81.26 99.22 82.52 100.49 82.58 100.43 81.32 99.17 82.58 97.9 82.52 97.84"/>
  <polygon class="cls-1" points="78.03 97.84 76.76 99.11 75.5 97.84 75.44 97.9 76.7 99.17 75.44 100.43 75.5 100.49 76.76 99.22 78.03 100.49 78.08 100.43 76.82 99.17 78.08 97.9 78.03 97.84"/>
  <polygon class="cls-1" points="72.26 99.11 71 97.84 70.94 97.9 72.21 99.17 70.94 100.43 71 100.49 72.26 99.22 73.53 100.49 73.59 100.43 72.32 99.17 73.59 97.9 73.53 97.84 72.26 99.11"/>
  <polygon class="cls-1" points="69.03 97.84 67.77 99.11 66.5 97.84 66.44 97.9 67.71 99.17 66.44 100.43 66.5 100.49 67.77 99.22 69.03 100.49 69.09 100.43 67.82 99.17 69.09 97.9 69.03 97.84"/>
  <polygon class="cls-1" points="28.56 97.84 27.29 99.11 26.03 97.84 25.97 97.9 27.23 99.17 25.97 100.43 26.03 100.49 27.29 99.22 28.56 100.49 28.61 100.43 27.35 99.17 28.61 97.9 28.56 97.84"/>
  <polygon class="cls-1" points="24.06 97.84 22.79 99.11 21.53 97.84 21.47 97.9 22.74 99.17 21.47 100.43 21.53 100.49 22.79 99.22 24.06 100.49 24.12 100.43 22.85 99.17 24.12 97.9 24.06 97.84"/>
  <polygon class="cls-1" points="17.03 100.49 18.3 99.22 19.56 100.49 19.62 100.43 18.35 99.17 19.62 97.9 19.56 97.84 18.3 99.11 17.03 97.84 16.97 97.9 18.24 99.17 16.97 100.43 17.03 100.49"/>
  <polygon class="cls-1" points="13.8 99.11 12.53 97.84 12.48 97.9 13.74 99.17 12.48 100.43 12.53 100.49 13.8 99.22 15.07 100.49 15.12 100.43 13.86 99.17 15.12 97.9 15.07 97.84 13.8 99.11"/>
  <polygon class="cls-1" points="87.08 92.94 87.02 92.88 85.76 94.15 84.49 92.88 84.43 92.94 85.7 94.2 84.43 95.47 84.49 95.53 85.76 94.26 87.02 95.53 87.08 95.47 85.81 94.2 87.08 92.94"/>
  <polygon class="cls-1" points="82.58 92.94 82.52 92.88 81.26 94.15 79.99 92.88 79.94 92.94 81.2 94.2 79.94 95.47 79.99 95.53 81.26 94.26 82.52 95.53 82.58 95.47 81.32 94.2 82.58 92.94"/>
  <polygon class="cls-1" points="76.76 94.15 75.5 92.88 75.44 92.94 76.7 94.21 75.44 95.47 75.5 95.53 76.76 94.26 78.03 95.53 78.08 95.47 76.82 94.21 78.08 92.94 78.03 92.88 76.76 94.15"/>
  <polygon class="cls-1" points="28.61 92.94 28.56 92.88 27.29 94.15 26.03 92.88 25.97 92.94 27.23 94.2 25.97 95.47 26.03 95.53 27.29 94.26 28.56 95.53 28.62 95.47 27.35 94.2 28.61 92.94"/>
  <polygon class="cls-1" points="24.12 92.94 24.06 92.88 22.79 94.15 21.53 92.88 21.47 92.94 22.74 94.2 21.47 95.47 21.53 95.53 22.79 94.26 24.06 95.53 24.12 95.47 22.85 94.2 24.12 92.94"/>
  <polygon class="cls-1" points="19.62 92.94 19.56 92.88 18.3 94.15 17.03 92.88 16.97 92.94 18.24 94.2 16.97 95.47 17.03 95.53 18.3 94.26 19.56 95.53 19.62 95.47 18.35 94.2 19.62 92.94"/>
  <polygon class="cls-1" points="15.12 92.94 15.07 92.88 13.8 94.15 12.53 92.88 12.48 92.94 13.74 94.2 12.48 95.47 12.53 95.53 13.8 94.26 15.07 95.53 15.12 95.47 13.86 94.2 15.12 92.94"/>
  <polygon class="cls-1" points="91.58 87.98 91.52 87.92 90.25 89.19 88.99 87.92 88.93 87.98 90.2 89.24 88.93 90.51 88.99 90.57 90.25 89.3 91.52 90.57 91.58 90.51 90.31 89.24 91.58 87.98"/>
  <polygon class="cls-1" points="87.08 87.98 87.02 87.92 85.76 89.19 84.49 87.92 84.43 87.98 85.7 89.24 84.43 90.51 84.49 90.57 85.76 89.3 87.02 90.57 87.08 90.51 85.81 89.24 87.08 87.98"/>
  <polygon class="cls-1" points="82.58 87.98 82.52 87.92 81.26 89.19 79.99 87.92 79.94 87.98 81.2 89.24 79.94 90.51 79.99 90.57 81.26 89.3 82.52 90.57 82.58 90.51 81.32 89.24 82.58 87.98"/>
  <polygon class="cls-1" points="76.76 89.3 78.03 90.57 78.08 90.51 76.82 89.24 78.08 87.98 78.03 87.92 76.76 89.19 75.5 87.92 75.44 87.98 76.7 89.24 75.44 90.51 75.5 90.57 76.76 89.3"/>
  <polygon class="cls-1" points="28.61 87.98 28.56 87.92 27.29 89.19 26.03 87.92 25.97 87.98 27.23 89.24 25.97 90.51 26.03 90.57 27.29 89.3 28.56 90.57 28.62 90.51 27.35 89.24 28.61 87.98"/>
  <polygon class="cls-1" points="24.12 87.98 24.06 87.92 22.79 89.19 21.53 87.92 21.47 87.98 22.74 89.24 21.47 90.51 21.53 90.57 22.79 89.3 24.06 90.57 24.12 90.51 22.85 89.24 24.12 87.98"/>
  <polygon class="cls-1" points="18.3 89.3 19.56 90.57 19.62 90.51 18.35 89.24 19.62 87.98 19.56 87.92 18.3 89.19 17.03 87.92 16.97 87.98 18.24 89.24 16.97 90.51 17.03 90.57 18.3 89.3"/>
  <polygon class="cls-1" points="15.12 87.98 15.07 87.92 13.8 89.19 12.53 87.92 12.48 87.98 13.74 89.24 12.48 90.51 12.53 90.57 13.8 89.3 15.07 90.57 15.12 90.51 13.86 89.24 15.12 87.98"/>
  <polygon class="cls-1" points="91.58 83.02 91.52 82.96 90.25 84.23 88.99 82.96 88.93 83.02 90.2 84.28 88.93 85.55 88.99 85.61 90.25 84.34 91.52 85.61 91.58 85.55 90.31 84.28 91.58 83.02"/>
  <polygon class="cls-1" points="87.08 83.02 87.02 82.96 85.76 84.23 84.49 82.96 84.43 83.02 85.7 84.28 84.43 85.55 84.49 85.61 85.76 84.34 87.02 85.61 87.08 85.55 85.81 84.28 87.08 83.02"/>
  <polygon class="cls-1" points="82.58 83.02 82.52 82.96 81.26 84.23 79.99 82.96 79.94 83.02 81.2 84.28 79.94 85.55 79.99 85.61 81.26 84.34 82.52 85.61 82.58 85.55 81.32 84.28 82.58 83.02"/>
  <polygon class="cls-1" points="28.61 83.02 28.56 82.96 27.29 84.23 26.03 82.96 25.97 83.02 27.23 84.28 25.97 85.55 26.03 85.61 27.29 84.34 28.56 85.61 28.62 85.55 27.35 84.28 28.61 83.02"/>
  <polygon class="cls-1" points="24.12 83.02 24.06 82.96 22.79 84.23 21.53 82.96 21.47 83.02 22.74 84.28 21.47 85.55 21.53 85.61 22.79 84.34 24.06 85.61 24.12 85.55 22.85 84.28 24.12 83.02"/>
  <polygon class="cls-1" points="18.3 84.34 19.56 85.61 19.62 85.55 18.35 84.28 19.62 83.02 19.56 82.96 18.3 84.23 17.03 82.96 16.97 83.02 18.24 84.28 16.97 85.55 17.03 85.61 18.3 84.34"/>
  <polygon class="cls-1" points="15.12 83.02 15.07 82.96 13.8 84.23 12.53 82.96 12.48 83.02 13.74 84.28 12.48 85.55 12.53 85.61 13.8 84.34 15.07 85.61 15.12 85.55 13.86 84.28 15.12 83.02"/>
  <polygon class="cls-1" points="91.58 78.06 91.52 78 90.25 79.27 88.99 78 88.93 78.06 90.2 79.32 88.93 80.59 88.99 80.65 90.25 79.38 91.52 80.65 91.58 80.59 90.31 79.32 91.58 78.06"/>
  <polygon class="cls-1" points="87.08 78.06 87.02 78 85.76 79.27 84.49 78 84.43 78.06 85.7 79.32 84.43 80.59 84.49 80.65 85.76 79.38 87.02 80.65 87.08 80.59 85.81 79.32 87.08 78.06"/>
  <polygon class="cls-1" points="82.58 78.06 82.52 78 81.26 79.27 79.99 78 79.94 78.06 81.2 79.32 79.94 80.59 79.99 80.65 81.26 79.38 82.52 80.65 82.58 80.59 81.32 79.32 82.58 78.06"/>
  <polygon class="cls-1" points="28.61 78.06 28.56 78 27.29 79.27 26.03 78 25.97 78.06 27.23 79.32 25.97 80.59 26.03 80.65 27.29 79.38 28.56 80.65 28.62 80.59 27.35 79.32 28.61 78.06"/>
  <polygon class="cls-1" points="24.12 78.06 24.06 78 22.79 79.27 21.53 78 21.47 78.06 22.74 79.32 21.47 80.59 21.53 80.65 22.79 79.38 24.06 80.65 24.12 80.59 22.85 79.32 24.12 78.06"/>
  <polygon class="cls-1" points="19.62 78.06 19.56 78 18.3 79.27 17.03 78 16.97 78.06 18.24 79.32 16.97 80.59 17.03 80.65 18.3 79.38 19.56 80.65 19.62 80.59 18.35 79.32 19.62 78.06"/>
  <polygon class="cls-1" points="15.12 78.06 15.07 78 13.8 79.27 12.53 78 12.48 78.06 13.74 79.32 12.48 80.59 12.53 80.65 13.8 79.38 15.07 80.65 15.12 80.59 13.86 79.32 15.12 78.06"/>
  <polygon class="cls-1" points="91.58 73.1 91.52 73.04 90.25 74.3 88.99 73.04 88.93 73.1 90.2 74.36 88.93 75.63 88.99 75.69 90.25 74.42 91.52 75.69 91.58 75.63 90.31 74.36 91.58 73.1"/>
  <polygon class="cls-1" points="87.08 73.1 87.02 73.04 85.76 74.3 84.49 73.04 84.43 73.1 85.7 74.36 84.43 75.63 84.49 75.69 85.76 74.42 87.02 75.69 87.08 75.63 85.81 74.36 87.08 73.1"/>
  <polygon class="cls-1" points="82.58 73.1 82.52 73.04 81.26 74.3 79.99 73.04 79.94 73.1 81.2 74.36 79.94 75.63 79.99 75.69 81.26 74.42 82.52 75.69 82.58 75.63 81.32 74.36 82.58 73.1"/>
  <polygon class="cls-1" points="76.76 74.42 78.03 75.69 78.08 75.63 76.82 74.36 78.08 73.1 78.03 73.04 76.76 74.3 75.5 73.04 75.44 73.1 76.7 74.36 75.44 75.63 75.5 75.69 76.76 74.42"/>
  <polygon class="cls-1" points="28.61 73.1 28.56 73.04 27.29 74.3 26.03 73.04 25.97 73.1 27.23 74.36 25.97 75.63 26.03 75.69 27.29 74.42 28.56 75.69 28.62 75.63 27.35 74.36 28.61 73.1"/>
  <polygon class="cls-1" points="24.12 73.1 24.06 73.04 22.79 74.3 21.53 73.04 21.47 73.1 22.74 74.36 21.47 75.63 21.53 75.69 22.79 74.42 24.06 75.69 24.12 75.63 22.85 74.36 24.12 73.1"/>
  <polygon class="cls-1" points="18.3 74.42 19.56 75.69 19.62 75.63 18.35 74.36 19.62 73.1 19.56 73.04 18.3 74.3 17.03 73.04 16.97 73.1 18.24 74.36 16.97 75.63 17.03 75.69 18.3 74.42"/>
  <polygon class="cls-1" points="15.12 73.1 15.07 73.04 13.8 74.3 12.53 73.04 12.48 73.1 13.74 74.36 12.48 75.63 12.53 75.69 13.8 74.42 15.07 75.69 15.12 75.63 13.86 74.36 15.12 73.1"/>
  <polygon class="cls-1" points="87.02 68.08 85.76 69.34 84.49 68.08 84.43 68.14 85.7 69.4 84.43 70.67 84.49 70.72 85.76 69.46 87.02 70.72 87.08 70.67 85.81 69.4 87.08 68.14 87.02 68.08"/>
  <polygon class="cls-1" points="79.99 70.72 81.26 69.46 82.52 70.72 82.58 70.67 81.32 69.4 82.58 68.14 82.52 68.08 81.26 69.34 79.99 68.08 79.94 68.14 81.2 69.4 79.94 70.67 79.99 70.72"/>
  <polygon class="cls-1" points="75.5 70.72 76.76 69.46 78.03 70.72 78.08 70.67 76.82 69.4 78.08 68.14 78.03 68.08 76.76 69.34 75.5 68.08 75.44 68.14 76.7 69.4 75.44 70.67 75.5 70.72"/>
  <polygon class="cls-1" points="26.03 70.72 27.29 69.46 28.56 70.72 28.61 70.67 27.35 69.4 28.61 68.14 28.56 68.08 27.29 69.34 26.03 68.08 25.97 68.14 27.23 69.4 25.97 70.67 26.03 70.72"/>
  <polygon class="cls-1" points="22.79 69.46 24.06 70.72 24.12 70.67 22.85 69.4 24.12 68.14 24.06 68.08 22.79 69.34 21.53 68.08 21.47 68.14 22.74 69.4 21.47 70.67 21.53 70.72 22.79 69.46"/>
  <polygon class="cls-1" points="17.03 70.72 18.3 69.46 19.56 70.72 19.62 70.67 18.35 69.4 19.62 68.14 19.56 68.08 18.3 69.34 17.03 68.08 16.97 68.14 18.24 69.4 16.97 70.67 17.03 70.72"/>
  <polygon class="cls-1" points="15.07 68.08 13.8 69.34 12.53 68.08 12.48 68.14 13.74 69.4 12.48 70.67 12.53 70.72 13.8 69.46 15.07 70.72 15.12 70.67 13.86 69.4 15.12 68.14 15.07 68.08"/>
  <polygon class="cls-1" points="79.99 65.76 81.26 64.5 82.52 65.76 82.58 65.71 81.32 64.44 82.58 63.18 82.52 63.12 81.26 64.38 79.99 63.12 79.94 63.18 81.2 64.44 79.94 65.71 79.99 65.76"/>
  <polygon class="cls-1" points="76.82 64.44 78.08 63.18 78.03 63.12 76.76 64.38 75.5 63.12 75.44 63.18 76.7 64.44 75.44 65.71 75.5 65.76 76.76 64.5 78.03 65.76 78.08 65.71 76.82 64.44"/>
  <polygon class="cls-1" points="73.59 63.18 73.53 63.12 72.26 64.38 71 63.12 70.94 63.18 72.21 64.44 70.94 65.71 71 65.76 72.26 64.5 73.53 65.76 73.59 65.71 72.32 64.44 73.59 63.18"/>
  <polygon class="cls-1" points="69.03 63.12 67.77 64.38 66.5 63.12 66.44 63.18 67.71 64.44 66.44 65.71 66.5 65.76 67.77 64.5 69.03 65.76 69.09 65.71 67.82 64.44 69.09 63.18 69.03 63.12"/>
  <polygon class="cls-1" points="26.03 65.76 27.29 64.5 28.56 65.76 28.61 65.71 27.35 64.44 28.61 63.18 28.56 63.12 27.29 64.38 26.03 63.12 25.97 63.18 27.23 64.44 25.97 65.71 26.03 65.76"/>
  <polygon class="cls-1" points="22.79 64.5 24.06 65.76 24.12 65.71 22.85 64.44 24.12 63.18 24.06 63.12 22.79 64.38 21.53 63.12 21.47 63.18 22.74 64.44 21.47 65.71 21.53 65.76 22.79 64.5"/>
  <polygon class="cls-1" points="17.03 65.76 18.3 64.5 19.56 65.76 19.62 65.71 18.35 64.44 19.62 63.18 19.56 63.12 18.3 64.38 17.03 63.12 16.97 63.18 18.24 64.44 16.97 65.71 17.03 65.76"/>
  <polygon class="cls-1" points="15.07 63.12 13.8 64.38 12.53 63.12 12.48 63.18 13.74 64.44 12.48 65.71 12.53 65.76 13.8 64.5 15.07 65.76 15.12 65.71 13.86 64.44 15.12 63.18 15.07 63.12"/>
  <polygon class="cls-1" points="69.03 58.16 67.77 59.42 66.5 58.16 66.44 58.21 67.71 59.48 66.44 60.75 66.5 60.8 67.77 59.54 69.03 60.8 69.09 60.75 67.82 59.48 69.09 58.21 69.03 58.16"/>
  <polygon class="cls-1" points="62 60.8 63.27 59.54 64.54 60.8 64.59 60.75 63.33 59.48 64.59 58.21 64.54 58.16 63.27 59.42 62 58.16 61.95 58.21 63.21 59.48 61.95 60.75 62 60.8"/>
  <polygon class="cls-1" points="58.77 59.54 60.04 60.8 60.1 60.75 58.83 59.48 60.1 58.21 60.04 58.16 58.77 59.42 57.51 58.16 57.45 58.21 58.71 59.48 57.45 60.75 57.51 60.8 58.77 59.54"/>
  <polygon class="cls-1" points="54.27 59.54 55.54 60.8 55.6 60.75 54.33 59.48 55.6 58.21 55.54 58.16 54.27 59.42 53.01 58.16 52.95 58.21 54.22 59.48 52.95 60.75 53.01 60.8 54.27 59.54"/>
  <polygon class="cls-1" points="51.1 58.21 51.04 58.16 49.78 59.42 48.51 58.16 48.46 58.21 49.72 59.48 48.45 60.75 48.51 60.8 49.78 59.54 51.04 60.8 51.1 60.75 49.84 59.48 51.1 58.21"/>
  <polygon class="cls-1" points="44.01 60.8 45.28 59.54 46.55 60.8 46.6 60.75 45.34 59.48 46.6 58.21 46.55 58.16 45.28 59.42 44.01 58.16 43.96 58.21 45.22 59.48 43.96 60.75 44.01 60.8"/>
  <polygon class="cls-1" points="42.11 58.21 42.05 58.16 40.78 59.42 39.52 58.16 39.46 58.21 40.73 59.48 39.46 60.75 39.52 60.8 40.78 59.54 42.05 60.8 42.11 60.75 40.84 59.48 42.11 58.21"/>
  <polygon class="cls-1" points="37.55 58.16 36.29 59.42 35.02 58.16 34.96 58.21 36.23 59.48 34.96 60.75 35.02 60.8 36.29 59.54 37.55 60.8 37.61 60.75 36.34 59.48 37.61 58.21 37.55 58.16"/>
  <polygon class="cls-1" points="31.79 59.42 30.52 58.16 30.47 58.21 31.73 59.48 30.47 60.75 30.52 60.8 31.79 59.54 33.05 60.8 33.11 60.75 31.85 59.48 33.11 58.21 33.05 58.16 31.79 59.42"/>
  <polygon class="cls-1" points="26.03 60.8 27.29 59.54 28.56 60.8 28.61 60.75 27.35 59.48 28.61 58.21 28.56 58.16 27.29 59.42 26.03 58.16 25.97 58.21 27.23 59.48 25.97 60.75 26.03 60.8"/>
  <polygon class="cls-1" points="21.53 60.8 22.79 59.54 24.06 60.8 24.12 60.75 22.85 59.48 24.12 58.21 24.06 58.16 22.79 59.42 21.53 58.16 21.47 58.21 22.74 59.48 21.47 60.75 21.53 60.8"/>
  <polygon class="cls-1" points="18.3 59.42 17.03 58.16 16.97 58.21 18.24 59.48 16.97 60.75 17.03 60.8 18.3 59.54 19.56 60.8 19.62 60.75 18.35 59.48 19.62 58.21 19.56 58.16 18.3 59.42"/>
  <polygon class="cls-1" points="13.8 59.42 12.53 58.16 12.48 58.21 13.74 59.48 12.48 60.75 12.53 60.8 13.8 59.54 15.07 60.8 15.12 60.75 13.86 59.48 15.12 58.21 15.07 58.16 13.8 59.42"/>
  <polygon class="cls-1" points="67.77 52.46 66.5 51.2 66.44 51.25 67.71 52.52 66.44 53.79 66.5 53.84 67.77 52.58 69.03 53.84 69.09 53.79 67.82 52.52 69.09 51.25 69.03 51.2 67.77 52.46"/>
  <polygon class="cls-1" points="62 53.84 63.27 52.58 64.54 53.84 64.59 53.79 63.33 52.52 64.59 51.25 64.54 51.2 63.27 52.46 62 51.2 61.95 51.25 63.21 52.52 61.95 53.78 62 53.84"/>
  <polygon class="cls-1" points="57.51 53.84 58.77 52.58 60.04 53.84 60.1 53.79 58.83 52.52 60.1 51.25 60.04 51.2 58.77 52.46 57.51 51.2 57.45 51.25 58.71 52.52 57.45 53.78 57.51 53.84"/>
  <polygon class="cls-1" points="53.01 53.84 54.28 52.58 55.54 53.84 55.6 53.79 54.33 52.52 55.6 51.25 55.54 51.2 54.28 52.46 53.01 51.2 52.95 51.25 54.22 52.52 52.95 53.79 53.01 53.84"/>
  <polygon class="cls-1" points="51.1 51.25 51.04 51.2 49.78 52.46 48.51 51.2 48.46 51.25 49.72 52.52 48.45 53.79 48.51 53.84 49.78 52.58 51.04 53.84 51.1 53.79 49.84 52.52 51.1 51.25"/>
  <polygon class="cls-1" points="44.01 53.84 45.28 52.58 46.55 53.84 46.6 53.79 45.34 52.52 46.6 51.25 46.55 51.2 45.28 52.46 44.01 51.2 43.96 51.25 45.22 52.52 43.96 53.78 44.01 53.84"/>
  <polygon class="cls-1" points="40.78 52.46 39.52 51.2 39.46 51.25 40.73 52.52 39.46 53.79 39.52 53.84 40.78 52.58 42.05 53.84 42.11 53.79 40.84 52.52 42.11 51.25 42.05 51.2 40.78 52.46"/>
  <polygon class="cls-1" points="36.29 52.46 35.02 51.2 34.96 51.25 36.23 52.52 34.96 53.79 35.02 53.84 36.29 52.58 37.55 53.84 37.61 53.79 36.34 52.52 37.61 51.25 37.55 51.2 36.29 52.46"/>
  <polygon class="cls-1" points="31.79 52.58 33.05 53.84 33.11 53.79 31.85 52.52 33.11 51.25 33.05 51.2 31.79 52.46 30.52 51.2 30.47 51.25 31.73 52.52 30.47 53.78 30.52 53.84 31.79 52.58"/>
  <polygon class="cls-1" points="26.03 53.84 27.29 52.58 28.56 53.84 28.61 53.79 27.35 52.52 28.61 51.25 28.56 51.2 27.29 52.46 26.03 51.2 25.97 51.25 27.23 52.52 25.97 53.79 26.03 53.84"/>
  <polygon class="cls-1" points="21.53 53.84 22.79 52.58 24.06 53.84 24.12 53.79 22.85 52.52 24.12 51.25 24.06 51.2 22.79 52.46 21.53 51.2 21.47 51.25 22.74 52.52 21.47 53.78 21.53 53.84"/>
  <polygon class="cls-1" points="19.56 51.2 18.3 52.46 17.03 51.2 16.97 51.25 18.24 52.52 16.97 53.79 17.03 53.84 18.3 52.58 19.56 53.84 19.62 53.79 18.35 52.52 19.62 51.25 19.56 51.2"/>
  <polygon class="cls-1" points="13.8 52.46 12.53 51.2 12.48 51.25 13.74 52.52 12.48 53.79 12.53 53.84 13.8 52.58 15.07 53.84 15.12 53.79 13.86 52.52 15.12 51.25 15.07 51.2 13.8 52.46"/>
  <polygon class="cls-1" points="79.99 48.88 81.26 47.62 82.52 48.88 82.58 48.82 81.32 47.56 82.58 46.29 82.52 46.24 81.26 47.5 79.99 46.24 79.94 46.29 81.2 47.56 79.94 48.82 79.99 48.88"/>
  <polygon class="cls-1" points="78.03 46.24 76.76 47.5 75.5 46.24 75.44 46.29 76.7 47.56 75.44 48.82 75.5 48.88 76.76 47.62 78.03 48.88 78.08 48.82 76.82 47.56 78.08 46.29 78.03 46.24"/>
  <polygon class="cls-1" points="72.26 47.5 71 46.24 70.94 46.29 72.21 47.56 70.94 48.82 71 48.88 72.26 47.62 73.53 48.88 73.59 48.82 72.32 47.56 73.59 46.29 73.53 46.24 72.26 47.5"/>
  <polygon class="cls-1" points="67.77 47.62 69.03 48.88 69.09 48.82 67.82 47.56 69.09 46.29 69.03 46.24 67.77 47.5 66.5 46.24 66.44 46.29 67.71 47.56 66.44 48.82 66.5 48.88 67.77 47.62"/>
  <polygon class="cls-1" points="26.03 48.88 27.29 47.62 28.56 48.88 28.61 48.82 27.35 47.56 28.61 46.29 28.56 46.24 27.29 47.5 26.03 46.24 25.97 46.29 27.23 47.56 25.97 48.82 26.03 48.88"/>
  <polygon class="cls-1" points="21.53 48.88 22.79 47.62 24.06 48.88 24.12 48.82 22.85 47.56 24.12 46.29 24.06 46.24 22.79 47.5 21.53 46.24 21.47 46.29 22.74 47.56 21.47 48.82 21.53 48.88"/>
  <polygon class="cls-1" points="17.03 48.88 18.3 47.62 19.56 48.88 19.62 48.82 18.35 47.56 19.62 46.29 19.56 46.24 18.3 47.5 17.03 46.24 16.97 46.29 18.24 47.56 16.97 48.82 17.03 48.88"/>
  <polygon class="cls-1" points="15.07 46.24 13.8 47.5 12.53 46.24 12.48 46.29 13.74 47.56 12.48 48.82 12.53 48.88 13.8 47.62 15.07 48.88 15.12 48.82 13.86 47.56 15.12 46.29 15.07 46.24"/>
  <polygon class="cls-1" points="87.08 41.33 87.02 41.28 85.76 42.54 84.49 41.28 84.43 41.33 85.7 42.6 84.43 43.86 84.49 43.92 85.76 42.66 87.02 43.92 87.08 43.86 85.81 42.6 87.08 41.33"/>
  <polygon class="cls-1" points="82.58 41.33 82.52 41.28 81.26 42.54 79.99 41.28 79.94 41.33 81.2 42.6 79.94 43.86 79.99 43.92 81.26 42.66 82.52 43.92 82.58 43.86 81.32 42.6 82.58 41.33"/>
  <polygon class="cls-1" points="76.76 42.54 75.5 41.28 75.44 41.33 76.7 42.6 75.44 43.86 75.5 43.92 76.76 42.66 78.03 43.92 78.08 43.86 76.82 42.6 78.08 41.33 78.03 41.28 76.76 42.54"/>
  <polygon class="cls-1" points="28.61 41.33 28.56 41.28 27.29 42.54 26.03 41.28 25.97 41.33 27.23 42.6 25.97 43.86 26.03 43.92 27.29 42.66 28.56 43.92 28.62 43.86 27.35 42.6 28.61 41.33"/>
  <polygon class="cls-1" points="24.12 41.33 24.06 41.28 22.79 42.54 21.53 41.28 21.47 41.33 22.74 42.6 21.47 43.86 21.53 43.92 22.79 42.66 24.06 43.92 24.12 43.86 22.85 42.6 24.12 41.33"/>
  <polygon class="cls-1" points="18.35 42.6 19.62 41.33 19.56 41.28 18.3 42.54 17.03 41.28 16.97 41.33 18.24 42.6 16.97 43.86 17.03 43.92 18.3 42.66 19.56 43.92 19.62 43.86 18.35 42.6"/>
  <polygon class="cls-1" points="13.8 42.66 15.07 43.92 15.12 43.86 13.86 42.6 15.12 41.33 15.07 41.28 13.8 42.54 12.53 41.28 12.48 41.33 13.74 42.6 12.48 43.86 12.53 43.92 13.8 42.66"/>
  <polygon class="cls-1" points="91.58 36.37 91.52 36.31 90.25 37.58 88.99 36.31 88.93 36.37 90.2 37.64 88.93 38.9 88.99 38.96 90.25 37.69 91.52 38.96 91.58 38.9 90.31 37.64 91.58 36.37"/>
  <polygon class="cls-1" points="87.08 36.37 87.02 36.31 85.76 37.58 84.49 36.31 84.43 36.37 85.7 37.64 84.43 38.9 84.49 38.96 85.76 37.69 87.02 38.96 87.08 38.9 85.81 37.64 87.08 36.37"/>
  <polygon class="cls-1" points="82.58 36.37 82.52 36.31 81.26 37.58 79.99 36.31 79.94 36.37 81.2 37.64 79.94 38.9 79.99 38.96 81.26 37.69 82.52 38.96 82.58 38.9 81.32 37.64 82.58 36.37"/>
  <polygon class="cls-1" points="76.76 37.69 78.03 38.96 78.08 38.9 76.82 37.64 78.08 36.37 78.03 36.31 76.76 37.58 75.5 36.31 75.44 36.37 76.7 37.64 75.44 38.9 75.5 38.96 76.76 37.69"/>
  <polygon class="cls-1" points="28.61 36.37 28.56 36.31 27.29 37.58 26.03 36.31 25.97 36.37 27.23 37.64 25.97 38.9 26.03 38.96 27.29 37.69 28.56 38.96 28.62 38.9 27.35 37.64 28.61 36.37"/>
  <polygon class="cls-1" points="24.12 36.37 24.06 36.31 22.79 37.58 21.53 36.31 21.47 36.37 22.74 37.64 21.47 38.9 21.53 38.96 22.79 37.69 24.06 38.96 24.12 38.9 22.85 37.64 24.12 36.37"/>
  <polygon class="cls-1" points="18.3 37.69 19.56 38.96 19.62 38.9 18.35 37.64 19.62 36.37 19.56 36.31 18.3 37.58 17.03 36.31 16.97 36.37 18.24 37.64 16.97 38.9 17.03 38.96 18.3 37.69"/>
  <polygon class="cls-1" points="13.8 37.69 15.07 38.96 15.12 38.9 13.86 37.64 15.12 36.37 15.07 36.31 13.8 37.58 12.53 36.31 12.48 36.37 13.74 37.64 12.48 38.9 12.53 38.96 13.8 37.69"/>
  <polygon class="cls-1" points="91.58 31.41 91.52 31.35 90.25 32.62 88.99 31.35 88.93 31.41 90.2 32.68 88.93 33.94 88.99 34 90.25 32.73 91.52 34 91.58 33.94 90.31 32.68 91.58 31.41"/>
  <polygon class="cls-1" points="87.08 31.41 87.02 31.35 85.76 32.62 84.49 31.35 84.43 31.41 85.7 32.68 84.43 33.94 84.49 34 85.76 32.73 87.02 34 87.08 33.94 85.81 32.68 87.08 31.41"/>
  <polygon class="cls-1" points="82.58 31.41 82.52 31.35 81.26 32.62 79.99 31.35 79.94 31.41 81.2 32.68 79.94 33.94 79.99 34 81.26 32.73 82.52 34 82.58 33.94 81.32 32.68 82.58 31.41"/>
  <polygon class="cls-1" points="28.61 31.41 28.56 31.35 27.29 32.62 26.03 31.35 25.97 31.41 27.23 32.68 25.97 33.94 26.03 34 27.29 32.73 28.56 34 28.62 33.94 27.35 32.68 28.61 31.41"/>
  <polygon class="cls-1" points="24.12 31.41 24.06 31.35 22.79 32.62 21.53 31.35 21.47 31.41 22.74 32.68 21.47 33.94 21.53 34 22.79 32.73 24.06 34 24.12 33.94 22.85 32.68 24.12 31.41"/>
  <polygon class="cls-1" points="18.3 32.73 19.56 34 19.62 33.94 18.35 32.68 19.62 31.41 19.56 31.35 18.3 32.62 17.03 31.35 16.97 31.41 18.24 32.68 16.97 33.94 17.03 34 18.3 32.73"/>
  <polygon class="cls-1" points="13.8 32.73 15.07 34 15.12 33.94 13.86 32.68 15.12 31.41 15.07 31.35 13.8 32.62 12.53 31.35 12.48 31.41 13.74 32.68 12.48 33.94 12.53 34 13.8 32.73"/>
  <polygon class="cls-1" points="91.58 26.45 91.52 26.39 90.25 27.66 88.99 26.39 88.93 26.45 90.2 27.72 88.93 28.98 88.99 29.04 90.25 27.77 91.52 29.04 91.58 28.98 90.31 27.72 91.58 26.45"/>
  <polygon class="cls-1" points="87.08 26.45 87.02 26.39 85.76 27.66 84.49 26.39 84.43 26.45 85.7 27.72 84.43 28.98 84.49 29.04 85.76 27.77 87.02 29.04 87.08 28.98 85.81 27.72 87.08 26.45"/>
  <polygon class="cls-1" points="82.58 26.45 82.52 26.39 81.26 27.66 79.99 26.39 79.94 26.45 81.2 27.72 79.94 28.98 79.99 29.04 81.26 27.77 82.52 29.04 82.58 28.98 81.32 27.72 82.58 26.45"/>
  <polygon class="cls-1" points="28.61 26.45 28.56 26.39 27.29 27.66 26.03 26.39 25.97 26.45 27.23 27.72 25.97 28.98 26.03 29.04 27.29 27.77 28.56 29.04 28.62 28.98 27.35 27.72 28.61 26.45"/>
  <polygon class="cls-1" points="24.12 26.45 24.06 26.39 22.79 27.66 21.53 26.39 21.47 26.45 22.74 27.72 21.47 28.98 21.53 29.04 22.79 27.77 24.06 29.04 24.12 28.98 22.85 27.72 24.12 26.45"/>
  <polygon class="cls-1" points="17.03 29.04 18.3 27.77 19.56 29.04 19.62 28.98 18.35 27.72 19.62 26.45 19.56 26.39 18.3 27.66 17.03 26.39 16.97 26.45 18.24 27.72 16.97 28.98 17.03 29.04"/>
  <polygon class="cls-1" points="13.8 27.77 15.07 29.04 15.12 28.98 13.86 27.72 15.12 26.45 15.07 26.39 13.8 27.66 12.53 26.39 12.48 26.45 13.74 27.72 12.48 28.98 12.53 29.04 13.8 27.77"/>
  <polygon class="cls-1" points="88.99 24.08 90.25 22.81 91.52 24.08 91.58 24.02 90.31 22.76 91.58 21.49 91.52 21.43 90.25 22.7 88.99 21.43 88.93 21.49 90.2 22.76 88.93 24.02 88.99 24.08"/>
  <polygon class="cls-1" points="87.08 21.49 87.02 21.43 85.76 22.7 84.49 21.43 84.43 21.49 85.7 22.76 84.43 24.02 84.49 24.08 85.76 22.81 87.02 24.08 87.08 24.02 85.81 22.76 87.08 21.49"/>
  <polygon class="cls-1" points="82.58 21.49 82.52 21.43 81.26 22.7 79.99 21.43 79.94 21.49 81.2 22.76 79.94 24.02 79.99 24.08 81.26 22.81 82.52 24.08 82.58 24.02 81.32 22.76 82.58 21.49"/>
  <polygon class="cls-1" points="76.76 22.81 78.03 24.08 78.08 24.02 76.82 22.76 78.08 21.49 78.03 21.43 76.76 22.7 75.5 21.43 75.44 21.49 76.7 22.76 75.44 24.02 75.5 24.08 76.76 22.81"/>
  <polygon class="cls-1" points="28.61 21.49 28.56 21.43 27.29 22.7 26.03 21.43 25.97 21.49 27.23 22.76 25.97 24.02 26.03 24.08 27.29 22.81 28.56 24.08 28.62 24.02 27.35 22.76 28.61 21.49"/>
  <polygon class="cls-1" points="24.12 21.49 24.06 21.43 22.79 22.7 21.53 21.43 21.47 21.49 22.74 22.76 21.47 24.02 21.53 24.08 22.79 22.81 24.06 24.08 24.12 24.02 22.85 22.76 24.12 21.49"/>
  <polygon class="cls-1" points="18.3 22.81 19.56 24.08 19.62 24.02 18.35 22.76 19.62 21.49 19.56 21.43 18.3 22.7 17.03 21.43 16.97 21.49 18.24 22.76 16.97 24.02 17.03 24.08 18.3 22.81"/>
  <polygon class="cls-1" points="13.8 22.81 15.07 24.08 15.12 24.02 13.86 22.76 15.12 21.49 15.07 21.43 13.8 22.7 12.53 21.43 12.48 21.49 13.74 22.76 12.48 24.02 12.53 24.08 13.8 22.81"/>
  <polygon class="cls-1" points="84.43 19.06 84.49 19.12 85.76 17.85 87.02 19.12 87.08 19.06 85.81 17.8 87.08 16.53 87.02 16.47 85.76 17.74 84.49 16.47 84.43 16.53 85.7 17.8 84.43 19.06"/>
  <polygon class="cls-1" points="81.26 17.85 82.52 19.12 82.58 19.06 81.32 17.79 82.58 16.53 82.52 16.47 81.26 17.74 79.99 16.47 79.94 16.53 81.2 17.79 79.94 19.06 79.99 19.12 81.26 17.85"/>
  <polygon class="cls-1" points="76.76 17.85 78.03 19.12 78.08 19.06 76.82 17.79 78.08 16.53 78.03 16.47 76.76 17.74 75.5 16.47 75.44 16.53 76.7 17.79 75.44 19.06 75.5 19.12 76.76 17.85"/>
  <polygon class="cls-1" points="73.59 16.53 73.53 16.47 72.26 17.74 71 16.47 70.94 16.53 72.21 17.79 70.94 19.06 71 19.12 72.26 17.85 73.53 19.12 73.59 19.06 72.32 17.79 73.59 16.53"/>
  <polygon class="cls-1" points="27.29 17.85 28.56 19.12 28.61 19.06 27.35 17.79 28.61 16.53 28.56 16.47 27.29 17.74 26.03 16.47 25.97 16.53 27.23 17.79 25.97 19.06 26.03 19.12 27.29 17.85"/>
  <polygon class="cls-1" points="22.79 17.85 24.06 19.12 24.12 19.06 22.85 17.79 24.12 16.53 24.06 16.47 22.79 17.74 21.53 16.47 21.47 16.53 22.74 17.79 21.47 19.06 21.53 19.12 22.79 17.85"/>
  <polygon class="cls-1" points="17.03 19.12 18.3 17.85 19.56 19.12 19.62 19.06 18.35 17.8 19.62 16.53 19.56 16.47 18.3 17.74 17.03 16.47 16.97 16.53 18.24 17.8 16.97 19.06 17.03 19.12"/>
  <polygon class="cls-1" points="12.48 19.06 12.53 19.12 13.8 17.85 15.07 19.12 15.12 19.06 13.86 17.8 15.12 16.53 15.07 16.47 13.8 17.74 12.53 16.47 12.48 16.53 13.74 17.8 12.48 19.06"/>
  <polygon class="cls-1" points="79.99 14.16 81.26 12.89 82.52 14.16 82.58 14.1 81.32 12.83 82.58 11.57 82.52 11.51 81.26 12.78 79.99 11.51 79.94 11.57 81.2 12.83 79.94 14.1 79.99 14.16"/>
  <polygon class="cls-1" points="76.76 12.89 78.03 14.16 78.08 14.1 76.82 12.83 78.08 11.57 78.03 11.51 76.76 12.78 75.5 11.51 75.44 11.57 76.7 12.83 75.44 14.1 75.5 14.16 76.76 12.89"/>
  <polygon class="cls-1" points="73.59 11.57 73.53 11.51 72.26 12.78 71 11.51 70.94 11.57 72.21 12.83 70.94 14.1 71 14.16 72.26 12.89 73.53 14.16 73.59 14.1 72.32 12.83 73.59 11.57"/>
  <polygon class="cls-1" points="67.77 12.89 69.03 14.16 69.09 14.1 67.82 12.83 69.09 11.57 69.03 11.51 67.77 12.78 66.5 11.51 66.44 11.57 67.71 12.83 66.44 14.1 66.5 14.16 67.77 12.89"/>
  <polygon class="cls-1" points="27.29 12.89 28.56 14.16 28.61 14.1 27.35 12.83 28.61 11.57 28.56 11.51 27.29 12.78 26.03 11.51 25.97 11.57 27.23 12.83 25.97 14.1 26.03 14.16 27.29 12.89"/>
  <polygon class="cls-1" points="22.79 12.89 24.06 14.16 24.12 14.1 22.85 12.83 24.12 11.57 24.06 11.51 22.79 12.78 21.53 11.51 21.47 11.57 22.74 12.83 21.47 14.1 21.53 14.16 22.79 12.89"/>
  <polygon class="cls-1" points="18.3 12.89 19.56 14.16 19.62 14.1 18.35 12.83 19.62 11.57 19.56 11.51 18.3 12.78 17.03 11.51 16.97 11.57 18.24 12.83 16.97 14.1 17.03 14.16 18.3 12.89"/>
  <polygon class="cls-1" points="12.48 14.1 12.53 14.16 13.8 12.89 15.07 14.16 15.12 14.1 13.86 12.83 15.12 11.57 15.07 11.51 13.8 12.78 12.53 11.51 12.48 11.57 13.74 12.83 12.48 14.1"/>
  <polygon class="cls-1" points="75.5 9.2 76.76 7.93 78.03 9.2 78.08 9.14 76.82 7.87 78.08 6.61 78.03 6.55 76.76 7.82 75.5 6.55 75.44 6.61 76.7 7.87 75.44 9.14 75.5 9.2"/>
  <polygon class="cls-1" points="73.59 6.61 73.53 6.55 72.26 7.82 71 6.55 70.94 6.61 72.21 7.87 70.94 9.14 71 9.2 72.26 7.93 73.53 9.2 73.59 9.14 72.32 7.87 73.59 6.61"/>
  <polygon class="cls-1" points="66.5 9.2 67.77 7.93 69.03 9.2 69.09 9.14 67.82 7.87 69.09 6.61 69.03 6.55 67.77 7.82 66.5 6.55 66.44 6.61 67.71 7.87 66.44 9.14 66.5 9.2"/>
  <polygon class="cls-1" points="64.59 6.61 64.53 6.55 63.27 7.82 62 6.55 61.95 6.61 63.21 7.87 61.95 9.14 62 9.2 63.27 7.93 64.54 9.2 64.59 9.14 63.33 7.87 64.59 6.61"/>
  <polygon class="cls-1" points="60.1 6.61 60.04 6.55 58.77 7.82 57.51 6.55 57.45 6.61 58.71 7.87 57.45 9.14 57.51 9.2 58.77 7.93 60.04 9.2 60.1 9.14 58.83 7.87 60.1 6.61"/>
  <polygon class="cls-1" points="55.6 6.61 55.54 6.55 54.28 7.82 53.01 6.55 52.95 6.61 54.22 7.87 52.95 9.14 53.01 9.2 54.28 7.93 55.54 9.2 55.6 9.14 54.33 7.87 55.6 6.61"/>
  <polygon class="cls-1" points="51.1 6.61 51.04 6.55 49.78 7.82 48.51 6.55 48.46 6.61 49.72 7.87 48.45 9.14 48.51 9.2 49.78 7.93 51.04 9.2 51.1 9.14 49.84 7.87 51.1 6.61"/>
  <polygon class="cls-1" points="46.6 6.61 46.55 6.55 45.28 7.82 44.01 6.55 43.96 6.61 45.22 7.87 43.96 9.14 44.01 9.2 45.28 7.93 46.55 9.2 46.6 9.14 45.34 7.87 46.6 6.61"/>
  <polygon class="cls-1" points="39.52 9.2 40.78 7.93 42.05 9.2 42.11 9.14 40.84 7.87 42.11 6.61 42.05 6.55 40.78 7.82 39.52 6.55 39.46 6.61 40.73 7.87 39.46 9.14 39.52 9.2"/>
  <polygon class="cls-1" points="37.55 6.55 36.29 7.82 35.02 6.55 34.96 6.61 36.23 7.87 34.96 9.14 35.02 9.2 36.29 7.93 37.55 9.2 37.61 9.14 36.34 7.87 37.61 6.61 37.55 6.55"/>
  <polygon class="cls-1" points="30.52 9.2 31.79 7.93 33.05 9.2 33.11 9.14 31.85 7.87 33.11 6.61 33.05 6.55 31.79 7.82 30.52 6.55 30.47 6.61 31.73 7.87 30.47 9.14 30.52 9.2"/>
  <polygon class="cls-1" points="26.03 9.2 27.29 7.93 28.56 9.2 28.61 9.14 27.35 7.87 28.61 6.61 28.56 6.55 27.29 7.82 26.03 6.55 25.97 6.61 27.23 7.87 25.97 9.14 26.03 9.2"/>
  <polygon class="cls-1" points="21.53 9.2 22.79 7.93 24.06 9.2 24.12 9.14 22.85 7.87 24.12 6.61 24.06 6.55 22.79 7.82 21.53 6.55 21.47 6.61 22.74 7.87 21.47 9.14 21.53 9.2"/>
  <polygon class="cls-1" points="17.03 9.2 18.3 7.93 19.56 9.2 19.62 9.14 18.35 7.87 19.62 6.61 19.56 6.55 18.3 7.82 17.03 6.55 16.97 6.61 18.24 7.87 16.97 9.14 17.03 9.2"/>
  <polygon class="cls-1" points="12.48 9.14 12.53 9.2 13.8 7.93 15.07 9.2 15.12 9.14 13.86 7.87 15.12 6.61 15.07 6.55 13.8 7.82 12.53 6.55 12.48 6.61 13.74 7.87 12.48 9.14"/>
  <polygon class="cls-1" points="8.04 9.2 9.3 7.93 10.57 9.2 10.63 9.14 9.36 7.87 10.63 6.61 10.57 6.55 9.3 7.82 8.04 6.55 7.98 6.61 9.24 7.87 7.98 9.14 8.04 9.2"/>
</svg>