<?xml version="1.0" encoding="UTF-8"?>
<svg id="Camada_1" data-name="Camada 1" xmlns="http://www.w3.org/2000/svg" viewBox="0 0 94.52 112">
  <defs>
    <style>
      .cls-1 {
        fill: #010101;
      }
    </style>
  </defs>
  <path class="cls-1" d="M74.67,104.22c-.08-.08-.08-.22,0-.31l.94-.94c.08-.08.08-.22,0-.31-.08-.08-.22-.08-.31,0l-.94.94c-.08.08-.22.08-.31,0l-.94-.94c-.08-.08-.22-.08-.31,0h0c-.08.08-.08.22,0,.31l.94.94c.08.08.08.22,0,.31l-.94.94c-.08.08-.08.22,0,.31.08.08.22.08.31,0l.94-.94c.08-.08.22-.08.31,0l.94.94c.08.08.22.08.31,0h0c.08-.08.08-.22,0-.31l-.94-.94Z"/>
  <path class="cls-1" d="M71.12,102.97c.08-.08.08-.22,0-.31-.08-.08-.22-.08-.31,0l-.94.94c-.08.08-.22.08-.31,0l-.94-.94c-.08-.08-.22-.08-.31,0h0c-.08.08-.08.22,0,.31l.94.94c.08.08.08.22,0,.31l-.94.94c-.08.08-.08.22,0,.31s.22.08.31,0l.94-.94c.08-.08.22-.08.31,0l.94.94c.08.08.22.08.31,0h0c.08-.08.08-.22,0-.31l-.94-.94c-.08-.08-.08-.22,0-.31l.94-.94Z"/>
  <path class="cls-1" d="M65.69,104.22c-.08-.08-.08-.22,0-.31l.94-.94c.08-.08.08-.22,0-.31-.08-.08-.22-.08-.31,0l-.94.94c-.08.08-.22.08-.31,0l-.94-.94c-.08-.08-.22-.08-.31,0h0c-.08.08-.08.22,0,.31l.94.94c.08.08.08.22,0,.31l-.94.94c-.08.08-.08.22,0,.31.08.08.22.08.31,0l.94-.94c.08-.08.22-.08.31,0l.94.94c.08.08.22.08.31,0h0c.08-.08.08-.22,0-.31l-.94-.94Z"/>
  <path class="cls-1" d="M61.2,104.22c-.08-.08-.08-.22,0-.31l.94-.94c.08-.08.08-.22,0-.31-.08-.08-.22-.08-.31,0l-.94.94c-.08.08-.22.08-.31,0l-.94-.94c-.08-.08-.22-.08-.31,0h0c-.08.08-.08.22,0,.31l.94.94c.08.08.08.22,0,.31l-.94.94c-.08.08-.08.22,0,.31.08.08.22.08.31,0l.94-.94c.08-.08.22-.08.31,0l.94.94c.08.08.22.08.31,0h0c.08-.08.08-.22,0-.31l-.94-.94Z"/>
  <path class="cls-1" d="M56.7,104.22c-.08-.08-.08-.22,0-.31l.94-.94c.08-.08.08-.22,0-.31-.08-.08-.22-.08-.31,0l-.94.94c-.08.08-.22.08-.31,0l-.94-.94c-.08-.08-.22-.08-.31,0h0c-.08.08-.08.22,0,.31l.94.94c.08.08.08.22,0,.31l-.94.94c-.08.08-.08.22,0,.31.08.08.22.08.31,0l.94-.94c.08-.08.22-.08.31,0l.94.94c.08.08.22.08.31,0h0c.08-.08.08-.22,0-.31l-.94-.94Z"/>
  <path class="cls-1" d="M52.21,104.22c-.08-.08-.08-.22,0-.31l.94-.94c.08-.08.08-.22,0-.31-.08-.08-.22-.08-.31,0l-.94.94c-.08.08-.22.08-.31,0l-.94-.94c-.08-.08-.22-.08-.31,0h0c-.08.08-.08.22,0,.31l.94.94c.08.08.08.22,0,.31l-.94.94c-.08.08-.08.22,0,.31.08.08.22.08.31,0l.94-.94c.08-.08.22-.08.31,0l.94.94c.08.08.22.08.31,0h0c.08-.08.08-.22,0-.31l-.94-.94Z"/>
  <path class="cls-1" d="M48.66,102.97c.08-.08.08-.22,0-.31-.08-.08-.22-.08-.31,0l-.94.94c-.08.08-.22.08-.31,0l-.94-.94c-.08-.08-.22-.08-.31,0h0c-.08.08-.08.22,0,.31l.94.94c.08.08.08.22,0,.31l-.94.94c-.08.08-.08.22,0,.31s.22.08.31,0l.94-.94c.08-.08.22-.08.31,0l.94.94c.08.08.22.08.31,0h0c.08-.08.08-.22,0-.31l-.94-.94c-.08-.08-.08-.22,0-.31l.94-.94Z"/>
  <path class="cls-1" d="M43.23,104.22c-.08-.08-.08-.22,0-.31l.94-.94c.08-.08.08-.22,0-.31-.08-.08-.22-.08-.31,0l-.94.94c-.08.08-.22.08-.31,0l-.94-.94c-.08-.08-.22-.08-.31,0h0c-.08.08-.08.22,0,.31l.94.94c.08.08.08.22,0,.31l-.94.94c-.08.08-.08.22,0,.31.08.08.22.08.31,0l.94-.94c.08-.08.22-.08.31,0l.94.94c.08.08.22.08.31,0h0c.08-.08.08-.22,0-.31l-.94-.94Z"/>
  <path class="cls-1" d="M38.74,104.22c-.08-.08-.08-.22,0-.31l.94-.94c.08-.08.08-.22,0-.31-.08-.08-.22-.08-.31,0l-.94.94c-.08.08-.22.08-.31,0l-.94-.94c-.08-.08-.22-.08-.31,0h0c-.08.08-.08.22,0,.31l.94.94c.08.08.08.22,0,.31l-.94.94c-.08.08-.08.22,0,.31.08.08.22.08.31,0l.94-.94c.08-.08.22-.08.31,0l.94.94c.08.08.22.08.31,0h0c.08-.08.08-.22,0-.31l-.94-.94Z"/>
  <path class="cls-1" d="M34.25,104.22c-.08-.08-.08-.22,0-.31l.94-.94c.08-.08.08-.22,0-.31-.08-.08-.22-.08-.31,0l-.94.94c-.08.08-.22.08-.31,0l-.94-.94c-.08-.08-.22-.08-.31,0h0c-.08.08-.08.22,0,.31l.94.94c.08.08.08.22,0,.31l-.94.94c-.08.08-.08.22,0,.31.08.08.22.08.31,0l.94-.94c.08-.08.22-.08.31,0l.94.94c.08.08.22.08.31,0h0c.08-.08.08-.22,0-.31l-.94-.94Z"/>
  <path class="cls-1" d="M29.75,104.22c-.08-.08-.08-.22,0-.31l.94-.94c.08-.08.08-.22,0-.31-.08-.08-.22-.08-.31,0l-.94.94c-.08.08-.22.08-.31,0l-.94-.94c-.08-.08-.22-.08-.31,0h0c-.08.08-.08.22,0,.31l.94.94c.08.08.08.22,0,.31l-.94.94c-.08.08-.08.22,0,.31.08.08.22.08.31,0l.94-.94c.08-.08.22-.08.31,0l.94.94c.08.08.22.08.31,0h0c.08-.08.08-.22,0-.31l-.94-.94Z"/>
  <path class="cls-1" d="M26.2,102.97c.08-.08.08-.22,0-.31-.08-.08-.22-.08-.31,0l-.94.94c-.08.08-.22.08-.31,0l-.94-.94c-.08-.08-.22-.08-.31,0h0c-.08.08-.08.22,0,.31l.94.94c.08.08.08.22,0,.31l-.94.94c-.08.08-.08.22,0,.31s.22.08.31,0l.94-.94c.08-.08.22-.08.31,0l.94.94c.08.08.22.08.31,0h0c.08-.08.08-.22,0-.31l-.94-.94c-.08-.08-.08-.22,0-.31l.94-.94Z"/>
  <path class="cls-1" d="M20.77,104.22c-.08-.08-.08-.22,0-.31l.94-.94c.08-.08.08-.22,0-.31-.08-.08-.22-.08-.31,0l-.94.94c-.08.08-.22.08-.31,0l-.94-.94c-.08-.08-.22-.08-.31,0h0c-.08.08-.08.22,0,.31l.94.94c.08.08.08.22,0,.31l-.94.94c-.08.08-.08.22,0,.31.08.08.22.08.31,0l.94-.94c.08-.08.22-.08.31,0l.94.94c.08.08.22.08.31,0h0c.08-.08.08-.22,0-.31l-.94-.94Z"/>
  <path class="cls-1" d="M16.28,104.22c-.08-.08-.08-.22,0-.31l.94-.94c.08-.08.08-.22,0-.31-.08-.08-.22-.08-.31,0l-.94.94c-.08.08-.22.08-.31,0l-.94-.94c-.08-.08-.22-.08-.31,0h0c-.08.08-.08.22,0,.31l.94.94c.08.08.08.22,0,.31l-.94.94c-.08.08-.08.22,0,.31.08.08.22.08.31,0l.94-.94c.08-.08.22-.08.31,0l.94.94c.08.08.22.08.31,0h0c.08-.08.08-.22,0-.31l-.94-.94Z"/>
  <path class="cls-1" d="M11.79,104.22c-.08-.08-.08-.22,0-.31l.94-.94c.08-.08.08-.22,0-.31-.08-.08-.22-.08-.31,0l-.94.94c-.08.08-.22.08-.31,0l-.94-.94c-.08-.08-.22-.08-.31,0h0c-.08.08-.08.22,0,.31l.94.94c.08.08.08.22,0,.31l-.94.94c-.08.08-.08.22,0,.31.08.08.22.08.31,0l.94-.94c.08-.08.22-.08.31,0l.94.94c.08.08.22.08.31,0h0c.08-.08.08-.22,0-.31l-.94-.94Z"/>
  <path class="cls-1" d="M7.3,104.22c-.08-.08-.08-.22,0-.31l.94-.94c.08-.08.08-.22,0-.31-.08-.08-.22-.08-.31,0l-.94.94c-.08.08-.22.08-.31,0l-.94-.94c-.08-.08-.22-.08-.31,0h0c-.08.08-.08.22,0,.31l.94.94c.08.08.08.22,0,.31l-.94.94c-.08.08-.08.22,0,.31.08.08.22.08.31,0l.94-.94c.08-.08.22-.08.31,0l.94.94c.08.08.22.08.31,0h0c.08-.08.08-.22,0-.31l-.94-.94Z"/>
  <path class="cls-1" d="M80.1,98.02c.08-.08.08-.22,0-.31-.08-.08-.22-.08-.31,0l-.94.94c-.08.08-.22.08-.31,0l-.94-.94c-.08-.08-.22-.08-.31,0h0c-.08.08-.08.22,0,.31l.94.94c.08.08.08.22,0,.31l-.94.94c-.08.08-.08.22,0,.31s.22.08.31,0l.94-.94c.08-.08.22-.08.31,0l.94.94c.08.08.22.08.31,0h0c.08-.08.08-.22,0-.31l-.94-.94c-.08-.08-.08-.22,0-.31l.94-.94Z"/>
  <path class="cls-1" d="M72.81,100.21c-.08.08-.08.22,0,.31s.22.08.31,0l.94-.94c.08-.08.22-.08.31,0l.94.94c.08.08.22.08.31,0h0c.08-.08.08-.22,0-.31l-.94-.94c-.08-.08-.08-.22,0-.31l.94-.94c.08-.08.08-.22,0-.31-.08-.08-.22-.08-.31,0l-.94.94c-.08.08-.22.08-.31,0l-.94-.94c-.08-.08-.22-.08-.31,0h0c-.08.08-.08.22,0,.31l.94.94c.08.08.08.22,0,.31l-.94.94Z"/>
  <path class="cls-1" d="M70.18,99.27c-.08-.08-.08-.22,0-.31l.94-.94c.08-.08.08-.22,0-.31-.08-.08-.22-.08-.31,0l-.94.94c-.08.08-.22.08-.31,0l-.94-.94c-.08-.08-.22-.08-.31,0h0c-.08.08-.08.22,0,.31l.94.94c.08.08.08.22,0,.31l-.94.94c-.08.08-.08.22,0,.31.08.08.22.08.31,0l.94-.94c.08-.08.22-.08.31,0l.94.94c.08.08.22.08.31,0h0c.08-.08.08-.22,0-.31l-.94-.94Z"/>
  <path class="cls-1" d="M63.82,100.21c-.08.08-.08.22,0,.31s.22.08.31,0l.94-.94c.08-.08.22-.08.31,0l.94.94c.08.08.22.08.31,0h0c.08-.08.08-.22,0-.31l-.94-.94c-.08-.08-.08-.22,0-.31l.94-.94c.08-.08.08-.22,0-.31-.08-.08-.22-.08-.31,0l-.94.94c-.08.08-.22.08-.31,0l-.94-.94c-.08-.08-.22-.08-.31,0h0c-.08.08-.08.22,0,.31l.94.94c.08.08.08.22,0,.31l-.94.94Z"/>
  <path class="cls-1" d="M25.26,99.27c-.08-.08-.08-.22,0-.31l.94-.94c.08-.08.08-.22,0-.31-.08-.08-.22-.08-.31,0l-.94.94c-.08.08-.22.08-.31,0l-.94-.94c-.08-.08-.22-.08-.31,0h0c-.08.08-.08.22,0,.31l.94.94c.08.08.08.22,0,.31l-.94.94c-.08.08-.08.22,0,.31.08.08.22.08.31,0l.94-.94c.08-.08.22-.08.31,0l.94.94c.08.08.22.08.31,0h0c.08-.08.08-.22,0-.31l-.94-.94Z"/>
  <path class="cls-1" d="M18.91,100.21c-.08.08-.08.22,0,.31s.22.08.31,0l.94-.94c.08-.08.22-.08.31,0l.94.94c.08.08.22.08.31,0h0c.08-.08.08-.22,0-.31l-.94-.94c-.08-.08-.08-.22,0-.31l.94-.94c.08-.08.08-.22,0-.31-.08-.08-.22-.08-.31,0l-.94.94c-.08.08-.22.08-.31,0l-.94-.94c-.08-.08-.22-.08-.31,0h0c-.08.08-.08.22,0,.31l.94.94c.08.08.08.22,0,.31l-.94.94Z"/>
  <path class="cls-1" d="M14.41,100.21c-.08.08-.08.22,0,.31s.22.08.31,0l.94-.94c.08-.08.22-.08.31,0l.94.94c.08.08.22.08.31,0h0c.08-.08.08-.22,0-.31l-.94-.94c-.08-.08-.08-.22,0-.31l.94-.94c.08-.08.08-.22,0-.31-.08-.08-.22-.08-.31,0l-.94.94c-.08.08-.22.08-.31,0l-.94-.94c-.08-.08-.22-.08-.31,0h0c-.08.08-.08.22,0,.31l.94.94c.08.08.08.22,0,.31l-.94.94Z"/>
  <path class="cls-1" d="M9.92,100.21c-.08.08-.08.22,0,.31s.22.08.31,0l.94-.94c.08-.08.22-.08.31,0l.94.94c.08.08.22.08.31,0h0c.08-.08.08-.22,0-.31l-.94-.94c-.08-.08-.08-.22,0-.31l.94-.94c.08-.08.08-.22,0-.31-.08-.08-.22-.08-.31,0l-.94.94c-.08.08-.22.08-.31,0l-.94-.94c-.08-.08-.22-.08-.31,0h0c-.08.08-.08.22,0,.31l.94.94c.08.08.08.22,0,.31l-.94.94Z"/>
  <path class="cls-1" d="M83.65,94.31c-.08-.08-.08-.22,0-.31l.94-.94c.08-.08.08-.22,0-.31-.08-.08-.22-.08-.31,0l-.94.94c-.08.08-.22.08-.31,0l-.94-.94c-.08-.08-.22-.08-.31,0h0c-.08.08-.08.22,0,.31l.94.94c.08.08.08.22,0,.31l-.94.94c-.08.08-.08.22,0,.31.08.08.22.08.31,0l.94-.94c.08-.08.22-.08.31,0l.94.94c.08.08.22.08.31,0h0c.08-.08.08-.22,0-.31l-.94-.94Z"/>
  <path class="cls-1" d="M79.16,94.31c-.08-.08-.08-.22,0-.31l.94-.94c.08-.08.08-.22,0-.31-.08-.08-.22-.08-.31,0l-.94.94c-.08.08-.22.08-.31,0l-.94-.94c-.08-.08-.22-.08-.31,0h0c-.08.08-.08.22,0,.31l.94.94c.08.08.08.22,0,.31l-.94.94c-.08.08-.08.22,0,.31.08.08.22.08.31,0l.94-.94c.08-.08.22-.08.31,0l.94.94c.08.08.22.08.31,0h0c.08-.08.08-.22,0-.31l-.94-.94Z"/>
  <path class="cls-1" d="M74.67,94.31c-.08-.08-.08-.22,0-.31l.94-.94c.08-.08.08-.22,0-.31-.08-.08-.22-.08-.31,0l-.94.94c-.08.08-.22.08-.31,0l-.94-.94c-.08-.08-.22-.08-.31,0h0c-.08.08-.08.22,0,.31l.94.94c.08.08.08.22,0,.31l-.94.94c-.08.08-.08.22,0,.31.08.08.22.08.31,0l.94-.94c.08-.08.22-.08.31,0l.94.94c.08.08.22.08.31,0h0c.08-.08.08-.22,0-.31l-.94-.94Z"/>
  <path class="cls-1" d="M24.34,94c.08.08.08.22,0,.31l-.94.94c-.08.08-.08.22,0,.31s.22.08.31,0l.94-.94c.08-.08.22-.08.31,0l.94.94c.08.08.22.08.31,0h0c.08-.08.08-.22,0-.31l-.94-.94c-.08-.08-.08-.22,0-.31l.94-.94c.08-.08.08-.22,0-.31-.08-.08-.22-.08-.31,0l-.94.94c-.08.08-.22.08-.31,0l-.94-.94c-.08-.08-.22-.08-.31,0h0c-.08.08-.08.22,0,.31l.94.94Z"/>
  <path class="cls-1" d="M20.77,94.31c-.08-.08-.08-.22,0-.31l.94-.94c.08-.08.08-.22,0-.31-.08-.08-.22-.08-.31,0l-.94.94c-.08.08-.22.08-.31,0l-.94-.94c-.08-.08-.22-.08-.31,0h0c-.08.08-.08.22,0,.31l.94.94c.08.08.08.22,0,.31l-.94.94c-.08.08-.08.22,0,.31.08.08.22.08.31,0l.94-.94c.08-.08.22-.08.31,0l.94.94c.08.08.22.08.31,0h0c.08-.08.08-.22,0-.31l-.94-.94Z"/>
  <path class="cls-1" d="M16.28,94.31c-.08-.08-.08-.22,0-.31l.94-.94c.08-.08.08-.22,0-.31-.08-.08-.22-.08-.31,0l-.94.94c-.08.08-.22.08-.31,0l-.94-.94c-.08-.08-.22-.08-.31,0h0c-.08.08-.08.22,0,.31l.94.94c.08.08.08.22,0,.31l-.94.94c-.08.08-.08.22,0,.31.08.08.22.08.31,0l.94-.94c.08-.08.22-.08.31,0l.94.94c.08.08.22.08.31,0h0c.08-.08.08-.22,0-.31l-.94-.94Z"/>
  <path class="cls-1" d="M11.79,94.31c-.08-.08-.08-.22,0-.31l.94-.94c.08-.08.08-.22,0-.31-.08-.08-.22-.08-.31,0l-.94.94c-.08.08-.22.08-.31,0l-.94-.94c-.08-.08-.22-.08-.31,0h0c-.08.08-.08.22,0,.31l.94.94c.08.08.08.22,0,.31l-.94.94c-.08.08-.08.22,0,.31.08.08.22.08.31,0l.94-.94c.08-.08.22-.08.31,0l.94.94c.08.08.22.08.31,0h0c.08-.08.08-.22,0-.31l-.94-.94Z"/>
  <path class="cls-1" d="M89.09,88.11c.08-.08.08-.22,0-.31-.08-.08-.22-.08-.31,0l-.94.94c-.08.08-.22.08-.31,0l-.94-.94c-.08-.08-.22-.08-.31,0h0c-.08.08-.08.22,0,.31l.94.94c.08.08.08.22,0,.31l-.94.94c-.08.08-.08.22,0,.31s.22.08.31,0l.94-.94c.08-.08.22-.08.31,0l.94.94c.08.08.22.08.31,0h0c.08-.08.08-.22,0-.31l-.94-.94c-.08-.08-.08-.22,0-.31l.94-.94Z"/>
  <path class="cls-1" d="M81.79,90.3c-.08.08-.08.22,0,.31s.22.08.31,0l.94-.94c.08-.08.22-.08.31,0l.94.94c.08.08.22.08.31,0h0c.08-.08.08-.22,0-.31l-.94-.94c-.08-.08-.08-.22,0-.31l.94-.94c.08-.08.08-.22,0-.31-.08-.08-.22-.08-.31,0l-.94.94c-.08.08-.22.08-.31,0l-.94-.94c-.08-.08-.22-.08-.31,0h0c-.08.08-.08.22,0,.31l.94.94c.08.08.08.22,0,.31l-.94.94Z"/>
  <path class="cls-1" d="M78.24,89.05c.08.08.08.22,0,.31l-.94.94c-.08.08-.08.22,0,.31s.22.08.31,0l.94-.94c.08-.08.22-.08.31,0l.94.94c.08.08.22.08.31,0h0c.08-.08.08-.22,0-.31l-.94-.94c-.08-.08-.08-.22,0-.31l.94-.94c.08-.08.08-.22,0-.31-.08-.08-.22-.08-.31,0l-.94.94c-.08.08-.22.08-.31,0l-.94-.94c-.08-.08-.22-.08-.31,0h0c-.08.08-.08.22,0,.31l.94.94Z"/>
  <path class="cls-1" d="M73.75,89.05c.08.08.08.22,0,.31l-.94.94c-.08.08-.08.22,0,.31s.22.08.31,0l.94-.94c.08-.08.22-.08.31,0l.94.94c.08.08.22.08.31,0h0c.08-.08.08-.22,0-.31l-.94-.94c-.08-.08-.08-.22,0-.31l.94-.94c.08-.08.08-.22,0-.31-.08-.08-.22-.08-.31,0l-.94.94c-.08.08-.22.08-.31,0l-.94-.94c-.08-.08-.22-.08-.31,0h0c-.08.08-.08.22,0,.31l.94.94Z"/>
  <path class="cls-1" d="M25.26,89.36c-.08-.08-.08-.22,0-.31l.94-.94c.08-.08.08-.22,0-.31-.08-.08-.22-.08-.31,0l-.94.94c-.08.08-.22.08-.31,0l-.94-.94c-.08-.08-.22-.08-.31,0h0c-.08.08-.08.22,0,.31l.94.94c.08.08.08.22,0,.31l-.94.94c-.08.08-.08.22,0,.31.08.08.22.08.31,0l.94-.94c.08-.08.22-.08.31,0l.94.94c.08.08.22.08.31,0h0c.08-.08.08-.22,0-.31l-.94-.94Z"/>
  <path class="cls-1" d="M19.85,89.05c.08.08.08.22,0,.31l-.94.94c-.08.08-.08.22,0,.31s.22.08.31,0l.94-.94c.08-.08.22-.08.31,0l.94.94c.08.08.22.08.31,0h0c.08-.08.08-.22,0-.31l-.94-.94c-.08-.08-.08-.22,0-.31l.94-.94c.08-.08.08-.22,0-.31-.08-.08-.22-.08-.31,0l-.94.94c-.08.08-.22.08-.31,0l-.94-.94c-.08-.08-.22-.08-.31,0h0c-.08.08-.08.22,0,.31l.94.94Z"/>
  <path class="cls-1" d="M15.36,89.05c.08.08.08.22,0,.31l-.94.94c-.08.08-.08.22,0,.31s.22.08.31,0l.94-.94c.08-.08.22-.08.31,0l.94.94c.08.08.22.08.31,0h0c.08-.08.08-.22,0-.31l-.94-.94c-.08-.08-.08-.22,0-.31l.94-.94c.08-.08.08-.22,0-.31-.08-.08-.22-.08-.31,0l-.94.94c-.08.08-.22.08-.31,0l-.94-.94c-.08-.08-.22-.08-.31,0h0c-.08.08-.08.22,0,.31l.94.94Z"/>
  <path class="cls-1" d="M10.86,89.05c.08.08.08.22,0,.31l-.94.94c-.08.08-.08.22,0,.31s.22.08.31,0l.94-.94c.08-.08.22-.08.31,0l.94.94c.08.08.22.08.31,0h0c.08-.08.08-.22,0-.31l-.94-.94c-.08-.08-.08-.22,0-.31l.94-.94c.08-.08.08-.22,0-.31-.08-.08-.22-.08-.31,0l-.94.94c-.08.08-.22.08-.31,0l-.94-.94c-.08-.08-.22-.08-.31,0h0c-.08.08-.08.22,0,.31l.94.94Z"/>
  <path class="cls-1" d="M89.09,83.15c.08-.08.08-.22,0-.31-.08-.08-.22-.08-.31,0l-.94.94c-.08.08-.22.08-.31,0l-.94-.94c-.08-.08-.22-.08-.31,0h0c-.08.08-.08.22,0,.31l.94.94c.08.08.08.22,0,.31l-.94.94c-.08.08-.08.22,0,.31s.22.08.31,0l.94-.94c.08-.08.22-.08.31,0l.94.94c.08.08.22.08.31,0h0c.08-.08.08-.22,0-.31l-.94-.94c-.08-.08-.08-.22,0-.31l.94-.94Z"/>
  <path class="cls-1" d="M82.73,84.1c.08.08.08.22,0,.31l-.94.94c-.08.08-.08.22,0,.31s.22.08.31,0l.94-.94c.08-.08.22-.08.31,0l.94.94c.08.08.22.08.31,0h0c.08-.08.08-.22,0-.31l-.94-.94c-.08-.08-.08-.22,0-.31l.94-.94c.08-.08.08-.22,0-.31-.08-.08-.22-.08-.31,0l-.94.94c-.08.08-.22.08-.31,0l-.94-.94c-.08-.08-.22-.08-.31,0h0c-.08.08-.08.22,0,.31l.94.94Z"/>
  <path class="cls-1" d="M78.24,84.1c.08.08.08.22,0,.31l-.94.94c-.08.08-.08.22,0,.31s.22.08.31,0l.94-.94c.08-.08.22-.08.31,0l.94.94c.08.08.22.08.31,0h0c.08-.08.08-.22,0-.31l-.94-.94c-.08-.08-.08-.22,0-.31l.94-.94c.08-.08.08-.22,0-.31-.08-.08-.22-.08-.31,0l-.94.94c-.08.08-.22.08-.31,0l-.94-.94c-.08-.08-.22-.08-.31,0h0c-.08.08-.08.22,0,.31l.94.94Z"/>
  <path class="cls-1" d="M25.26,84.4c-.08-.08-.08-.22,0-.31l.94-.94c.08-.08.08-.22,0-.31-.08-.08-.22-.08-.31,0l-.94.94c-.08.08-.22.08-.31,0l-.94-.94c-.08-.08-.22-.08-.31,0h0c-.08.08-.08.22,0,.31l.94.94c.08.08.08.22,0,.31l-.94.94c-.08.08-.08.22,0,.31.08.08.22.08.31,0l.94-.94c.08-.08.22-.08.31,0l.94.94c.08.08.22.08.31,0h0c.08-.08.08-.22,0-.31l-.94-.94Z"/>
  <path class="cls-1" d="M19.85,84.1c.08.08.08.22,0,.31l-.94.94c-.08.08-.08.22,0,.31s.22.08.31,0l.94-.94c.08-.08.22-.08.31,0l.94.94c.08.08.22.08.31,0h0c.08-.08.08-.22,0-.31l-.94-.94c-.08-.08-.08-.22,0-.31l.94-.94c.08-.08.08-.22,0-.31-.08-.08-.22-.08-.31,0l-.94.94c-.08.08-.22.08-.31,0l-.94-.94c-.08-.08-.22-.08-.31,0h0c-.08.08-.08.22,0,.31l.94.94Z"/>
  <path class="cls-1" d="M15.36,84.1c.08.08.08.22,0,.31l-.94.94c-.08.08-.08.22,0,.31s.22.08.31,0l.94-.94c.08-.08.22-.08.31,0l.94.94c.08.08.22.08.31,0h0c.08-.08.08-.22,0-.31l-.94-.94c-.08-.08-.08-.22,0-.31l.94-.94c.08-.08.08-.22,0-.31-.08-.08-.22-.08-.31,0l-.94.94c-.08.08-.22.08-.31,0l-.94-.94c-.08-.08-.22-.08-.31,0h0c-.08.08-.08.22,0,.31l.94.94Z"/>
  <path class="cls-1" d="M10.86,84.1c.08.08.08.22,0,.31l-.94.94c-.08.08-.08.22,0,.31s.22.08.31,0l.94-.94c.08-.08.22-.08.31,0l.94.94c.08.08.22.08.31,0h0c.08-.08.08-.22,0-.31l-.94-.94c-.08-.08-.08-.22,0-.31l.94-.94c.08-.08.08-.22,0-.31-.08-.08-.22-.08-.31,0l-.94.94c-.08.08-.22.08-.31,0l-.94-.94c-.08-.08-.22-.08-.31,0h0c-.08.08-.08.22,0,.31l.94.94Z"/>
  <path class="cls-1" d="M88.15,79.45c-.08-.08-.08-.22,0-.31l.94-.94c.08-.08.08-.22,0-.31-.08-.08-.22-.08-.31,0l-.94.94c-.08.08-.22.08-.31,0l-.94-.94c-.08-.08-.22-.08-.31,0h0c-.08.08-.08.22,0,.31l.94.94c.08.08.08.22,0,.31l-.94.94c-.08.08-.08.22,0,.31.08.08.22.08.31,0l.94-.94c.08-.08.22-.08.31,0l.94.94c.08.08.22.08.31,0h0c.08-.08.08-.22,0-.31l-.94-.94Z"/>
  <path class="cls-1" d="M83.65,79.45c-.08-.08-.08-.22,0-.31l.94-.94c.08-.08.08-.22,0-.31-.08-.08-.22-.08-.31,0l-.94.94c-.08.08-.22.08-.31,0l-.94-.94c-.08-.08-.22-.08-.31,0h0c-.08.08-.08.22,0,.31l.94.94c.08.08.08.22,0,.31l-.94.94c-.08.08-.08.22,0,.31.08.08.22.08.31,0l.94-.94c.08-.08.22-.08.31,0l.94.94c.08.08.22.08.31,0h0c.08-.08.08-.22,0-.31l-.94-.94Z"/>
  <path class="cls-1" d="M79.16,79.45c-.08-.08-.08-.22,0-.31l.94-.94c.08-.08.08-.22,0-.31-.08-.08-.22-.08-.31,0l-.94.94c-.08.08-.22.08-.31,0l-.94-.94c-.08-.08-.22-.08-.31,0h0c-.08.08-.08.22,0,.31l.94.94c.08.08.08.22,0,.31l-.94.94c-.08.08-.08.22,0,.31.08.08.22.08.31,0l.94-.94c.08-.08.22-.08.31,0l.94.94c.08.08.22.08.31,0h0c.08-.08.08-.22,0-.31l-.94-.94Z"/>
  <path class="cls-1" d="M24.34,79.14c.08.08.08.22,0,.31l-.94.94c-.08.08-.08.22,0,.31s.22.08.31,0l.94-.94c.08-.08.22-.08.31,0l.94.94c.08.08.22.08.31,0h0c.08-.08.08-.22,0-.31l-.94-.94c-.08-.08-.08-.22,0-.31l.94-.94c.08-.08.08-.22,0-.31-.08-.08-.22-.08-.31,0l-.94.94c-.08.08-.22.08-.31,0l-.94-.94c-.08-.08-.22-.08-.31,0h0c-.08.08-.08.22,0,.31l.94.94Z"/>
  <path class="cls-1" d="M20.77,79.45c-.08-.08-.08-.22,0-.31l.94-.94c.08-.08.08-.22,0-.31-.08-.08-.22-.08-.31,0l-.94.94c-.08.08-.22.08-.31,0l-.94-.94c-.08-.08-.22-.08-.31,0h0c-.08.08-.08.22,0,.31l.94.94c.08.08.08.22,0,.31l-.94.94c-.08.08-.08.22,0,.31.08.08.22.08.31,0l.94-.94c.08-.08.22-.08.31,0l.94.94c.08.08.22.08.31,0h0c.08-.08.08-.22,0-.31l-.94-.94Z"/>
  <path class="cls-1" d="M16.28,79.45c-.08-.08-.08-.22,0-.31l.94-.94c.08-.08.08-.22,0-.31-.08-.08-.22-.08-.31,0l-.94.94c-.08.08-.22.08-.31,0l-.94-.94c-.08-.08-.22-.08-.31,0h0c-.08.08-.08.22,0,.31l.94.94c.08.08.08.22,0,.31l-.94.94c-.08.08-.08.22,0,.31.08.08.22.08.31,0l.94-.94c.08-.08.22-.08.31,0l.94.94c.08.08.22.08.31,0h0c.08-.08.08-.22,0-.31l-.94-.94Z"/>
  <path class="cls-1" d="M11.79,79.45c-.08-.08-.08-.22,0-.31l.94-.94c.08-.08.08-.22,0-.31-.08-.08-.22-.08-.31,0l-.94.94c-.08.08-.22.08-.31,0l-.94-.94c-.08-.08-.22-.08-.31,0h0c-.08.08-.08.22,0,.31l.94.94c.08.08.08.22,0,.31l-.94.94c-.08.08-.08.22,0,.31.08.08.22.08.31,0l.94-.94c.08-.08.22-.08.31,0l.94.94c.08.08.22.08.31,0h0c.08-.08.08-.22,0-.31l-.94-.94Z"/>
  <path class="cls-1" d="M87.22,74.19c.08.08.08.22,0,.31l-.94.94c-.08.08-.08.22,0,.31s.22.08.31,0l.94-.94c.08-.08.22-.08.31,0l.94.94c.08.08.22.08.31,0h0c.08-.08.08-.22,0-.31l-.94-.94c-.08-.08-.08-.22,0-.31l.94-.94c.08-.08.08-.22,0-.31-.08-.08-.22-.08-.31,0l-.94.94c-.08.08-.22.08-.31,0l-.94-.94c-.08-.08-.22-.08-.31,0h0c-.08.08-.08.22,0,.31l.94.94Z"/>
  <path class="cls-1" d="M82.73,74.19c.08.08.08.22,0,.31l-.94.94c-.08.08-.08.22,0,.31s.22.08.31,0l.94-.94c.08-.08.22-.08.31,0l.94.94c.08.08.22.08.31,0h0c.08-.08.08-.22,0-.31l-.94-.94c-.08-.08-.08-.22,0-.31l.94-.94c.08-.08.08-.22,0-.31-.08-.08-.22-.08-.31,0l-.94.94c-.08.08-.22.08-.31,0l-.94-.94c-.08-.08-.22-.08-.31,0h0c-.08.08-.08.22,0,.31l.94.94Z"/>
  <path class="cls-1" d="M78.24,74.19c.08.08.08.22,0,.31l-.94.94c-.08.08-.08.22,0,.31s.22.08.31,0l.94-.94c.08-.08.22-.08.31,0l.94.94c.08.08.22.08.31,0h0c.08-.08.08-.22,0-.31l-.94-.94c-.08-.08-.08-.22,0-.31l.94-.94c.08-.08.08-.22,0-.31-.08-.08-.22-.08-.31,0l-.94.94c-.08.08-.22.08-.31,0l-.94-.94c-.08-.08-.22-.08-.31,0h0c-.08.08-.08.22,0,.31l.94.94Z"/>
  <path class="cls-1" d="M73.75,74.19c.08.08.08.22,0,.31l-.94.94c-.08.08-.08.22,0,.31s.22.08.31,0l.94-.94c.08-.08.22-.08.31,0l.94.94c.08.08.22.08.31,0h0c.08-.08.08-.22,0-.31l-.94-.94c-.08-.08-.08-.22,0-.31l.94-.94c.08-.08.08-.22,0-.31-.08-.08-.22-.08-.31,0l-.94.94c-.08.08-.22.08-.31,0l-.94-.94c-.08-.08-.22-.08-.31,0h0c-.08.08-.08.22,0,.31l.94.94Z"/>
  <path class="cls-1" d="M25.26,74.49c-.08-.08-.08-.22,0-.31l.94-.94c.08-.08.08-.22,0-.31-.08-.08-.22-.08-.31,0l-.94.94c-.08.08-.22.08-.31,0l-.94-.94c-.08-.08-.22-.08-.31,0h0c-.08.08-.08.22,0,.31l.94.94c.08.08.08.22,0,.31l-.94.94c-.08.08-.08.22,0,.31.08.08.22.08.31,0l.94-.94c.08-.08.22-.08.31,0l.94.94c.08.08.22.08.31,0h0c.08-.08.08-.22,0-.31l-.94-.94Z"/>
  <path class="cls-1" d="M19.85,74.19c.08.08.08.22,0,.31l-.94.94c-.08.08-.08.22,0,.31s.22.08.31,0l.94-.94c.08-.08.22-.08.31,0l.94.94c.08.08.22.08.31,0h0c.08-.08.08-.22,0-.31l-.94-.94c-.08-.08-.08-.22,0-.31l.94-.94c.08-.08.08-.22,0-.31-.08-.08-.22-.08-.31,0l-.94.94c-.08.08-.22.08-.31,0l-.94-.94c-.08-.08-.22-.08-.31,0h0c-.08.08-.08.22,0,.31l.94.94Z"/>
  <path class="cls-1" d="M15.36,74.19c.08.08.08.22,0,.31l-.94.94c-.08.08-.08.22,0,.31s.22.08.31,0l.94-.94c.08-.08.22-.08.31,0l.94.94c.08.08.22.08.31,0h0c.08-.08.08-.22,0-.31l-.94-.94c-.08-.08-.08-.22,0-.31l.94-.94c.08-.08.08-.22,0-.31-.08-.08-.22-.08-.31,0l-.94.94c-.08.08-.22.08-.31,0l-.94-.94c-.08-.08-.22-.08-.31,0h0c-.08.08-.08.22,0,.31l.94.94Z"/>
  <path class="cls-1" d="M10.86,74.19c.08.08.08.22,0,.31l-.94.94c-.08.08-.08.22,0,.31s.22.08.31,0l.94-.94c.08-.08.22-.08.31,0l.94.94c.08.08.22.08.31,0h0c.08-.08.08-.22,0-.31l-.94-.94c-.08-.08-.08-.22,0-.31l.94-.94c.08-.08.08-.22,0-.31-.08-.08-.22-.08-.31,0l-.94.94c-.08.08-.22.08-.31,0l-.94-.94c-.08-.08-.22-.08-.31,0h0c-.08.08-.08.22,0,.31l.94.94Z"/>
  <path class="cls-1" d="M83.65,69.54c-.08-.08-.08-.22,0-.31l.94-.94c.08-.08.08-.22,0-.31-.08-.08-.22-.08-.31,0l-.94.94c-.08.08-.22.08-.31,0l-.94-.94c-.08-.08-.22-.08-.31,0h0c-.08.08-.08.22,0,.31l.94.94c.08.08.08.22,0,.31l-.94.94c-.08.08-.08.22,0,.31.08.08.22.08.31,0l.94-.94c.08-.08.22-.08.31,0l.94.94c.08.08.22.08.31,0h0c.08-.08.08-.22,0-.31l-.94-.94Z"/>
  <path class="cls-1" d="M79.16,69.54c-.08-.08-.08-.22,0-.31l.94-.94c.08-.08.08-.22,0-.31-.08-.08-.22-.08-.31,0l-.94.94c-.08.08-.22.08-.31,0l-.94-.94c-.08-.08-.22-.08-.31,0h0c-.08.08-.08.22,0,.31l.94.94c.08.08.08.22,0,.31l-.94.94c-.08.08-.08.22,0,.31.08.08.22.08.31,0l.94-.94c.08-.08.22-.08.31,0l.94.94c.08.08.22.08.31,0h0c.08-.08.08-.22,0-.31l-.94-.94Z"/>
  <path class="cls-1" d="M74.67,69.54c-.08-.08-.08-.22,0-.31l.94-.94c.08-.08.08-.22,0-.31-.08-.08-.22-.08-.31,0l-.94.94c-.08.08-.22.08-.31,0l-.94-.94c-.08-.08-.22-.08-.31,0h0c-.08.08-.08.22,0,.31l.94.94c.08.08.08.22,0,.31l-.94.94c-.08.08-.08.22,0,.31.08.08.22.08.31,0l.94-.94c.08-.08.22-.08.31,0l.94.94c.08.08.22.08.31,0h0c.08-.08.08-.22,0-.31l-.94-.94Z"/>
  <path class="cls-1" d="M24.34,69.23c.08.08.08.22,0,.31l-.94.94c-.08.08-.08.22,0,.31s.22.08.31,0l.94-.94c.08-.08.22-.08.31,0l.94.94c.08.08.22.08.31,0h0c.08-.08.08-.22,0-.31l-.94-.94c-.08-.08-.08-.22,0-.31l.94-.94c.08-.08.08-.22,0-.31-.08-.08-.22-.08-.31,0l-.94.94c-.08.08-.22.08-.31,0l-.94-.94c-.08-.08-.22-.08-.31,0h0c-.08.08-.08.22,0,.31l.94.94Z"/>
  <path class="cls-1" d="M20.77,69.54c-.08-.08-.08-.22,0-.31l.94-.94c.08-.08.08-.22,0-.31-.08-.08-.22-.08-.31,0l-.94.94c-.08.08-.22.08-.31,0l-.94-.94c-.08-.08-.22-.08-.31,0h0c-.08.08-.08.22,0,.31l.94.94c.08.08.08.22,0,.31l-.94.94c-.08.08-.08.22,0,.31.08.08.22.08.31,0l.94-.94c.08-.08.22-.08.31,0l.94.94c.08.08.22.08.31,0h0c.08-.08.08-.22,0-.31l-.94-.94Z"/>
  <path class="cls-1" d="M16.28,69.54c-.08-.08-.08-.22,0-.31l.94-.94c.08-.08.08-.22,0-.31-.08-.08-.22-.08-.31,0l-.94.94c-.08.08-.22.08-.31,0l-.94-.94c-.08-.08-.22-.08-.31,0h0c-.08.08-.08.22,0,.31l.94.94c.08.08.08.22,0,.31l-.94.94c-.08.08-.08.22,0,.31.08.08.22.08.31,0l.94-.94c.08-.08.22-.08.31,0l.94.94c.08.08.22.08.31,0h0c.08-.08.08-.22,0-.31l-.94-.94Z"/>
  <path class="cls-1" d="M11.79,69.54c-.08-.08-.08-.22,0-.31l.94-.94c.08-.08.08-.22,0-.31-.08-.08-.22-.08-.31,0l-.94.94c-.08.08-.22.08-.31,0l-.94-.94c-.08-.08-.22-.08-.31,0h0c-.08.08-.08.22,0,.31l.94.94c.08.08.08.22,0,.31l-.94.94c-.08.08-.08.22,0,.31.08.08.22.08.31,0l.94-.94c.08-.08.22-.08.31,0l.94.94c.08.08.22.08.31,0h0c.08-.08.08-.22,0-.31l-.94-.94Z"/>
  <path class="cls-1" d="M78.24,64.28c.08.08.08.22,0,.31l-.94.94c-.08.08-.08.22,0,.31s.22.08.31,0l.94-.94c.08-.08.22-.08.31,0l.94.94c.08.08.22.08.31,0h0c.08-.08.08-.22,0-.31l-.94-.94c-.08-.08-.08-.22,0-.31l.94-.94c.08-.08.08-.22,0-.31-.08-.08-.22-.08-.31,0l-.94.94c-.08.08-.22.08-.31,0l-.94-.94c-.08-.08-.22-.08-.31,0h0c-.08.08-.08.22,0,.31l.94.94Z"/>
  <path class="cls-1" d="M73.75,64.28c.08.08.08.22,0,.31l-.94.94c-.08.08-.08.22,0,.31s.22.08.31,0l.94-.94c.08-.08.22-.08.31,0l.94.94c.08.08.22.08.31,0h0c.08-.08.08-.22,0-.31l-.94-.94c-.08-.08-.08-.22,0-.31l.94-.94c.08-.08.08-.22,0-.31-.08-.08-.22-.08-.31,0l-.94.94c-.08.08-.22.08-.31,0l-.94-.94c-.08-.08-.22-.08-.31,0h0c-.08.08-.08.22,0,.31l.94.94Z"/>
  <path class="cls-1" d="M70.18,64.59c-.08-.08-.08-.22,0-.31l.94-.94c.08-.08.08-.22,0-.31-.08-.08-.22-.08-.31,0l-.94.94c-.08.08-.22.08-.31,0l-.94-.94c-.08-.08-.22-.08-.31,0h0c-.08.08-.08.22,0,.31l.94.94c.08.08.08.22,0,.31l-.94.94c-.08.08-.08.22,0,.31.08.08.22.08.31,0l.94-.94c.08-.08.22-.08.31,0l.94.94c.08.08.22.08.31,0h0c.08-.08.08-.22,0-.31l-.94-.94Z"/>
  <path class="cls-1" d="M64.76,64.28c.08.08.08.22,0,.31l-.94.94c-.08.08-.08.22,0,.31s.22.08.31,0l.94-.94c.08-.08.22-.08.31,0l.94.94c.08.08.22.08.31,0h0c.08-.08.08-.22,0-.31l-.94-.94c-.08-.08-.08-.22,0-.31l.94-.94c.08-.08.08-.22,0-.31-.08-.08-.22-.08-.31,0l-.94.94c-.08.08-.22.08-.31,0l-.94-.94c-.08-.08-.22-.08-.31,0h0c-.08.08-.08.22,0,.31l.94.94Z"/>
  <path class="cls-1" d="M25.26,64.59c-.08-.08-.08-.22,0-.31l.94-.94c.08-.08.08-.22,0-.31-.08-.08-.22-.08-.31,0l-.94.94c-.08.08-.22.08-.31,0l-.94-.94c-.08-.08-.22-.08-.31,0h0c-.08.08-.08.22,0,.31l.94.94c.08.08.08.22,0,.31l-.94.94c-.08.08-.08.22,0,.31.08.08.22.08.31,0l.94-.94c.08-.08.22-.08.31,0l.94.94c.08.08.22.08.31,0h0c.08-.08.08-.22,0-.31l-.94-.94Z"/>
  <path class="cls-1" d="M19.85,64.28c.08.08.08.22,0,.31l-.94.94c-.08.08-.08.22,0,.31s.22.08.31,0l.94-.94c.08-.08.22-.08.31,0l.94.94c.08.08.22.08.31,0h0c.08-.08.08-.22,0-.31l-.94-.94c-.08-.08-.08-.22,0-.31l.94-.94c.08-.08.08-.22,0-.31-.08-.08-.22-.08-.31,0l-.94.94c-.08.08-.22.08-.31,0l-.94-.94c-.08-.08-.22-.08-.31,0h0c-.08.08-.08.22,0,.31l.94.94Z"/>
  <path class="cls-1" d="M15.36,64.28c.08.08.08.22,0,.31l-.94.94c-.08.08-.08.22,0,.31s.22.08.31,0l.94-.94c.08-.08.22-.08.31,0l.94.94c.08.08.22.08.31,0h0c.08-.08.08-.22,0-.31l-.94-.94c-.08-.08-.08-.22,0-.31l.94-.94c.08-.08.08-.22,0-.31-.08-.08-.22-.08-.31,0l-.94.94c-.08.08-.22.08-.31,0l-.94-.94c-.08-.08-.22-.08-.31,0h0c-.08.08-.08.22,0,.31l.94.94Z"/>
  <path class="cls-1" d="M10.86,64.28c.08.08.08.22,0,.31l-.94.94c-.08.08-.08.22,0,.31s.22.08.31,0l.94-.94c.08-.08.22-.08.31,0l.94.94c.08.08.22.08.31,0h0c.08-.08.08-.22,0-.31l-.94-.94c-.08-.08-.08-.22,0-.31l.94-.94c.08-.08.08-.22,0-.31-.08-.08-.22-.08-.31,0l-.94.94c-.08.08-.22.08-.31,0l-.94-.94c-.08-.08-.22-.08-.31,0h0c-.08.08-.08.22,0,.31l.94.94Z"/>
  <path class="cls-1" d="M64.76,59.32c.08.08.08.22,0,.31l-.94.94c-.08.08-.08.22,0,.31s.22.08.31,0l.94-.94c.08-.08.22-.08.31,0l.94.94c.08.08.22.08.31,0h0c.08-.08.08-.22,0-.31l-.94-.94c-.08-.08-.08-.22,0-.31l.94-.94c.08-.08.08-.22,0-.31-.08-.08-.22-.08-.31,0l-.94.94c-.08.08-.22.08-.31,0l-.94-.94c-.08-.08-.22-.08-.31,0h0c-.08.08-.08.22,0,.31l.94.94Z"/>
  <path class="cls-1" d="M59.33,60.57c-.08.08-.08.22,0,.31s.22.08.31,0l.94-.94c.08-.08.22-.08.31,0l.94.94c.08.08.22.08.31,0h0c.08-.08.08-.22,0-.31l-.94-.94c-.08-.08-.08-.22,0-.31l.94-.94c.08-.08.08-.22,0-.31-.08-.08-.22-.08-.31,0l-.94.94c-.08.08-.22.08-.31,0l-.94-.94c-.08-.08-.22-.08-.31,0h0c-.08.08-.08.22,0,.31l.94.94c.08.08.08.22,0,.31l-.94.94Z"/>
  <path class="cls-1" d="M54.84,60.57c-.08.08-.08.22,0,.31s.22.08.31,0l.94-.94c.08-.08.22-.08.31,0l.94.94c.08.08.22.08.31,0h0c.08-.08.08-.22,0-.31l-.94-.94c-.08-.08-.08-.22,0-.31l.94-.94c.08-.08.08-.22,0-.31-.08-.08-.22-.08-.31,0l-.94.94c-.08.08-.22.08-.31,0l-.94-.94c-.08-.08-.22-.08-.31,0h0c-.08.08-.08.22,0,.31l.94.94c.08.08.08.22,0,.31l-.94.94Z"/>
  <path class="cls-1" d="M50.35,60.57c-.08.08-.08.22,0,.31s.22.08.31,0l.94-.94c.08-.08.22-.08.31,0l.94.94c.08.08.22.08.31,0h0c.08-.08.08-.22,0-.31l-.94-.94c-.08-.08-.08-.22,0-.31l.94-.94c.08-.08.08-.22,0-.31-.08-.08-.22-.08-.31,0l-.94.94c-.08.08-.22.08-.31,0l-.94-.94c-.08-.08-.22-.08-.31,0h0c-.08.08-.08.22,0,.31l.94.94c.08.08.08.22,0,.31l-.94.94Z"/>
  <path class="cls-1" d="M47.72,59.63c-.08-.08-.08-.22,0-.31l.94-.94c.08-.08.08-.22,0-.31-.08-.08-.22-.08-.31,0l-.94.94c-.08.08-.22.08-.31,0l-.94-.94c-.08-.08-.22-.08-.31,0h0c-.08.08-.08.22,0,.31l.94.94c.08.08.08.22,0,.31l-.94.94c-.08.08-.08.22,0,.31.08.08.22.08.31,0l.94-.94c.08-.08.22-.08.31,0l.94.94c.08.08.22.08.31,0h0c.08-.08.08-.22,0-.31l-.94-.94Z"/>
  <path class="cls-1" d="M41.36,60.57c-.08.08-.08.22,0,.31s.22.08.31,0l.94-.94c.08-.08.22-.08.31,0l.94.94c.08.08.22.08.31,0h0c.08-.08.08-.22,0-.31l-.94-.94c-.08-.08-.08-.22,0-.31l.94-.94c.08-.08.08-.22,0-.31-.08-.08-.22-.08-.31,0l-.94.94c-.08.08-.22.08-.31,0l-.94-.94c-.08-.08-.22-.08-.31,0h0c-.08.08-.08.22,0,.31l.94.94c.08.08.08.22,0,.31l-.94.94Z"/>
  <path class="cls-1" d="M36.87,60.57c-.08.08-.08.22,0,.31s.22.08.31,0l.94-.94c.08-.08.22-.08.31,0l.94.94c.08.08.22.08.31,0h0c.08-.08.08-.22,0-.31l-.94-.94c-.08-.08-.08-.22,0-.31l.94-.94c.08-.08.08-.22,0-.31-.08-.08-.22-.08-.31,0l-.94.94c-.08.08-.22.08-.31,0l-.94-.94c-.08-.08-.22-.08-.31,0h0c-.08.08-.08.22,0,.31l.94.94c.08.08.08.22,0,.31l-.94.94Z"/>
  <path class="cls-1" d="M32.38,60.57c-.08.08-.08.22,0,.31s.22.08.31,0l.94-.94c.08-.08.22-.08.31,0l.94.94c.08.08.22.08.31,0h0c.08-.08.08-.22,0-.31l-.94-.94c-.08-.08-.08-.22,0-.31l.94-.94c.08-.08.08-.22,0-.31-.08-.08-.22-.08-.31,0l-.94.94c-.08.08-.22.08-.31,0l-.94-.94c-.08-.08-.22-.08-.31,0h0c-.08.08-.08.22,0,.31l.94.94c.08.08.08.22,0,.31l-.94.94Z"/>
  <path class="cls-1" d="M27.89,60.57c-.08.08-.08.22,0,.31s.22.08.31,0l.94-.94c.08-.08.22-.08.31,0l.94.94c.08.08.22.08.31,0h0c.08-.08.08-.22,0-.31l-.94-.94c-.08-.08-.08-.22,0-.31l.94-.94c.08-.08.08-.22,0-.31-.08-.08-.22-.08-.31,0l-.94.94c-.08.08-.22.08-.31,0l-.94-.94c-.08-.08-.22-.08-.31,0h0c-.08.08-.08.22,0,.31l.94.94c.08.08.08.22,0,.31l-.94.94Z"/>
  <path class="cls-1" d="M25.26,59.63c-.08-.08-.08-.22,0-.31l.94-.94c.08-.08.08-.22,0-.31-.08-.08-.22-.08-.31,0l-.94.94c-.08.08-.22.08-.31,0l-.94-.94c-.08-.08-.22-.08-.31,0h0c-.08.08-.08.22,0,.31l.94.94c.08.08.08.22,0,.31l-.94.94c-.08.08-.08.22,0,.31.08.08.22.08.31,0l.94-.94c.08-.08.22-.08.31,0l.94.94c.08.08.22.08.31,0h0c.08-.08.08-.22,0-.31l-.94-.94Z"/>
  <path class="cls-1" d="M19.85,59.32c.08.08.08.22,0,.31l-.94.94c-.08.08-.08.22,0,.31s.22.08.31,0l.94-.94c.08-.08.22-.08.31,0l.94.94c.08.08.22.08.31,0h0c.08-.08.08-.22,0-.31l-.94-.94c-.08-.08-.08-.22,0-.31l.94-.94c.08-.08.08-.22,0-.31-.08-.08-.22-.08-.31,0l-.94.94c-.08.08-.22.08-.31,0l-.94-.94c-.08-.08-.22-.08-.31,0h0c-.08.08-.08.22,0,.31l.94.94Z"/>
  <path class="cls-1" d="M15.36,59.32c.08.08.08.22,0,.31l-.94.94c-.08.08-.08.22,0,.31s.22.08.31,0l.94-.94c.08-.08.22-.08.31,0l.94.94c.08.08.22.08.31,0h0c.08-.08.08-.22,0-.31l-.94-.94c-.08-.08-.08-.22,0-.31l.94-.94c.08-.08.08-.22,0-.31-.08-.08-.22-.08-.31,0l-.94.94c-.08.08-.22.08-.31,0l-.94-.94c-.08-.08-.22-.08-.31,0h0c-.08.08-.08.22,0,.31l.94.94Z"/>
  <path class="cls-1" d="M10.86,59.32c.08.08.08.22,0,.31l-.94.94c-.08.08-.08.22,0,.31s.22.08.31,0l.94-.94c.08-.08.22-.08.31,0l.94.94c.08.08.22.08.31,0h0c.08-.08.08-.22,0-.31l-.94-.94c-.08-.08-.08-.22,0-.31l.94-.94c.08-.08.08-.22,0-.31-.08-.08-.22-.08-.31,0l-.94.94c-.08.08-.22.08-.31,0l-.94-.94c-.08-.08-.22-.08-.31,0h0c-.08.08-.08.22,0,.31l.94.94Z"/>
  <path class="cls-1" d="M65.69,52.68c-.08-.08-.08-.22,0-.31l.94-.94c.08-.08.08-.22,0-.31-.08-.08-.22-.08-.31,0l-.94.94c-.08.08-.22.08-.31,0l-.94-.94c-.08-.08-.22-.08-.31,0h0c-.08.08-.08.22,0,.31l.94.94c.08.08.08.22,0,.31l-.94.94c-.08.08-.08.22,0,.31.08.08.22.08.31,0l.94-.94c.08-.08.22-.08.31,0l.94.94c.08.08.22.08.31,0h0c.08-.08.08-.22,0-.31l-.94-.94Z"/>
  <path class="cls-1" d="M61.2,52.68c-.08-.08-.08-.22,0-.31l.94-.94c.08-.08.08-.22,0-.31-.08-.08-.22-.08-.31,0l-.94.94c-.08.08-.22.08-.31,0l-.94-.94c-.08-.08-.22-.08-.31,0h0c-.08.08-.08.22,0,.31l.94.94c.08.08.08.22,0,.31l-.94.94c-.08.08-.08.22,0,.31.08.08.22.08.31,0l.94-.94c.08-.08.22-.08.31,0l.94.94c.08.08.22.08.31,0h0c.08-.08.08-.22,0-.31l-.94-.94Z"/>
  <path class="cls-1" d="M56.7,52.68c-.08-.08-.08-.22,0-.31l.94-.94c.08-.08.08-.22,0-.31-.08-.08-.22-.08-.31,0l-.94.94c-.08.08-.22.08-.31,0l-.94-.94c-.08-.08-.22-.08-.31,0h0c-.08.08-.08.22,0,.31l.94.94c.08.08.08.22,0,.31l-.94.94c-.08.08-.08.22,0,.31.08.08.22.08.31,0l.94-.94c.08-.08.22-.08.31,0l.94.94c.08.08.22.08.31,0h0c.08-.08.08-.22,0-.31l-.94-.94Z"/>
  <path class="cls-1" d="M52.21,52.68c-.08-.08-.08-.22,0-.31l.94-.94c.08-.08.08-.22,0-.31-.08-.08-.22-.08-.31,0l-.94.94c-.08.08-.22.08-.31,0l-.94-.94c-.08-.08-.22-.08-.31,0h0c-.08.08-.08.22,0,.31l.94.94c.08.08.08.22,0,.31l-.94.94c-.08.08-.08.22,0,.31.08.08.22.08.31,0l.94-.94c.08-.08.22-.08.31,0l.94.94c.08.08.22.08.31,0h0c.08-.08.08-.22,0-.31l-.94-.94Z"/>
  <path class="cls-1" d="M48.66,51.43c.08-.08.08-.22,0-.31-.08-.08-.22-.08-.31,0l-.94.94c-.08.08-.22.08-.31,0l-.94-.94c-.08-.08-.22-.08-.31,0h0c-.08.08-.08.22,0,.31l.94.94c.08.08.08.22,0,.31l-.94.94c-.08.08-.08.22,0,.31s.22.08.31,0l.94-.94c.08-.08.22-.08.31,0l.94.94c.08.08.22.08.31,0h0c.08-.08.08-.22,0-.31l-.94-.94c-.08-.08-.08-.22,0-.31l.94-.94Z"/>
  <path class="cls-1" d="M43.23,52.68c-.08-.08-.08-.22,0-.31l.94-.94c.08-.08.08-.22,0-.31-.08-.08-.22-.08-.31,0l-.94.94c-.08.08-.22.08-.31,0l-.94-.94c-.08-.08-.22-.08-.31,0h0c-.08.08-.08.22,0,.31l.94.94c.08.08.08.22,0,.31l-.94.94c-.08.08-.08.22,0,.31.08.08.22.08.31,0l.94-.94c.08-.08.22-.08.31,0l.94.94c.08.08.22.08.31,0h0c.08-.08.08-.22,0-.31l-.94-.94Z"/>
  <path class="cls-1" d="M38.74,52.68c-.08-.08-.08-.22,0-.31l.94-.94c.08-.08.08-.22,0-.31-.08-.08-.22-.08-.31,0l-.94.94c-.08.08-.22.08-.31,0l-.94-.94c-.08-.08-.22-.08-.31,0h0c-.08.08-.08.22,0,.31l.94.94c.08.08.08.22,0,.31l-.94.94c-.08.08-.08.22,0,.31.08.08.22.08.31,0l.94-.94c.08-.08.22-.08.31,0l.94.94c.08.08.22.08.31,0h0c.08-.08.08-.22,0-.31l-.94-.94Z"/>
  <path class="cls-1" d="M34.25,52.68c-.08-.08-.08-.22,0-.31l.94-.94c.08-.08.08-.22,0-.31-.08-.08-.22-.08-.31,0l-.94.94c-.08.08-.22.08-.31,0l-.94-.94c-.08-.08-.22-.08-.31,0h0c-.08.08-.08.22,0,.31l.94.94c.08.08.08.22,0,.31l-.94.94c-.08.08-.08.22,0,.31.08.08.22.08.31,0l.94-.94c.08-.08.22-.08.31,0l.94.94c.08.08.22.08.31,0h0c.08-.08.08-.22,0-.31l-.94-.94Z"/>
  <path class="cls-1" d="M29.75,52.68c-.08-.08-.08-.22,0-.31l.94-.94c.08-.08.08-.22,0-.31-.08-.08-.22-.08-.31,0l-.94.94c-.08.08-.22.08-.31,0l-.94-.94c-.08-.08-.22-.08-.31,0h0c-.08.08-.08.22,0,.31l.94.94c.08.08.08.22,0,.31l-.94.94c-.08.08-.08.22,0,.31.08.08.22.08.31,0l.94-.94c.08-.08.22-.08.31,0l.94.94c.08.08.22.08.31,0h0c.08-.08.08-.22,0-.31l-.94-.94Z"/>
  <path class="cls-1" d="M24.34,52.37c.08.08.08.22,0,.31l-.94.94c-.08.08-.08.22,0,.31s.22.08.31,0l.94-.94c.08-.08.22-.08.31,0l.94.94c.08.08.22.08.31,0h0c.08-.08.08-.22,0-.31l-.94-.94c-.08-.08-.08-.22,0-.31l.94-.94c.08-.08.08-.22,0-.31-.08-.08-.22-.08-.31,0l-.94.94c-.08.08-.22.08-.31,0l-.94-.94c-.08-.08-.22-.08-.31,0h0c-.08.08-.08.22,0,.31l.94.94Z"/>
  <path class="cls-1" d="M20.77,52.68c-.08-.08-.08-.22,0-.31l.94-.94c.08-.08.08-.22,0-.31-.08-.08-.22-.08-.31,0l-.94.94c-.08.08-.22.08-.31,0l-.94-.94c-.08-.08-.22-.08-.31,0h0c-.08.08-.08.22,0,.31l.94.94c.08.08.08.22,0,.31l-.94.94c-.08.08-.08.22,0,.31.08.08.22.08.31,0l.94-.94c.08-.08.22-.08.31,0l.94.94c.08.08.22.08.31,0h0c.08-.08.08-.22,0-.31l-.94-.94Z"/>
  <path class="cls-1" d="M16.28,52.68c-.08-.08-.08-.22,0-.31l.94-.94c.08-.08.08-.22,0-.31-.08-.08-.22-.08-.31,0l-.94.94c-.08.08-.22.08-.31,0l-.94-.94c-.08-.08-.22-.08-.31,0h0c-.08.08-.08.22,0,.31l.94.94c.08.08.08.22,0,.31l-.94.94c-.08.08-.08.22,0,.31.08.08.22.08.31,0l.94-.94c.08-.08.22-.08.31,0l.94.94c.08.08.22.08.31,0h0c.08-.08.08-.22,0-.31l-.94-.94Z"/>
  <path class="cls-1" d="M11.79,52.68c-.08-.08-.08-.22,0-.31l.94-.94c.08-.08.08-.22,0-.31-.08-.08-.22-.08-.31,0l-.94.94c-.08.08-.22.08-.31,0l-.94-.94c-.08-.08-.22-.08-.31,0h0c-.08.08-.08.22,0,.31l.94.94c.08.08.08.22,0,.31l-.94.94c-.08.08-.08.22,0,.31.08.08.22.08.31,0l.94-.94c.08-.08.22-.08.31,0l.94.94c.08.08.22.08.31,0h0c.08-.08.08-.22,0-.31l-.94-.94Z"/>
  <path class="cls-1" d="M78.24,47.41c.08.08.08.22,0,.31l-.94.94c-.08.08-.08.22,0,.31s.22.08.31,0l.94-.94c.08-.08.22-.08.31,0l.94.94c.08.08.22.08.31,0h0c.08-.08.08-.22,0-.31l-.94-.94c-.08-.08-.08-.22,0-.31l.94-.94c.08-.08.08-.22,0-.31-.08-.08-.22-.08-.31,0l-.94.94c-.08.08-.22.08-.31,0l-.94-.94c-.08-.08-.22-.08-.31,0h0c-.08.08-.08.22,0,.31l.94.94Z"/>
  <path class="cls-1" d="M73.75,47.41c.08.08.08.22,0,.31l-.94.94c-.08.08-.08.22,0,.31s.22.08.31,0l.94-.94c.08-.08.22-.08.31,0l.94.94c.08.08.22.08.31,0h0c.08-.08.08-.22,0-.31l-.94-.94c-.08-.08-.08-.22,0-.31l.94-.94c.08-.08.08-.22,0-.31-.08-.08-.22-.08-.31,0l-.94.94c-.08.08-.22.08-.31,0l-.94-.94c-.08-.08-.22-.08-.31,0h0c-.08.08-.08.22,0,.31l.94.94Z"/>
  <path class="cls-1" d="M70.18,47.72c-.08-.08-.08-.22,0-.31l.94-.94c.08-.08.08-.22,0-.31-.08-.08-.22-.08-.31,0l-.94.94c-.08.08-.22.08-.31,0l-.94-.94c-.08-.08-.22-.08-.31,0h0c-.08.08-.08.22,0,.31l.94.94c.08.08.08.22,0,.31l-.94.94c-.08.08-.08.22,0,.31.08.08.22.08.31,0l.94-.94c.08-.08.22-.08.31,0l.94.94c.08.08.22.08.31,0h0c.08-.08.08-.22,0-.31l-.94-.94Z"/>
  <path class="cls-1" d="M64.76,47.41c.08.08.08.22,0,.31l-.94.94c-.08.08-.08.22,0,.31s.22.08.31,0l.94-.94c.08-.08.22-.08.31,0l.94.94c.08.08.22.08.31,0h0c.08-.08.08-.22,0-.31l-.94-.94c-.08-.08-.08-.22,0-.31l.94-.94c.08-.08.08-.22,0-.31-.08-.08-.22-.08-.31,0l-.94.94c-.08.08-.22.08-.31,0l-.94-.94c-.08-.08-.22-.08-.31,0h0c-.08.08-.08.22,0,.31l.94.94Z"/>
  <path class="cls-1" d="M25.26,47.72c-.08-.08-.08-.22,0-.31l.94-.94c.08-.08.08-.22,0-.31-.08-.08-.22-.08-.31,0l-.94.94c-.08.08-.22.08-.31,0l-.94-.94c-.08-.08-.22-.08-.31,0h0c-.08.08-.08.22,0,.31l.94.94c.08.08.08.22,0,.31l-.94.94c-.08.08-.08.22,0,.31.08.08.22.08.31,0l.94-.94c.08-.08.22-.08.31,0l.94.94c.08.08.22.08.31,0h0c.08-.08.08-.22,0-.31l-.94-.94Z"/>
  <path class="cls-1" d="M19.85,47.41c.08.08.08.22,0,.31l-.94.94c-.08.08-.08.22,0,.31s.22.08.31,0l.94-.94c.08-.08.22-.08.31,0l.94.94c.08.08.22.08.31,0h0c.08-.08.08-.22,0-.31l-.94-.94c-.08-.08-.08-.22,0-.31l.94-.94c.08-.08.08-.22,0-.31-.08-.08-.22-.08-.31,0l-.94.94c-.08.08-.22.08-.31,0l-.94-.94c-.08-.08-.22-.08-.31,0h0c-.08.08-.08.22,0,.31l.94.94Z"/>
  <path class="cls-1" d="M15.36,47.41c.08.08.08.22,0,.31l-.94.94c-.08.08-.08.22,0,.31s.22.08.31,0l.94-.94c.08-.08.22-.08.31,0l.94.94c.08.08.22.08.31,0h0c.08-.08.08-.22,0-.31l-.94-.94c-.08-.08-.08-.22,0-.31l.94-.94c.08-.08.08-.22,0-.31-.08-.08-.22-.08-.31,0l-.94.94c-.08.08-.22.08-.31,0l-.94-.94c-.08-.08-.22-.08-.31,0h0c-.08.08-.08.22,0,.31l.94.94Z"/>
  <path class="cls-1" d="M10.86,47.41c.08.08.08.22,0,.31l-.94.94c-.08.08-.08.22,0,.31s.22.08.31,0l.94-.94c.08-.08.22-.08.31,0l.94.94c.08.08.22.08.31,0h0c.08-.08.08-.22,0-.31l-.94-.94c-.08-.08-.08-.22,0-.31l.94-.94c.08-.08.08-.22,0-.31-.08-.08-.22-.08-.31,0l-.94.94c-.08.08-.22.08-.31,0l-.94-.94c-.08-.08-.22-.08-.31,0h0c-.08.08-.08.22,0,.31l.94.94Z"/>
  <path class="cls-1" d="M83.65,42.77c-.08-.08-.08-.22,0-.31l.94-.94c.08-.08.08-.22,0-.31-.08-.08-.22-.08-.31,0l-.94.94c-.08.08-.22.08-.31,0l-.94-.94c-.08-.08-.22-.08-.31,0h0c-.08.08-.08.22,0,.31l.94.94c.08.08.08.22,0,.31l-.94.94c-.08.08-.08.22,0,.31.08.08.22.08.31,0l.94-.94c.08-.08.22-.08.31,0l.94.94c.08.08.22.08.31,0h0c.08-.08.08-.22,0-.31l-.94-.94Z"/>
  <path class="cls-1" d="M79.16,42.77c-.08-.08-.08-.22,0-.31l.94-.94c.08-.08.08-.22,0-.31-.08-.08-.22-.08-.31,0l-.94.94c-.08.08-.22.08-.31,0l-.94-.94c-.08-.08-.22-.08-.31,0h0c-.08.08-.08.22,0,.31l.94.94c.08.08.08.22,0,.31l-.94.94c-.08.08-.08.22,0,.31.08.08.22.08.31,0l.94-.94c.08-.08.22-.08.31,0l.94.94c.08.08.22.08.31,0h0c.08-.08.08-.22,0-.31l-.94-.94Z"/>
  <path class="cls-1" d="M74.67,42.77c-.08-.08-.08-.22,0-.31l.94-.94c.08-.08.08-.22,0-.31-.08-.08-.22-.08-.31,0l-.94.94c-.08.08-.22.08-.31,0l-.94-.94c-.08-.08-.22-.08-.31,0h0c-.08.08-.08.22,0,.31l.94.94c.08.08.08.22,0,.31l-.94.94c-.08.08-.08.22,0,.31.08.08.22.08.31,0l.94-.94c.08-.08.22-.08.31,0l.94.94c.08.08.22.08.31,0h0c.08-.08.08-.22,0-.31l-.94-.94Z"/>
  <path class="cls-1" d="M24.34,42.46c.08.08.08.22,0,.31l-.94.94c-.08.08-.08.22,0,.31s.22.08.31,0l.94-.94c.08-.08.22-.08.31,0l.94.94c.08.08.22.08.31,0h0c.08-.08.08-.22,0-.31l-.94-.94c-.08-.08-.08-.22,0-.31l.94-.94c.08-.08.08-.22,0-.31-.08-.08-.22-.08-.31,0l-.94.94c-.08.08-.22.08-.31,0l-.94-.94c-.08-.08-.22-.08-.31,0h0c-.08.08-.08.22,0,.31l.94.94Z"/>
  <path class="cls-1" d="M20.77,42.77c-.08-.08-.08-.22,0-.31l.94-.94c.08-.08.08-.22,0-.31-.08-.08-.22-.08-.31,0l-.94.94c-.08.08-.22.08-.31,0l-.94-.94c-.08-.08-.22-.08-.31,0h0c-.08.08-.08.22,0,.31l.94.94c.08.08.08.22,0,.31l-.94.94c-.08.08-.08.22,0,.31.08.08.22.08.31,0l.94-.94c.08-.08.22-.08.31,0l.94.94c.08.08.22.08.31,0h0c.08-.08.08-.22,0-.31l-.94-.94Z"/>
  <path class="cls-1" d="M16.28,42.77c-.08-.08-.08-.22,0-.31l.94-.94c.08-.08.08-.22,0-.31-.08-.08-.22-.08-.31,0l-.94.94c-.08.08-.22.08-.31,0l-.94-.94c-.08-.08-.22-.08-.31,0h0c-.08.08-.08.22,0,.31l.94.94c.08.08.08.22,0,.31l-.94.94c-.08.08-.08.22,0,.31.08.08.22.08.31,0l.94-.94c.08-.08.22-.08.31,0l.94.94c.08.08.22.08.31,0h0c.08-.08.08-.22,0-.31l-.94-.94Z"/>
  <path class="cls-1" d="M11.79,42.77c-.08-.08-.08-.22,0-.31l.94-.94c.08-.08.08-.22,0-.31-.08-.08-.22-.08-.31,0l-.94.94c-.08.08-.22.08-.31,0l-.94-.94c-.08-.08-.22-.08-.31,0h0c-.08.08-.08.22,0,.31l.94.94c.08.08.08.22,0,.31l-.94.94c-.08.08-.08.22,0,.31.08.08.22.08.31,0l.94-.94c.08-.08.22-.08.31,0l.94.94c.08.08.22.08.31,0h0c.08-.08.08-.22,0-.31l-.94-.94Z"/>
  <path class="cls-1" d="M87.22,37.51c.08.08.08.22,0,.31l-.94.94c-.08.08-.08.22,0,.31s.22.08.31,0l.94-.94c.08-.08.22-.08.31,0l.94.94c.08.08.22.08.31,0h0c.08-.08.08-.22,0-.31l-.94-.94c-.08-.08-.08-.22,0-.31l.94-.94c.08-.08.08-.22,0-.31-.08-.08-.22-.08-.31,0l-.94.94c-.08.08-.22.08-.31,0l-.94-.94c-.08-.08-.22-.08-.31,0h0c-.08.08-.08.22,0,.31l.94.94Z"/>
  <path class="cls-1" d="M82.73,37.51c.08.08.08.22,0,.31l-.94.94c-.08.08-.08.22,0,.31s.22.08.31,0l.94-.94c.08-.08.22-.08.31,0l.94.94c.08.08.22.08.31,0h0c.08-.08.08-.22,0-.31l-.94-.94c-.08-.08-.08-.22,0-.31l.94-.94c.08-.08.08-.22,0-.31-.08-.08-.22-.08-.31,0l-.94.94c-.08.08-.22.08-.31,0l-.94-.94c-.08-.08-.22-.08-.31,0h0c-.08.08-.08.22,0,.31l.94.94Z"/>
  <path class="cls-1" d="M78.24,37.51c.08.08.08.22,0,.31l-.94.94c-.08.08-.08.22,0,.31s.22.08.31,0l.94-.94c.08-.08.22-.08.31,0l.94.94c.08.08.22.08.31,0h0c.08-.08.08-.22,0-.31l-.94-.94c-.08-.08-.08-.22,0-.31l.94-.94c.08-.08.08-.22,0-.31-.08-.08-.22-.08-.31,0l-.94.94c-.08.08-.22.08-.31,0l-.94-.94c-.08-.08-.22-.08-.31,0h0c-.08.08-.08.22,0,.31l.94.94Z"/>
  <path class="cls-1" d="M73.75,37.51c.08.08.08.22,0,.31l-.94.94c-.08.08-.08.22,0,.31s.22.08.31,0l.94-.94c.08-.08.22-.08.31,0l.94.94c.08.08.22.08.31,0h0c.08-.08.08-.22,0-.31l-.94-.94c-.08-.08-.08-.22,0-.31l.94-.94c.08-.08.08-.22,0-.31-.08-.08-.22-.08-.31,0l-.94.94c-.08.08-.22.08-.31,0l-.94-.94c-.08-.08-.22-.08-.31,0h0c-.08.08-.08.22,0,.31l.94.94Z"/>
  <path class="cls-1" d="M25.26,37.81c-.08-.08-.08-.22,0-.31l.94-.94c.08-.08.08-.22,0-.31-.08-.08-.22-.08-.31,0l-.94.94c-.08.08-.22.08-.31,0l-.94-.94c-.08-.08-.22-.08-.31,0h0c-.08.08-.08.22,0,.31l.94.94c.08.08.08.22,0,.31l-.94.94c-.08.08-.08.22,0,.31.08.08.22.08.31,0l.94-.94c.08-.08.22-.08.31,0l.94.94c.08.08.22.08.31,0h0c.08-.08.08-.22,0-.31l-.94-.94Z"/>
  <path class="cls-1" d="M19.85,37.51c.08.08.08.22,0,.31l-.94.94c-.08.08-.08.22,0,.31s.22.08.31,0l.94-.94c.08-.08.22-.08.31,0l.94.94c.08.08.22.08.31,0h0c.08-.08.08-.22,0-.31l-.94-.94c-.08-.08-.08-.22,0-.31l.94-.94c.08-.08.08-.22,0-.31-.08-.08-.22-.08-.31,0l-.94.94c-.08.08-.22.08-.31,0l-.94-.94c-.08-.08-.22-.08-.31,0h0c-.08.08-.08.22,0,.31l.94.94Z"/>
  <path class="cls-1" d="M15.36,37.51c.08.08.08.22,0,.31l-.94.94c-.08.08-.08.22,0,.31s.22.08.31,0l.94-.94c.08-.08.22-.08.31,0l.94.94c.08.08.22.08.31,0h0c.08-.08.08-.22,0-.31l-.94-.94c-.08-.08-.08-.22,0-.31l.94-.94c.08-.08.08-.22,0-.31-.08-.08-.22-.08-.31,0l-.94.94c-.08.08-.22.08-.31,0l-.94-.94c-.08-.08-.22-.08-.31,0h0c-.08.08-.08.22,0,.31l.94.94Z"/>
  <path class="cls-1" d="M10.86,37.51c.08.08.08.22,0,.31l-.94.94c-.08.08-.08.22,0,.31s.22.08.31,0l.94-.94c.08-.08.22-.08.31,0l.94.94c.08.08.22.08.31,0h0c.08-.08.08-.22,0-.31l-.94-.94c-.08-.08-.08-.22,0-.31l.94-.94c.08-.08.08-.22,0-.31-.08-.08-.22-.08-.31,0l-.94.94c-.08.08-.22.08-.31,0l-.94-.94c-.08-.08-.22-.08-.31,0h0c-.08.08-.08.22,0,.31l.94.94Z"/>
  <path class="cls-1" d="M87.22,32.55c.08.08.08.22,0,.31l-.94.94c-.08.08-.08.22,0,.31s.22.08.31,0l.94-.94c.08-.08.22-.08.31,0l.94.94c.08.08.22.08.31,0h0c.08-.08.08-.22,0-.31l-.94-.94c-.08-.08-.08-.22,0-.31l.94-.94c.08-.08.08-.22,0-.31-.08-.08-.22-.08-.31,0l-.94.94c-.08.08-.22.08-.31,0l-.94-.94c-.08-.08-.22-.08-.31,0h0c-.08.08-.08.22,0,.31l.94.94Z"/>
  <path class="cls-1" d="M82.73,32.55c.08.08.08.22,0,.31l-.94.94c-.08.08-.08.22,0,.31s.22.08.31,0l.94-.94c.08-.08.22-.08.31,0l.94.94c.08.08.22.08.31,0h0c.08-.08.08-.22,0-.31l-.94-.94c-.08-.08-.08-.22,0-.31l.94-.94c.08-.08.08-.22,0-.31-.08-.08-.22-.08-.31,0l-.94.94c-.08.08-.22.08-.31,0l-.94-.94c-.08-.08-.22-.08-.31,0h0c-.08.08-.08.22,0,.31l.94.94Z"/>
  <path class="cls-1" d="M78.24,32.55c.08.08.08.22,0,.31l-.94.94c-.08.08-.08.22,0,.31s.22.08.31,0l.94-.94c.08-.08.22-.08.31,0l.94.94c.08.08.22.08.31,0h0c.08-.08.08-.22,0-.31l-.94-.94c-.08-.08-.08-.22,0-.31l.94-.94c.08-.08.08-.22,0-.31-.08-.08-.22-.08-.31,0l-.94.94c-.08.08-.22.08-.31,0l-.94-.94c-.08-.08-.22-.08-.31,0h0c-.08.08-.08.22,0,.31l.94.94Z"/>
  <path class="cls-1" d="M25.26,32.86c-.08-.08-.08-.22,0-.31l.94-.94c.08-.08.08-.22,0-.31-.08-.08-.22-.08-.31,0l-.94.94c-.08.08-.22.08-.31,0l-.94-.94c-.08-.08-.22-.08-.31,0h0c-.08.08-.08.22,0,.31l.94.94c.08.08.08.22,0,.31l-.94.94c-.08.08-.08.22,0,.31.08.08.22.08.31,0l.94-.94c.08-.08.22-.08.31,0l.94.94c.08.08.22.08.31,0h0c.08-.08.08-.22,0-.31l-.94-.94Z"/>
  <path class="cls-1" d="M19.85,32.55c.08.08.08.22,0,.31l-.94.94c-.08.08-.08.22,0,.31s.22.08.31,0l.94-.94c.08-.08.22-.08.31,0l.94.94c.08.08.22.08.31,0h0c.08-.08.08-.22,0-.31l-.94-.94c-.08-.08-.08-.22,0-.31l.94-.94c.08-.08.08-.22,0-.31-.08-.08-.22-.08-.31,0l-.94.94c-.08.08-.22.08-.31,0l-.94-.94c-.08-.08-.22-.08-.31,0h0c-.08.08-.08.22,0,.31l.94.94Z"/>
  <path class="cls-1" d="M15.36,32.55c.08.08.08.22,0,.31l-.94.94c-.08.08-.08.22,0,.31s.22.08.31,0l.94-.94c.08-.08.22-.08.31,0l.94.94c.08.08.22.08.31,0h0c.08-.08.08-.22,0-.31l-.94-.94c-.08-.08-.08-.22,0-.31l.94-.94c.08-.08.08-.22,0-.31-.08-.08-.22-.08-.31,0l-.94.94c-.08.08-.22.08-.31,0l-.94-.94c-.08-.08-.22-.08-.31,0h0c-.08.08-.08.22,0,.31l.94.94Z"/>
  <path class="cls-1" d="M10.86,32.55c.08.08.08.22,0,.31l-.94.94c-.08.08-.08.22,0,.31s.22.08.31,0l.94-.94c.08-.08.22-.08.31,0l.94.94c.08.08.22.08.31,0h0c.08-.08.08-.22,0-.31l-.94-.94c-.08-.08-.08-.22,0-.31l.94-.94c.08-.08.08-.22,0-.31-.08-.08-.22-.08-.31,0l-.94.94c-.08.08-.22.08-.31,0l-.94-.94c-.08-.08-.22-.08-.31,0h0c-.08.08-.08.22,0,.31l.94.94Z"/>
  <path class="cls-1" d="M89.09,26.65c.08-.08.08-.22,0-.31-.08-.08-.22-.08-.31,0l-.94.94c-.08.08-.22.08-.31,0l-.94-.94c-.08-.08-.22-.08-.31,0h0c-.08.08-.08.22,0,.31l.94.94c.08.08.08.22,0,.31l-.94.94c-.08.08-.08.22,0,.31.08.08.22.08.31,0l.94-.94c.08-.08.22-.08.31,0l.94.94c.08.08.22.08.31,0h0c.08-.08.08-.22,0-.31l-.94-.94c-.08-.08-.08-.22,0-.31l.94-.94Z"/>
  <path class="cls-1" d="M83.65,27.9c-.08-.08-.08-.22,0-.31l.94-.94c.08-.08.08-.22,0-.31-.08-.08-.22-.08-.31,0l-.94.94c-.08.08-.22.08-.31,0l-.94-.94c-.08-.08-.22-.08-.31,0h0c-.08.08-.08.22,0,.31l.94.94c.08.08.08.22,0,.31l-.94.94c-.08.08-.08.22,0,.31.08.08.22.08.31,0l.94-.94c.08-.08.22-.08.31,0l.94.94c.08.08.22.08.31,0h0c.08-.08.08-.22,0-.31l-.94-.94Z"/>
  <path class="cls-1" d="M79.16,27.9c-.08-.08-.08-.22,0-.31l.94-.94c.08-.08.08-.22,0-.31-.08-.08-.22-.08-.31,0l-.94.94c-.08.08-.22.08-.31,0l-.94-.94c-.08-.08-.22-.08-.31,0h0c-.08.08-.08.22,0,.31l.94.94c.08.08.08.22,0,.31l-.94.94c-.08.08-.08.22,0,.31.08.08.22.08.31,0l.94-.94c.08-.08.22-.08.31,0l.94.94c.08.08.22.08.31,0h0c.08-.08.08-.22,0-.31l-.94-.94Z"/>
  <path class="cls-1" d="M24.34,27.6c.08.08.08.22,0,.31l-.94.94c-.08.08-.08.22,0,.31s.22.08.31,0l.94-.94c.08-.08.22-.08.31,0l.94.94c.08.08.22.08.31,0h0c.08-.08.08-.22,0-.31l-.94-.94c-.08-.08-.08-.22,0-.31l.94-.94c.08-.08.08-.22,0-.31-.08-.08-.22-.08-.31,0l-.94.94c-.08.08-.22.08-.31,0l-.94-.94c-.08-.08-.22-.08-.31,0h0c-.08.08-.08.22,0,.31l.94.94Z"/>
  <path class="cls-1" d="M20.77,27.9c-.08-.08-.08-.22,0-.31l.94-.94c.08-.08.08-.22,0-.31-.08-.08-.22-.08-.31,0l-.94.94c-.08.08-.22.08-.31,0l-.94-.94c-.08-.08-.22-.08-.31,0h0c-.08.08-.08.22,0,.31l.94.94c.08.08.08.22,0,.31l-.94.94c-.08.08-.08.22,0,.31.08.08.22.08.31,0l.94-.94c.08-.08.22-.08.31,0l.94.94c.08.08.22.08.31,0h0c.08-.08.08-.22,0-.31l-.94-.94Z"/>
  <path class="cls-1" d="M16.28,27.9c-.08-.08-.08-.22,0-.31l.94-.94c.08-.08.08-.22,0-.31-.08-.08-.22-.08-.31,0l-.94.94c-.08.08-.22.08-.31,0l-.94-.94c-.08-.08-.22-.08-.31,0h0c-.08.08-.08.22,0,.31l.94.94c.08.08.08.22,0,.31l-.94.94c-.08.08-.08.22,0,.31.08.08.22.08.31,0l.94-.94c.08-.08.22-.08.31,0l.94.94c.08.08.22.08.31,0h0c.08-.08.08-.22,0-.31l-.94-.94Z"/>
  <path class="cls-1" d="M11.79,27.9c-.08-.08-.08-.22,0-.31l.94-.94c.08-.08.08-.22,0-.31-.08-.08-.22-.08-.31,0l-.94.94c-.08.08-.22.08-.31,0l-.94-.94c-.08-.08-.22-.08-.31,0h0c-.08.08-.08.22,0,.31l.94.94c.08.08.08.22,0,.31l-.94.94c-.08.08-.08.22,0,.31.08.08.22.08.31,0l.94-.94c.08-.08.22-.08.31,0l.94.94c.08.08.22.08.31,0h0c.08-.08.08-.22,0-.31l-.94-.94Z"/>
  <path class="cls-1" d="M87.22,22.64c.08.08.08.22,0,.31l-.94.94c-.08.08-.08.22,0,.31s.22.08.31,0l.94-.94c.08-.08.22-.08.31,0l.94.94c.08.08.22.08.31,0h0c.08-.08.08-.22,0-.31l-.94-.94c-.08-.08-.08-.22,0-.31l.94-.94c.08-.08.08-.22,0-.31-.08-.08-.22-.08-.31,0l-.94.94c-.08.08-.22.08-.31,0l-.94-.94c-.08-.08-.22-.08-.31,0h0c-.08.08-.08.22,0,.31l.94.94Z"/>
  <path class="cls-1" d="M84.59,21.7c.08-.08.08-.22,0-.31-.08-.08-.22-.08-.31,0l-.94.94c-.08.08-.22.08-.31,0l-.94-.94c-.08-.08-.22-.08-.31,0h0c-.08.08-.08.22,0,.31l.94.94c.08.08.08.22,0,.31l-.94.94c-.08.08-.08.22,0,.31s.22.08.31,0l.94-.94c.08-.08.22-.08.31,0l.94.94c.08.08.22.08.31,0h0c.08-.08.08-.22,0-.31l-.94-.94c-.08-.08-.08-.22,0-.31l.94-.94Z"/>
  <path class="cls-1" d="M78.24,22.64c.08.08.08.22,0,.31l-.94.94c-.08.08-.08.22,0,.31s.22.08.31,0l.94-.94c.08-.08.22-.08.31,0l.94.94c.08.08.22.08.31,0h0c.08-.08.08-.22,0-.31l-.94-.94c-.08-.08-.08-.22,0-.31l.94-.94c.08-.08.08-.22,0-.31-.08-.08-.22-.08-.31,0l-.94.94c-.08.08-.22.08-.31,0l-.94-.94c-.08-.08-.22-.08-.31,0h0c-.08.08-.08.22,0,.31l.94.94Z"/>
  <path class="cls-1" d="M73.75,22.64c.08.08.08.22,0,.31l-.94.94c-.08.08-.08.22,0,.31s.22.08.31,0l.94-.94c.08-.08.22-.08.31,0l.94.94c.08.08.22.08.31,0h0c.08-.08.08-.22,0-.31l-.94-.94c-.08-.08-.08-.22,0-.31l.94-.94c.08-.08.08-.22,0-.31-.08-.08-.22-.08-.31,0l-.94.94c-.08.08-.22.08-.31,0l-.94-.94c-.08-.08-.22-.08-.31,0h0c-.08.08-.08.22,0,.31l.94.94Z"/>
  <path class="cls-1" d="M25.26,22.95c-.08-.08-.08-.22,0-.31l.94-.94c.08-.08.08-.22,0-.31-.08-.08-.22-.08-.31,0l-.94.94c-.08.08-.22.08-.31,0l-.94-.94c-.08-.08-.22-.08-.31,0h0c-.08.08-.08.22,0,.31l.94.94c.08.08.08.22,0,.31l-.94.94c-.08.08-.08.22,0,.31.08.08.22.08.31,0l.94-.94c.08-.08.22-.08.31,0l.94.94c.08.08.22.08.31,0h0c.08-.08.08-.22,0-.31l-.94-.94Z"/>
  <path class="cls-1" d="M19.85,22.64c.08.08.08.22,0,.31l-.94.94c-.08.08-.08.22,0,.31s.22.08.31,0l.94-.94c.08-.08.22-.08.31,0l.94.94c.08.08.22.08.31,0h0c.08-.08.08-.22,0-.31l-.94-.94c-.08-.08-.08-.22,0-.31l.94-.94c.08-.08.08-.22,0-.31-.08-.08-.22-.08-.31,0l-.94.94c-.08.08-.22.08-.31,0l-.94-.94c-.08-.08-.22-.08-.31,0h0c-.08.08-.08.22,0,.31l.94.94Z"/>
  <path class="cls-1" d="M15.36,22.64c.08.08.08.22,0,.31l-.94.94c-.08.08-.08.22,0,.31s.22.08.31,0l.94-.94c.08-.08.22-.08.31,0l.94.94c.08.08.22.08.31,0h0c.08-.08.08-.22,0-.31l-.94-.94c-.08-.08-.08-.22,0-.31l.94-.94c.08-.08.08-.22,0-.31-.08-.08-.22-.08-.31,0l-.94.94c-.08.08-.22.08-.31,0l-.94-.94c-.08-.08-.22-.08-.31,0h0c-.08.08-.08.22,0,.31l.94.94Z"/>
  <path class="cls-1" d="M10.86,22.64c.08.08.08.22,0,.31l-.94.94c-.08.08-.08.22,0,.31s.22.08.31,0l.94-.94c.08-.08.22-.08.31,0l.94.94c.08.08.22.08.31,0h0c.08-.08.08-.22,0-.31l-.94-.94c-.08-.08-.08-.22,0-.31l.94-.94c.08-.08.08-.22,0-.31-.08-.08-.22-.08-.31,0l-.94.94c-.08.08-.22.08-.31,0l-.94-.94c-.08-.08-.22-.08-.31,0h0c-.08.08-.08.22,0,.31l.94.94Z"/>
  <path class="cls-1" d="M83.65,18c-.08-.08-.08-.22,0-.31l.94-.94c.08-.08.08-.22,0-.31-.08-.08-.22-.08-.31,0l-.94.94c-.08.08-.22.08-.31,0l-.94-.94c-.08-.08-.22-.08-.31,0h0c-.08.08-.08.22,0,.31l.94.94c.08.08.08.22,0,.31l-.94.94c-.08.08-.08.22,0,.31.08.08.22.08.31,0l.94-.94c.08-.08.22-.08.31,0l.94.94c.08.08.22.08.31,0h0c.08-.08.08-.22,0-.31l-.94-.94Z"/>
  <path class="cls-1" d="M79.16,18c-.08-.08-.08-.22,0-.31l.94-.94c.08-.08.08-.22,0-.31-.08-.08-.22-.08-.31,0l-.94.94c-.08.08-.22.08-.31,0l-.94-.94c-.08-.08-.22-.08-.31,0h0c-.08.08-.08.22,0,.31l.94.94c.08.08.08.22,0,.31l-.94.94c-.08.08-.08.22,0,.31.08.08.22.08.31,0l.94-.94c.08-.08.22-.08.31,0l.94.94c.08.08.22.08.31,0h0c.08-.08.08-.22,0-.31l-.94-.94Z"/>
  <path class="cls-1" d="M74.67,18c-.08-.08-.08-.22,0-.31l.94-.94c.08-.08.08-.22,0-.31-.08-.08-.22-.08-.31,0l-.94.94c-.08.08-.22.08-.31,0l-.94-.94c-.08-.08-.22-.08-.31,0h0c-.08.08-.08.22,0,.31l.94.94c.08.08.08.22,0,.31l-.94.94c-.08.08-.08.22,0,.31.08.08.22.08.31,0l.94-.94c.08-.08.22-.08.31,0l.94.94c.08.08.22.08.31,0h0c.08-.08.08-.22,0-.31l-.94-.94Z"/>
  <path class="cls-1" d="M71.12,16.74c.08-.08.08-.22,0-.31-.08-.08-.22-.08-.31,0l-.94.94c-.08.08-.22.08-.31,0l-.94-.94c-.08-.08-.22-.08-.31,0h0c-.08.08-.08.22,0,.31l.94.94c.08.08.08.22,0,.31l-.94.94c-.08.08-.08.22,0,.31s.22.08.31,0l.94-.94c.08-.08.22-.08.31,0l.94.94c.08.08.22.08.31,0h0c.08-.08.08-.22,0-.31l-.94-.94c-.08-.08-.08-.22,0-.31l.94-.94Z"/>
  <path class="cls-1" d="M26.2,16.74c.08-.08.08-.22,0-.31-.08-.08-.22-.08-.31,0l-.94.94c-.08.08-.22.08-.31,0l-.94-.94c-.08-.08-.22-.08-.31,0h0c-.08.08-.08.22,0,.31l.94.94c.08.08.08.22,0,.31l-.94.94c-.08.08-.08.22,0,.31s.22.08.31,0l.94-.94c.08-.08.22-.08.31,0l.94.94c.08.08.22.08.31,0h0c.08-.08.08-.22,0-.31l-.94-.94c-.08-.08-.08-.22,0-.31l.94-.94Z"/>
  <path class="cls-1" d="M20.77,18c-.08-.08-.08-.22,0-.31l.94-.94c.08-.08.08-.22,0-.31-.08-.08-.22-.08-.31,0l-.94.94c-.08.08-.22.08-.31,0l-.94-.94c-.08-.08-.22-.08-.31,0h0c-.08.08-.08.22,0,.31l.94.94c.08.08.08.22,0,.31l-.94.94c-.08.08-.08.22,0,.31.08.08.22.08.31,0l.94-.94c.08-.08.22-.08.31,0l.94.94c.08.08.22.08.31,0h0c.08-.08.08-.22,0-.31l-.94-.94Z"/>
  <path class="cls-1" d="M16.28,18c-.08-.08-.08-.22,0-.31l.94-.94c.08-.08.08-.22,0-.31-.08-.08-.22-.08-.31,0l-.94.94c-.08.08-.22.08-.31,0l-.94-.94c-.08-.08-.22-.08-.31,0h0c-.08.08-.08.22,0,.31l.94.94c.08.08.08.22,0,.31l-.94.94c-.08.08-.08.22,0,.31.08.08.22.08.31,0l.94-.94c.08-.08.22-.08.31,0l.94.94c.08.08.22.08.31,0h0c.08-.08.08-.22,0-.31l-.94-.94Z"/>
  <path class="cls-1" d="M11.79,18c-.08-.08-.08-.22,0-.31l.94-.94c.08-.08.08-.22,0-.31-.08-.08-.22-.08-.31,0l-.94.94c-.08.08-.22.08-.31,0l-.94-.94c-.08-.08-.22-.08-.31,0h0c-.08.08-.08.22,0,.31l.94.94c.08.08.08.22,0,.31l-.94.94c-.08.08-.08.22,0,.31.08.08.22.08.31,0l.94-.94c.08-.08.22-.08.31,0l.94.94c.08.08.22.08.31,0h0c.08-.08.08-.22,0-.31l-.94-.94Z"/>
  <path class="cls-1" d="M78.24,12.73c.08.08.08.22,0,.31l-.94.94c-.08.08-.08.22,0,.31s.22.08.31,0l.94-.94c.08-.08.22-.08.31,0l.94.94c.08.08.22.08.31,0h0c.08-.08.08-.22,0-.31l-.94-.94c-.08-.08-.08-.22,0-.31l.94-.94c.08-.08.08-.22,0-.31-.08-.08-.22-.08-.31,0l-.94.94c-.08.08-.22.08-.31,0l-.94-.94c-.08-.08-.22-.08-.31,0h0c-.08.08-.08.22,0,.31l.94.94Z"/>
  <path class="cls-1" d="M73.75,12.73c.08.08.08.22,0,.31l-.94.94c-.08.08-.08.22,0,.31s.22.08.31,0l.94-.94c.08-.08.22-.08.31,0l.94.94c.08.08.22.08.31,0h0c.08-.08.08-.22,0-.31l-.94-.94c-.08-.08-.08-.22,0-.31l.94-.94c.08-.08.08-.22,0-.31-.08-.08-.22-.08-.31,0l-.94.94c-.08.08-.22.08-.31,0l-.94-.94c-.08-.08-.22-.08-.31,0h0c-.08.08-.08.22,0,.31l.94.94Z"/>
  <path class="cls-1" d="M70.18,13.04c-.08-.08-.08-.22,0-.31l.94-.94c.08-.08.08-.22,0-.31-.08-.08-.22-.08-.31,0l-.94.94c-.08.08-.22.08-.31,0l-.94-.94c-.08-.08-.22-.08-.31,0h0c-.08.08-.08.22,0,.31l.94.94c.08.08.08.22,0,.31l-.94.94c-.08.08-.08.22,0,.31.08.08.22.08.31,0l.94-.94c.08-.08.22-.08.31,0l.94.94c.08.08.22.08.31,0h0c.08-.08.08-.22,0-.31l-.94-.94Z"/>
  <path class="cls-1" d="M64.76,12.73c.08.08.08.22,0,.31l-.94.94c-.08.08-.08.22,0,.31s.22.08.31,0l.94-.94c.08-.08.22-.08.31,0l.94.94c.08.08.22.08.31,0h0c.08-.08.08-.22,0-.31l-.94-.94c-.08-.08-.08-.22,0-.31l.94-.94c.08-.08.08-.22,0-.31-.08-.08-.22-.08-.31,0l-.94.94c-.08.08-.22.08-.31,0l-.94-.94c-.08-.08-.22-.08-.31,0h0c-.08.08-.08.22,0,.31l.94.94Z"/>
  <path class="cls-1" d="M25.26,13.04c-.08-.08-.08-.22,0-.31l.94-.94c.08-.08.08-.22,0-.31-.08-.08-.22-.08-.31,0l-.94.94c-.08.08-.22.08-.31,0l-.94-.94c-.08-.08-.22-.08-.31,0h0c-.08.08-.08.22,0,.31l.94.94c.08.08.08.22,0,.31l-.94.94c-.08.08-.08.22,0,.31.08.08.22.08.31,0l.94-.94c.08-.08.22-.08.31,0l.94.94c.08.08.22.08.31,0h0c.08-.08.08-.22,0-.31l-.94-.94Z"/>
  <path class="cls-1" d="M19.85,12.73c.08.08.08.22,0,.31l-.94.94c-.08.08-.08.22,0,.31s.22.08.31,0l.94-.94c.08-.08.22-.08.31,0l.94.94c.08.08.22.08.31,0h0c.08-.08.08-.22,0-.31l-.94-.94c-.08-.08-.08-.22,0-.31l.94-.94c.08-.08.08-.22,0-.31-.08-.08-.22-.08-.31,0l-.94.94c-.08.08-.22.08-.31,0l-.94-.94c-.08-.08-.22-.08-.31,0h0c-.08.08-.08.22,0,.31l.94.94Z"/>
  <path class="cls-1" d="M15.36,12.73c.08.08.08.22,0,.31l-.94.94c-.08.08-.08.22,0,.31s.22.08.31,0l.94-.94c.08-.08.22-.08.31,0l.94.94c.08.08.22.08.31,0h0c.08-.08.08-.22,0-.31l-.94-.94c-.08-.08-.08-.22,0-.31l.94-.94c.08-.08.08-.22,0-.31-.08-.08-.22-.08-.31,0l-.94.94c-.08.08-.22.08-.31,0l-.94-.94c-.08-.08-.22-.08-.31,0h0c-.08.08-.08.22,0,.31l.94.94Z"/>
  <path class="cls-1" d="M10.86,12.73c.08.08.08.22,0,.31l-.94.94c-.08.08-.08.22,0,.31s.22.08.31,0l.94-.94c.08-.08.22-.08.31,0l.94.94c.08.08.22.08.31,0h0c.08-.08.08-.22,0-.31l-.94-.94c-.08-.08-.08-.22,0-.31l.94-.94c.08-.08.08-.22,0-.31-.08-.08-.22-.08-.31,0l-.94.94c-.08.08-.22.08-.31,0l-.94-.94c-.08-.08-.22-.08-.31,0h0c-.08.08-.08.22,0,.31l.94.94Z"/>
  <path class="cls-1" d="M73.75,7.78c.08.08.08.22,0,.31l-.94.94c-.08.08-.08.22,0,.31s.22.08.31,0l.94-.94c.08-.08.22-.08.31,0l.94.94c.08.08.22.08.31,0h0c.08-.08.08-.22,0-.31l-.94-.94c-.08-.08-.08-.22,0-.31l.94-.94c.08-.08.08-.22,0-.31-.08-.08-.22-.08-.31,0l-.94.94c-.08.08-.22.08-.31,0l-.94-.94c-.08-.08-.22-.08-.31,0h0c-.08.08-.08.22,0,.31l.94.94Z"/>
  <path class="cls-1" d="M70.18,8.09c-.08-.08-.08-.22,0-.31l.94-.94c.08-.08.08-.22,0-.31-.08-.08-.22-.08-.31,0l-.94.94c-.08.08-.22.08-.31,0l-.94-.94c-.08-.08-.22-.08-.31,0h0c-.08.08-.08.22,0,.31l.94.94c.08.08.08.22,0,.31l-.94.94c-.08.08-.08.22,0,.31.08.08.22.08.31,0l.94-.94c.08-.08.22-.08.31,0l.94.94c.08.08.22.08.31,0h0c.08-.08.08-.22,0-.31l-.94-.94Z"/>
  <path class="cls-1" d="M64.76,7.78c.08.08.08.22,0,.31l-.94.94c-.08.08-.08.22,0,.31s.22.08.31,0l.94-.94c.08-.08.22-.08.31,0l.94.94c.08.08.22.08.31,0h0c.08-.08.08-.22,0-.31l-.94-.94c-.08-.08-.08-.22,0-.31l.94-.94c.08-.08.08-.22,0-.31-.08-.08-.22-.08-.31,0l-.94.94c-.08.08-.22.08-.31,0l-.94-.94c-.08-.08-.22-.08-.31,0h0c-.08.08-.08.22,0,.31l.94.94Z"/>
  <path class="cls-1" d="M60.27,7.78c.08.08.08.22,0,.31l-.94.94c-.08.08-.08.22,0,.31s.22.08.31,0l.94-.94c.08-.08.22-.08.31,0l.94.94c.08.08.22.08.31,0h0c.08-.08.08-.22,0-.31l-.94-.94c-.08-.08-.08-.22,0-.31l.94-.94c.08-.08.08-.22,0-.31-.08-.08-.22-.08-.31,0l-.94.94c-.08.08-.22.08-.31,0l-.94-.94c-.08-.08-.22-.08-.31,0h0c-.08.08-.08.22,0,.31l.94.94Z"/>
  <path class="cls-1" d="M55.78,7.78c.08.08.08.22,0,.31l-.94.94c-.08.08-.08.22,0,.31s.22.08.31,0l.94-.94c.08-.08.22-.08.31,0l.94.94c.08.08.22.08.31,0h0c.08-.08.08-.22,0-.31l-.94-.94c-.08-.08-.08-.22,0-.31l.94-.94c.08-.08.08-.22,0-.31-.08-.08-.22-.08-.31,0l-.94.94c-.08.08-.22.08-.31,0l-.94-.94c-.08-.08-.22-.08-.31,0h0c-.08.08-.08.22,0,.31l.94.94Z"/>
  <path class="cls-1" d="M51.29,7.78c.08.08.08.22,0,.31l-.94.94c-.08.08-.08.22,0,.31s.22.08.31,0l.94-.94c.08-.08.22-.08.31,0l.94.94c.08.08.22.08.31,0h0c.08-.08.08-.22,0-.31l-.94-.94c-.08-.08-.08-.22,0-.31l.94-.94c.08-.08.08-.22,0-.31-.08-.08-.22-.08-.31,0l-.94.94c-.08.08-.22.08-.31,0l-.94-.94c-.08-.08-.22-.08-.31,0h0c-.08.08-.08.22,0,.31l.94.94Z"/>
  <path class="cls-1" d="M47.72,8.09c-.08-.08-.08-.22,0-.31l.94-.94c.08-.08.08-.22,0-.31-.08-.08-.22-.08-.31,0l-.94.94c-.08.08-.22.08-.31,0l-.94-.94c-.08-.08-.22-.08-.31,0h0c-.08.08-.08.22,0,.31l.94.94c.08.08.08.22,0,.31l-.94.94c-.08.08-.08.22,0,.31.08.08.22.08.31,0l.94-.94c.08-.08.22-.08.31,0l.94.94c.08.08.22.08.31,0h0c.08-.08.08-.22,0-.31l-.94-.94Z"/>
  <path class="cls-1" d="M42.31,7.78c.08.08.08.22,0,.31l-.94.94c-.08.08-.08.22,0,.31s.22.08.31,0l.94-.94c.08-.08.22-.08.31,0l.94.94c.08.08.22.08.31,0h0c.08-.08.08-.22,0-.31l-.94-.94c-.08-.08-.08-.22,0-.31l.94-.94c.08-.08.08-.22,0-.31-.08-.08-.22-.08-.31,0l-.94.94c-.08.08-.22.08-.31,0l-.94-.94c-.08-.08-.22-.08-.31,0h0c-.08.08-.08.22,0,.31l.94.94Z"/>
  <path class="cls-1" d="M37.81,7.78c.08.08.08.22,0,.31l-.94.94c-.08.08-.08.22,0,.31s.22.08.31,0l.94-.94c.08-.08.22-.08.31,0l.94.94c.08.08.22.08.31,0h0c.08-.08.08-.22,0-.31l-.94-.94c-.08-.08-.08-.22,0-.31l.94-.94c.08-.08.08-.22,0-.31-.08-.08-.22-.08-.31,0l-.94.94c-.08.08-.22.08-.31,0l-.94-.94c-.08-.08-.22-.08-.31,0h0c-.08.08-.08.22,0,.31l.94.94Z"/>
  <path class="cls-1" d="M33.32,7.78c.08.08.08.22,0,.31l-.94.94c-.08.08-.08.22,0,.31s.22.08.31,0l.94-.94c.08-.08.22-.08.31,0l.94.94c.08.08.22.08.31,0h0c.08-.08.08-.22,0-.31l-.94-.94c-.08-.08-.08-.22,0-.31l.94-.94c.08-.08.08-.22,0-.31-.08-.08-.22-.08-.31,0l-.94.94c-.08.08-.22.08-.31,0l-.94-.94c-.08-.08-.22-.08-.31,0h0c-.08.08-.08.22,0,.31l.94.94Z"/>
  <path class="cls-1" d="M28.83,7.78c.08.08.08.22,0,.31l-.94.94c-.08.08-.08.22,0,.31s.22.08.31,0l.94-.94c.08-.08.22-.08.31,0l.94.94c.08.08.22.08.31,0h0c.08-.08.08-.22,0-.31l-.94-.94c-.08-.08-.08-.22,0-.31l.94-.94c.08-.08.08-.22,0-.31-.08-.08-.22-.08-.31,0l-.94.94c-.08.08-.22.08-.31,0l-.94-.94c-.08-.08-.22-.08-.31,0h0c-.08.08-.08.22,0,.31l.94.94Z"/>
  <path class="cls-1" d="M25.26,8.09c-.08-.08-.08-.22,0-.31l.94-.94c.08-.08.08-.22,0-.31-.08-.08-.22-.08-.31,0l-.94.94c-.08.08-.22.08-.31,0l-.94-.94c-.08-.08-.22-.08-.31,0h0c-.08.08-.08.22,0,.31l.94.94c.08.08.08.22,0,.31l-.94.94c-.08.08-.08.22,0,.31.08.08.22.08.31,0l.94-.94c.08-.08.22-.08.31,0l.94.94c.08.08.22.08.31,0h0c.08-.08.08-.22,0-.31l-.94-.94Z"/>
  <path class="cls-1" d="M19.85,7.78c.08.08.08.22,0,.31l-.94.94c-.08.08-.08.22,0,.31s.22.08.31,0l.94-.94c.08-.08.22-.08.31,0l.94.94c.08.08.22.08.31,0h0c.08-.08.08-.22,0-.31l-.94-.94c-.08-.08-.08-.22,0-.31l.94-.94c.08-.08.08-.22,0-.31-.08-.08-.22-.08-.31,0l-.94.94c-.08.08-.22.08-.31,0l-.94-.94c-.08-.08-.22-.08-.31,0h0c-.08.08-.08.22,0,.31l.94.94Z"/>
  <path class="cls-1" d="M15.36,7.78c.08.08.08.22,0,.31l-.94.94c-.08.08-.08.22,0,.31s.22.08.31,0l.94-.94c.08-.08.22-.08.31,0l.94.94c.08.08.22.08.31,0h0c.08-.08.08-.22,0-.31l-.94-.94c-.08-.08-.08-.22,0-.31l.94-.94c.08-.08.08-.22,0-.31-.08-.08-.22-.08-.31,0l-.94.94c-.08.08-.22.08-.31,0l-.94-.94c-.08-.08-.22-.08-.31,0h0c-.08.08-.08.22,0,.31l.94.94Z"/>
  <path class="cls-1" d="M10.86,7.78c.08.08.08.22,0,.31l-.94.94c-.08.08-.08.22,0,.31s.22.08.31,0l.94-.94c.08-.08.22-.08.31,0l.94.94c.08.08.22.08.31,0h0c.08-.08.08-.22,0-.31l-.94-.94c-.08-.08-.08-.22,0-.31l.94-.94c.08-.08.08-.22,0-.31-.08-.08-.22-.08-.31,0l-.94.94c-.08.08-.22.08-.31,0l-.94-.94c-.08-.08-.22-.08-.31,0h0c-.08.08-.08.22,0,.31l.94.94Z"/>
  <path class="cls-1" d="M5.43,9.03c-.08.08-.08.22,0,.31s.22.08.31,0l.94-.94c.08-.08.22-.08.31,0l.94.94c.08.08.22.08.31,0h0c.08-.08.08-.22,0-.31l-.94-.94c-.08-.08-.08-.22,0-.31l.94-.94c.08-.08.08-.22,0-.31-.08-.08-.22-.08-.31,0l-.94.94c-.08.08-.22.08-.31,0l-.94-.94c-.08-.08-.22-.08-.31,0h0c-.08.08-.08.22,0,.31l.94.94c.08.08.08.22,0,.31l-.94.94Z"/>
</svg>