<?xml version="1.0" encoding="UTF-8"?>
<svg id="Camada_1" data-name="Camada 1" xmlns="http://www.w3.org/2000/svg" viewBox="0 0 7943.98 4021.33">
  <defs>
    <style>
      .cls-1 {
        fill: none;
        stroke: #000;
        stroke-miterlimit: 10;
        stroke-width: .5px;
      }
    </style>
  </defs>
  <path class="cls-1" d="M3035.93,2043.28L286.27,210.14h5672.83c339.87,0,672.63,99.92,956.72,286.27,290.24,190.4,517.78,463.21,651.71,783.64,87.96,210.47,133.4,436.51,133.4,664.64,0,32.91-.96,65.79-2.83,98.59,1.87,32.8,2.83,65.68,2.83,98.62,0,228.1-45.44,454.17-133.4,664.61-133.94,320.43-361.47,593.26-651.71,783.64-284.09,186.38-616.85,286.27-956.72,286.27H286.27l2749.66-1833.14Z"/>
  <path class="cls-1" d="M3184.07,2043.28L557.63,292.32h5401.47c323.86,0,640.97,95.22,911.68,272.81,276.52,181.39,493.31,441.33,620.93,746.62,83.79,200.44,127.05,415.7,127.05,632.95,0,32.91-.99,65.79-2.98,98.59,1.98,32.8,2.98,65.68,2.98,98.62,0,217.25-43.26,432.51-127.05,632.92-127.62,305.32-344.41,565.23-620.93,746.65-270.71,177.56-587.82,272.81-911.68,272.81H557.63l2626.44-1750.99Z"/>
  <path class="cls-1" d="M3332.18,2043.28L828.99,374.46h5130.11c634.82,0,1211.84,382.85,1456.81,968.97,79.57,190.4,120.7,394.87,120.7,601.26,0,32.91-1.05,65.82-3.15,98.59,2.1,32.8,3.15,65.68,3.15,98.62,0,206.36-41.13,410.85-120.7,601.26-244.97,586.09-821.99,968.94-1456.81,968.94H828.99l2503.19-1668.81Z"/>
  <path class="cls-1" d="M3480.29,2043.28L1100.35,456.64h4858.75c601.68,0,1148.8,362.92,1381.01,918.48,75.37,180.34,114.32,374.06,114.32,569.57,0,32.88-1.11,65.71-3.29,98.45,2.18,32.71,3.29,65.65,3.29,98.76,0,195.51-38.95,389.2-114.32,569.57-232.21,555.53-779.33,918.48-1381.01,918.48H1100.35l2379.94-1586.66Z"/>
  <path class="cls-1" d="M3628.43,2043.28L1371.71,538.79h4587.39c568.57,0,1085.78,343.05,1305.18,868.03,71.21,170.31,108,353.25,108,537.87,0,32.88-1.16,65.74-3.49,98.45,2.3,32.71,3.49,65.62,3.49,98.76,0,184.62-36.79,367.54-108,537.87-219.4,524.98-736.61,868-1305.18,868H1371.71l2256.72-1504.49Z"/>
  <path class="cls-1" d="M3776.54,2043.28L1643.07,620.97h4316.03c535.44,0,1022.74,323.12,1229.39,817.51,67.01,160.3,101.62,332.45,101.62,506.21,0,32.88-1.22,65.74-3.71,98.45,2.47,32.68,3.71,65.62,3.71,98.76,0,173.74-34.61,345.88-101.62,506.18-206.65,494.42-693.95,817.54-1229.39,817.54H1643.07l2133.47-1422.34Z"/>
  <path class="cls-1" d="M3924.65,2043.28L1914.43,703.11h4044.67c502.33,0,959.73,303.22,1153.59,767.05,62.82,150.26,95.27,311.64,95.27,474.52,0,32.91-1.33,65.76-3.97,98.48,2.64,32.63,3.97,65.57,3.97,98.73,0,162.88-32.46,324.23-95.27,474.49-193.86,463.83-651.26,767.06-1153.59,767.06H1914.43l2010.22-1340.16Z"/>
  <path class="cls-1" d="M4072.79,2043.28l-1886.99-1257.99h3773.31c469.19,0,896.68,283.29,1077.79,716.57,58.59,140.23,88.89,290.81,88.89,442.83,0,32.91-1.42,65.76-4.22,98.48,2.81,32.63,4.22,65.57,4.22,98.73,0,151.99-30.3,302.57-88.89,442.83-181.11,433.25-608.6,716.57-1077.79,716.57h-3773.31l1886.99-1258.02Z"/>
  <path class="cls-1" d="M4220.9,2043.28l-1763.74-1175.84h3501.95c436.08,0,833.64,263.42,1001.96,666.11,54.43,130.2,82.57,270,82.57,411.14,0,32.91-1.53,65.79-4.56,98.48,3,32.6,4.56,65.54,4.56,98.73,0,141.14-28.15,280.94-82.57,411.14-168.32,402.69-565.88,666.09-1001.96,666.09h-3501.95l1763.74-1175.84Z"/>
  <path class="cls-1" d="M4369.01,2043.28l-1640.49-1093.66h3230.59c402.95,0,770.63,243.5,926.16,615.6,50.23,120.19,76.2,249.19,76.2,379.47,0,32.94-1.64,65.82-4.96,98.48,3.29,32.57,4.96,65.51,4.96,98.73,0,130.25-25.97,259.29-76.2,379.45-155.54,372.13-523.22,615.63-926.16,615.63h-3230.59l1640.49-1093.69Z"/>
  <path class="cls-1" d="M4517.15,2043.28l-1517.27-1011.52h2959.23c369.84,0,707.58,223.6,850.37,565.14,46.03,110.15,69.85,228.39,69.85,347.78,0,32.97-1.81,65.82-5.41,98.48,3.57,32.54,5.41,65.48,5.41,98.73,0,119.37-23.81,237.63-69.85,347.75-142.78,341.55-480.53,565.14-850.37,565.14h-2959.23l1517.27-1011.51Z"/>
  <path class="cls-1" d="M4665.26,2043.28l-1394.02-929.34h2687.87c336.7,0,644.57,203.67,774.54,514.66,41.87,100.12,63.5,207.58,63.5,316.09,0,32.97-1.98,65.88-5.95,98.5,3.94,32.46,5.95,65.4,5.95,98.7,0,108.51-21.63,215.97-63.5,316.06-129.97,310.99-437.84,514.69-774.54,514.69h-2687.87l1394.02-929.37Z"/>
  <path class="cls-1" d="M4813.37,2043.28l-1270.77-847.19h2416.51c303.56,0,581.53,183.8,698.74,464.2,37.64,90.08,57.15,186.75,57.15,284.4,0,33-2.24,65.91-6.63,98.5,4.37,32.4,6.63,65.37,6.63,98.7,0,97.63-19.5,194.31-57.15,284.4-117.21,280.4-395.18,464.17-698.74,464.17h-2416.51l1270.77-847.19Z"/>
  <path class="cls-1" d="M4961.48,2043.28l-1147.52-765.01h2145.15c270.45,0,518.51,163.87,622.94,413.72,33.45,80.02,50.77,165.94,50.77,252.71,0,33.05-2.49,65.96-7.46,98.5,4.93,32.34,7.46,65.28,7.46,98.7,0,86.77-17.32,172.66-50.77,252.71-104.43,249.85-352.49,413.72-622.94,413.72h-2145.15l1147.52-765.04Z"/>
  <path class="cls-1" d="M5109.62,2043.28l-1024.3-682.87h1873.79c237.32,0,455.47,143.97,547.14,363.23,29.25,70.02,44.42,145.13,44.42,221.05,0,33.08-2.89,66.02-8.56,98.48,5.61,32.14,8.56,65.14,8.56,98.73,0,75.88-15.17,151-44.42,221.02-91.67,219.26-309.83,363.23-547.14,363.23h-1873.79l1024.3-682.87Z"/>
  <path class="cls-1" d="M5257.73,2043.28l-901.05-600.69h1602.42c204.21,0,392.46,124.04,471.32,312.75,25.09,59.98,38.07,124.33,38.07,189.35,0,33.17-3.37,66.16-10.01,98.5,6.58,31.97,10.01,65,10.01,98.7,0,65.03-12.98,129.34-38.07,189.33-78.86,188.7-267.11,312.77-471.32,312.77h-1602.42l901.05-600.72Z"/>
  <path class="cls-1" d="M5405.84,2043.28l-777.8-518.54h1331.06c171.07,0,329.41,104.17,395.52,262.29,20.89,49.95,31.72,103.52,31.72,157.66,0,33.28-4.11,66.36-12.1,98.53,7.91,31.72,12.1,64.77,12.1,98.67,0,54.14-10.83,107.69-31.72,157.63-66.1,158.14-224.45,262.29-395.52,262.29h-1331.06l777.8-518.54Z"/>
  <path class="cls-1" d="M5499.86,2007.22l-600.46-400.31h1059.7c185.56,0,345.06,150.49,345.06,337.78,0,33.51-5.19,66.73-15.28,98.56,9.92,31.29,15.28,64.4,15.28,98.65,0,187.26-159.51,337.78-345.06,337.78h-1059.7l600.46-400.31v-72.14Z"/>
  <path class="cls-1" d="M5582.01,1963.23l-411.25-274.17h788.34c140.12,0,262.91,113.67,262.91,255.63,0,35.01-7.46,68.31-20.78,98.59,13.32,30.3,20.78,63.58,20.78,98.62,0,141.93-122.8,255.6-262.91,255.6h-788.34l411.25-274.17v-160.1Z"/>
  <path class="cls-1" d="M6106.84,2043.28c20.58,27.95,33,61.88,33,98.62,0,96.58-86.06,173.45-180.74,173.45h-516.98l222.07-148.05v-248.03l-222.07-148.03h516.98c94.68,0,180.74,76.85,180.74,173.45,0,36.74-12.42,70.64-33,98.59h0Z"/>
  <path class="cls-1" d="M5714.73,1853.38h245.62c50.2,0,98.59,41.07,98.59,91.3s-48.39,91.93-98.59,91.93h-212.77v-161.32l-32.85-21.91ZM5814.22,2022.02v-146.72h104.57c42.18,0,83.99,34.53,83.99,76.68s-41.84,70.04-83.99,70.04h-104.57Z"/>
  <path class="cls-1" d="M5960.35,2049.94c50.2,0,98.59,41.73,98.59,91.96s-48.39,91.28-98.59,91.28h-245.62l32.85-21.91v-161.32h212.77ZM5814.22,2211.26h104.57c42.18,0,83.99-34.5,83.99-76.68s-41.84-70.02-83.99-70.02h-104.57v146.69Z"/>
</svg>